<?xml version="1.0" encoding="utf-8"?>
<!-- Generator: Adobe Illustrator 17.0.0, SVG Export Plug-In . SVG Version: 6.00 Build 0)  -->
<!DOCTYPE svg PUBLIC "-//W3C//DTD SVG 1.1//EN" "http://www.w3.org/Graphics/SVG/1.1/DTD/svg11.dtd">
<svg version="1.1" id="Слой_1" xmlns="http://www.w3.org/2000/svg" xmlns:xlink="http://www.w3.org/1999/xlink" x="0px" y="0px"
	 width="24px" height="24px" viewBox="0 0 24 24" enable-background="new 0 0 24 24" xml:space="preserve">
<g>
	<path fill="none" stroke="#787A79" stroke-width="3" stroke-linecap="round" stroke-miterlimit="10" d="M6.203,18.831
		c-4.683,0.533-4.683-3.023-4.683-3.023 M4.781,12.488c0,0-3.26,0.356-3.26,3.319 M5.551,8.576c0,0-1.689,1.304-0.771,3.912
		 M10.056,8.932c0,0-2.252-2.43-4.505-0.356 M15.272,4.516c-5.186,0-5.216,4.416-5.216,4.416 M20.251,10.532
		c0.563-6.016-4.979-6.016-4.979-6.016 M22.444,15.156c0,0,0.711-1.956-2.193-4.623 M19.243,18.831
		c2.964-1.484,3.201-3.675,3.201-3.675"/>
	<path fill="#787A79" d="M17.775,12.695c-0.083-0.183-0.197-0.347-0.339-0.488c-0.305-0.303-0.725-0.475-1.152-0.472l-2.111,0.015
		c-0.666,0.005-1.269,0.43-1.502,1.059c-0.06,0.162-0.114,0.326-0.162,0.49L7.94,13.342c-0.128,0.001-0.247,0.053-0.337,0.145
		l-1.174,1.21c-0.185,0.19-0.182,0.498,0.006,0.684l1.196,1.188c0.188,0.187,0.492,0.184,0.677-0.006l0.412-0.425l0.42,0.417
		c0.188,0.187,0.492,0.184,0.677-0.006l0.412-0.425l0.42,0.417l0.067,0.028c0.832,0.015,1.421,0.022,1.785-0.009
		c0.066,0.243,0.131,0.436,0.2,0.602c0.085,0.203,0.206,0.383,0.361,0.537c0.308,0.306,0.717,0.473,1.15,0.47l2.136-0.015
		c0.645-0.005,1.224-0.395,1.477-0.995c0.221-0.527,0.483-1.344,0.472-2.249C18.286,14.007,18.007,13.207,17.775,12.695z
		 M15.621,16.184c-0.64,0-1.159-0.552-1.159-1.233c0-0.681,0.519-1.233,1.159-1.233c0.64,0,1.159,0.552,1.159,1.233
		C16.78,15.632,16.261,16.184,15.621,16.184z"/>
</g>
</svg>
