<?xml version="1.0" encoding="utf-8"?>
<!-- Generator: Adobe Illustrator 17.0.0, SVG Export Plug-In . SVG Version: 6.00 Build 0)  -->
<!DOCTYPE svg PUBLIC "-//W3C//DTD SVG 1.1//EN" "http://www.w3.org/Graphics/SVG/1.1/DTD/svg11.dtd">
<svg version="1.1" id="Слой_1" xmlns="http://www.w3.org/2000/svg" xmlns:xlink="http://www.w3.org/1999/xlink" x="0px" y="0px"
	 width="24px" height="24px" viewBox="0 0 24 24" style="enable-background:new 0 0 24 24;" xml:space="preserve">
<path style="opacity:0.3;fill:#010202;" d="M15.57,11.405v-7.14L12,0.695l-3.57,3.57v2.38H1.29v16.66h21.42v-11.9H15.57z
	 M6.05,20.925H3.67v-2.38h2.38V20.925z M6.05,16.165H3.67v-2.38h2.38V16.165z M6.05,11.405H3.67v-2.38h2.38V11.405z M13.19,20.925
	h-2.38v-2.38h2.38V20.925z M13.19,16.165h-2.38v-2.38h2.38V16.165z M13.19,11.405h-2.38v-2.38h2.38V11.405z M13.19,6.645h-2.38
	v-2.38h2.38V6.645z M20.33,20.925h-2.38v-2.38h2.38V20.925z M20.33,16.165h-2.38v-2.38h2.38V16.165z"/>
</svg>
