<?xml version="1.0" encoding="utf-8"?>
<!-- Generator: Adobe Illustrator 17.0.0, SVG Export Plug-In . SVG Version: 6.00 Build 0)  -->
<!DOCTYPE svg PUBLIC "-//W3C//DTD SVG 1.1//EN" "http://www.w3.org/Graphics/SVG/1.1/DTD/svg11.dtd">
<svg version="1.1" id="Слой_1" xmlns="http://www.w3.org/2000/svg" xmlns:xlink="http://www.w3.org/1999/xlink" x="0px" y="0px"
	 width="80px" height="80px" viewBox="0 0 80 80" style="enable-background:new 0 0 80 80;" xml:space="preserve">
<g>
	<circle style="fill:none;stroke:#B7482A;stroke-width:3;stroke-miterlimit:10;" cx="40" cy="40" r="38"/>
	<g>
		<g>
			<path style="fill:none;stroke:#B7482A;stroke-miterlimit:10;" d="M54.155,32.739h-2.128v-5.215
				c0-6.573-5.395-11.921-12.027-11.921c-6.632,0-12.027,5.348-12.027,11.921v5.215h-2.128c-0.687,0-1.244,0.552-1.244,1.233v23.13
				c0,0.681,0.557,1.233,1.244,1.233h28.31c0.687,0,1.244-0.552,1.244-1.233v-23.13C55.399,33.291,54.842,32.739,54.155,32.739z
				 M41.94,46.816v4.924c0,0.43-0.352,0.779-0.786,0.779h-2.308c-0.434,0-0.786-0.349-0.786-0.779v-4.924
				c-0.858-0.603-1.419-1.595-1.419-2.717c0-1.839,1.504-3.329,3.359-3.329c1.855,0,3.359,1.491,3.359,3.329
				C43.359,45.221,42.798,46.213,41.94,46.816z M46.285,32.739h-12.57v-5.215c0-3.435,2.819-6.229,6.285-6.229
				c3.465,0,6.285,2.794,6.285,6.229V32.739z"/>
		</g>
	</g>
</g>
</svg>
