<?xml version="1.0" encoding="utf-8"?>
<!-- Generator: Adobe Illustrator 17.0.0, SVG Export Plug-In . SVG Version: 6.00 Build 0)  -->
<!DOCTYPE svg PUBLIC "-//W3C//DTD SVG 1.1//EN" "http://www.w3.org/Graphics/SVG/1.1/DTD/svg11.dtd">
<svg version="1.1" id="Слой_1" xmlns="http://www.w3.org/2000/svg" xmlns:xlink="http://www.w3.org/1999/xlink" x="0px" y="0px"
	 width="48px" height="48px" viewBox="0 0 48 48" style="enable-background:new 0 0 48 48;" xml:space="preserve">
<text transform="matrix(1.0072 0 0 1 14.8193 35.3066)" style="fill:#FEF8F9; font-family:'Roboto-Regular'; font-size:30.4134;">F</text>
<g>
	<g>
		<g>
			<circle style="fill:#DD5332;" cx="24" cy="24" r="23"/>
			<circle style="fill:#B7482A;" cx="24" cy="24" r="21.686"/>
		</g>
	</g>
	<g>
		<path style="fill:none;stroke:#FFFFFF;stroke-miterlimit:10;" d="M32.027,21.597H30.82v-2.962c0-3.734-3.059-6.771-6.82-6.771
			c-3.761,0-6.82,3.038-6.82,6.771v2.962h-1.207c-0.39,0-0.706,0.314-0.706,0.7v13.138c0,0.387,0.316,0.701,0.706,0.701h16.053
			c0.39,0,0.705-0.314,0.705-0.701V22.298C32.732,21.911,32.416,21.597,32.027,21.597z M25.1,29.593v2.797
			c0,0.244-0.199,0.442-0.446,0.442h-1.309c-0.246,0-0.446-0.198-0.446-0.442v-2.797c-0.487-0.343-0.805-0.906-0.805-1.543
			c0-1.044,0.853-1.891,1.905-1.891c1.052,0,1.905,0.847,1.905,1.891C25.905,28.687,25.587,29.25,25.1,29.593z M27.564,21.597
			h-7.128v-2.962c0-1.951,1.599-3.538,3.564-3.538c1.965,0,3.564,1.587,3.564,3.538V21.597z"/>
	</g>
</g>
</svg>
