<?xml version="1.0" encoding="utf-8"?>
<!-- Generator: Adobe Illustrator 17.0.0, SVG Export Plug-In . SVG Version: 6.00 Build 0)  -->
<!DOCTYPE svg PUBLIC "-//W3C//DTD SVG 1.1//EN" "http://www.w3.org/Graphics/SVG/1.1/DTD/svg11.dtd">
<svg version="1.1" id="Слой_1" xmlns="http://www.w3.org/2000/svg" xmlns:xlink="http://www.w3.org/1999/xlink" x="0px" y="0px"
	 width="18.75px" height="17.75px" viewBox="0 0 18.75 17.75" style="enable-background:new 0 0 18.75 17.75;" xml:space="preserve"
	>
<g>
	<path style="fill:#FFFFFF;" d="M13.169,1.29l-1.968-0.003c-2.211,0-3.64,1.466-3.64,3.735v1.722H5.582
		c-0.171,0-0.309,0.139-0.309,0.31v2.495c0,0.171,0.139,0.309,0.309,0.309h1.979v6.296c0,0.171,0.138,0.309,0.309,0.309h2.582
		c0.171,0,0.309-0.139,0.309-0.309V9.858h2.314c0.171,0,0.309-0.138,0.309-0.309l0.001-2.495c0-0.082-0.033-0.161-0.091-0.219
		c-0.058-0.058-0.137-0.091-0.219-0.091h-2.314v-1.46c0-0.702,0.167-1.058,1.081-1.058l1.326,0c0.171,0,0.309-0.139,0.309-0.309
		V1.599C13.478,1.429,13.339,1.29,13.169,1.29z"/>
</g>
</svg>
