<?xml version="1.0" encoding="utf-8"?>
<!-- Generator: Adobe Illustrator 17.0.0, SVG Export Plug-In . SVG Version: 6.00 Build 0)  -->
<!DOCTYPE svg PUBLIC "-//W3C//DTD SVG 1.1//EN" "http://www.w3.org/Graphics/SVG/1.1/DTD/svg11.dtd">
<svg version="1.1" id="Слой_1" xmlns="http://www.w3.org/2000/svg" xmlns:xlink="http://www.w3.org/1999/xlink" x="0px" y="0px"
	 width="24px" height="24px" viewBox="0 0 24 24" style="enable-background:new 0 0 24 24;" xml:space="preserve">
<g>
	<g>
		<path style="fill:#777777;" d="M20.978,11.08l0.298-2.009c0.057-0.388-0.057-0.782-0.313-1.079
			c-0.24-0.278-0.583-0.446-0.947-0.466V4.714c0-1.37-1.115-2.485-2.485-2.485h-4.035c-1.343,0-2.056,0.567-2.576,0.981
			c-0.418,0.333-0.671,0.534-1.213,0.534H3.876c-1.221,0-2.215,0.968-2.215,2.158v1.625c-0.365,0.02-0.707,0.187-0.947,0.466
			c-0.256,0.297-0.37,0.691-0.313,1.079l1.619,10.924c0.098,0.661,0.666,1.151,1.334,1.151h14.717h0.252c0,0,0.001,0,0.002,0
			c2.928-0.07,5.289-2.473,5.289-5.418C23.614,13.757,22.556,12.028,20.978,11.08z M3.285,7.524V5.902
			c0-0.334,0.3-0.534,0.591-0.534h5.831c1.109,0,1.727-0.492,2.224-0.887c0.458-0.365,0.79-0.628,1.565-0.628h4.035
			c0.475,0,0.861,0.386,0.861,0.861v2.81L3.285,7.524L3.285,7.524z M18.175,19.846c-2.253,0-4.079-1.826-4.079-4.079
			s1.826-4.079,4.079-4.079s4.079,1.826,4.079,4.079S20.428,19.846,18.175,19.846z"/>
	</g>
	<circle style="fill:#777777;" cx="16.105" cy="15.878" r="0.621"/>
	<circle style="fill:#777777;" cx="18.134" cy="15.878" r="0.621"/>
	<circle style="fill:#777777;" cx="20.163" cy="15.878" r="0.621"/>
</g>
</svg>
