<?xml version="1.0" encoding="utf-8"?>
<!-- Generator: Adobe Illustrator 17.0.0, SVG Export Plug-In . SVG Version: 6.00 Build 0)  -->
<!DOCTYPE svg PUBLIC "-//W3C//DTD SVG 1.1//EN" "http://www.w3.org/Graphics/SVG/1.1/DTD/svg11.dtd">
<svg version="1.1" id="Слой_1" xmlns="http://www.w3.org/2000/svg" xmlns:xlink="http://www.w3.org/1999/xlink" x="0px" y="0px"
	 width="24px" height="24px" viewBox="0 0 24 24" style="enable-background:new 0 0 24 24;" xml:space="preserve">
<g style="opacity:0.3;">
	<path style="fill:#010202;" d="M11.781,0.441c-6.396,0-11.58,5.182-11.58,11.58c0,6.395,5.184,11.58,11.58,11.58
		s11.58-5.185,11.58-11.58C23.361,5.623,18.177,0.441,11.781,0.441z M11.781,21.711c-5.354,0-9.693-4.338-9.693-9.691
		c0-5.354,4.339-9.694,9.693-9.694c5.353,0,9.691,4.34,9.691,9.694C21.472,17.374,17.134,21.711,11.781,21.711z"/>
	<path style="fill:#010202;" d="M11.481,15.604c-1.049,0-1.795,0.746-1.795,1.835c0,1.048,0.726,1.834,1.795,1.834
		c1.109,0,1.815-0.787,1.815-1.834C13.274,16.349,12.568,15.604,11.481,15.604z"/>
	<path style="fill:#010202;" d="M11.761,5.218c-1.43,0-2.619,0.402-3.366,0.826l0.686,2.199c0.524-0.362,1.331-0.605,1.996-0.605
		c1.008,0.021,1.473,0.505,1.473,1.21c0,0.667-0.525,1.331-1.172,2.118c-0.906,1.07-1.25,2.118-1.189,3.146l0.02,0.525h2.682v-0.363
		c-0.02-0.908,0.303-1.695,1.028-2.521c0.768-0.847,1.734-1.855,1.734-3.388C15.652,6.689,14.424,5.218,11.761,5.218z"/>
</g>
</svg>
