<?xml version="1.0" encoding="utf-8"?>
<!-- Generator: Adobe Illustrator 17.0.0, SVG Export Plug-In . SVG Version: 6.00 Build 0)  -->
<!DOCTYPE svg PUBLIC "-//W3C//DTD SVG 1.1//EN" "http://www.w3.org/Graphics/SVG/1.1/DTD/svg11.dtd">
<svg version="1.1" id="Слой_1" xmlns="http://www.w3.org/2000/svg" xmlns:xlink="http://www.w3.org/1999/xlink" x="0px" y="0px"
	 width="24px" height="24px" viewBox="0 0 24 24" style="enable-background:new 0 0 24 24;" xml:space="preserve">
<g style="opacity:0.3;">
	<path style="fill:#010202;" d="M12,0.646C5.739,0.646,0.645,5.738,0.645,12c0,6.26,5.094,11.354,11.355,11.354
		c6.261,0,11.355-5.094,11.355-11.354C23.355,5.738,18.261,0.646,12,0.646z M12,20.824c-4.866,0-8.825-3.958-8.825-8.824
		c0-4.868,3.959-8.826,8.825-8.826c4.867,0,8.826,3.958,8.826,8.826C20.825,16.866,16.867,20.824,12,20.824z"/>
	<path style="fill:#010202;" d="M15.727,14.057c-0.725,1.245-2.074,2.017-3.52,2.017c-2.245,0-4.074-1.828-4.074-4.074
		c0-2.247,1.829-4.076,4.074-4.076c1.446,0,2.795,0.775,3.52,2.017l0.094,0.162h2.737l-0.164-0.441
		c-0.476-1.262-1.312-2.334-2.418-3.1c-1.109-0.768-2.411-1.175-3.768-1.175c-3.645,0-6.609,2.967-6.609,6.612
		c0,3.645,2.964,6.609,6.609,6.609c1.357,0,2.659-0.406,3.768-1.175c1.106-0.766,1.942-1.838,2.418-3.1l0.164-0.441h-2.737
		L15.727,14.057z"/>
</g>
</svg>
