<?xml version="1.0" encoding="utf-8"?>
<!-- Generator: Adobe Illustrator 17.0.0, SVG Export Plug-In . SVG Version: 6.00 Build 0)  -->
<!DOCTYPE svg PUBLIC "-//W3C//DTD SVG 1.1//EN" "http://www.w3.org/Graphics/SVG/1.1/DTD/svg11.dtd">
<svg version="1.1" id="Слой_1" xmlns="http://www.w3.org/2000/svg" xmlns:xlink="http://www.w3.org/1999/xlink" x="0px" y="0px"
	 width="48px" height="48px" viewBox="0 0 48 48" style="enable-background:new 0 0 48 48;" xml:space="preserve">
<g>
	<path style="fill:#FFFFFF;" d="M18.642,39.421l-2.043,2.075c-0.412,0.415-1.638,0.415-2.045,0l-9.406-9.551
		c-0.405-0.416-0.405-1.663,0-2.077l9.406-9.554c0.408-0.416,1.633-0.416,2.045,0l9.406,9.554c0.405,0.414,0.405,1.661,0,2.077
		l-3.685,3.323l2.457,2.491l3.268-3.323c2.043-2.076,2.043-4.983,0-7.061l-8.996-9.138c-2.043-2.076-4.906-2.076-6.949,0
		l-8.996,9.138c-2.048,2.078-2.048,4.985,0,7.061l8.996,9.138c2.043,2.077,4.906,2.077,6.949,0l2.045-2.078L18.642,39.421z"/>
	<path style="fill:#FFFFFF;" d="M25.593,12.838l-5.721,5.4l3.268,3.323l5.318-5.815c0.815-0.415,2.043-0.415,2.449,0l1.23,1.246
		l3.273-2.908l-1.23-1.246C31.726,10.347,28.046,10.347,25.593,12.838L25.593,12.838z M42.768,27.791
		c0.815,0.831,0.815,2.078,0,2.491L30.907,42.328c-0.405,0.831-1.633,0.831-2.449,0l-11.86-12.046c-0.818-0.414-0.818-1.66,0-2.491
		l3.273-3.322l-2.865-2.908l-3.273,3.322c-2.451,2.493-2.451,6.231,0,8.723l11.859,12.046c2.453,2.076,6.134,2.076,8.586,0
		l11.86-12.046c2.041-2.491,2.041-6.23,0-8.723l-8.178-8.307l-2.863,3.322L42.768,27.791z"/>
	<path style="fill:#FFFFFF;" d="M27.23,2.455l-6.954,7.06c-1.228,1.246-1.228,3.323,0,4.984l1.638,1.247l1.633-1.662l-1.633-1.246
		c-0.41-0.414-0.41-1.246,0-1.661l6.949-7.062c0.41-0.416,1.226-0.416,1.638,0l6.949,7.062c0.41,0.416,0.41,1.247,0,1.661
		l-6.949,7.06c-0.412,0.416-1.228,0.416-1.638,0l-1.633-2.075l-1.638,2.075l1.638,1.662c1.228,1.246,3.676,1.246,4.906,0
		l6.951-7.062c1.64-1.661,1.64-3.738,0-4.984l-6.951-7.06C30.907,0.793,28.458,0.793,27.23,2.455L27.23,2.455z"/>
</g>
</svg>
