<?xml version="1.0" encoding="utf-8"?>
<!-- Generator: Adobe Illustrator 17.0.0, SVG Export Plug-In . SVG Version: 6.00 Build 0)  -->
<!DOCTYPE svg PUBLIC "-//W3C//DTD SVG 1.1//EN" "http://www.w3.org/Graphics/SVG/1.1/DTD/svg11.dtd">
<svg version="1.1" id="Слой_1" xmlns="http://www.w3.org/2000/svg" xmlns:xlink="http://www.w3.org/1999/xlink" x="0px" y="0px"
	 width="22.25px" height="17.75px" viewBox="0 0 22.25 17.75" style="enable-background:new 0 0 22.25 17.75;" xml:space="preserve"
	>
<g>
	<g>
		<path style="fill:#FFFFFF;" d="M21.082,3.011c-0.696,0.308-1.443,0.518-2.228,0.611c0.801-0.48,1.415-1.241,1.706-2.145
			c-0.752,0.444-1.581,0.767-2.466,0.942c-0.708-0.755-1.715-1.226-2.832-1.226c-2.143,0-3.88,1.737-3.88,3.879
			c0,0.304,0.034,0.6,0.1,0.884C8.258,5.794,5.399,4.249,3.485,1.902c-0.335,0.572-0.525,1.239-0.525,1.95
			c0,1.346,0.686,2.534,1.726,3.229C4.05,7.06,3.452,6.885,2.929,6.594v0.048c0,1.879,1.338,3.448,3.112,3.805
			c-0.325,0.087-0.668,0.136-1.022,0.136c-0.251,0-0.493-0.025-0.73-0.072c0.494,1.542,1.927,2.664,3.624,2.695
			c-1.327,1.04-3.001,1.658-4.819,1.658c-0.313,0-0.622-0.019-0.925-0.053c1.717,1.103,3.756,1.746,5.948,1.746
			c7.138,0,11.039-5.912,11.039-11.039l-0.013-0.502C19.904,4.472,20.564,3.788,21.082,3.011z"/>
	</g>
</g>
</svg>
