<?xml version="1.0" encoding="utf-8"?>
<!-- Generator: Adobe Illustrator 17.0.0, SVG Export Plug-In . SVG Version: 6.00 Build 0)  -->
<!DOCTYPE svg PUBLIC "-//W3C//DTD SVG 1.1//EN" "http://www.w3.org/Graphics/SVG/1.1/DTD/svg11.dtd">
<svg version="1.1" id="Слой_1" xmlns="http://www.w3.org/2000/svg" xmlns:xlink="http://www.w3.org/1999/xlink" x="0px" y="0px"
	 width="30.75px" height="17.75px" viewBox="0 0 30.75 17.75" style="enable-background:new 0 0 30.75 17.75;" xml:space="preserve"
	>
<g>
	<path style="fill:#FFFFFF;" d="M27.163,13.385c-0.765-0.918-1.666-1.701-2.518-2.533c-0.769-0.75-0.817-1.185-0.199-2.05
		c0.675-0.945,1.4-1.853,2.081-2.793c0.635-0.879,1.285-1.755,1.619-2.808c0.212-0.669,0.025-0.965-0.662-1.082
		c-0.118-0.021-0.241-0.022-0.361-0.022l-4.073-0.005c-0.502-0.007-0.779,0.211-0.956,0.656c-0.239,0.601-0.486,1.201-0.772,1.781
		c-0.647,1.315-1.37,2.586-2.384,3.662c-0.224,0.237-0.471,0.537-0.844,0.414c-0.467-0.17-0.605-0.94-0.597-1.201l-0.004-4.701
		c-0.091-0.672-0.239-0.971-0.906-1.102l-4.231,0.001c-0.565,0-0.848,0.218-1.15,0.571c-0.174,0.204-0.226,0.336,0.131,0.404
		c0.702,0.133,1.098,0.588,1.203,1.292c0.168,1.125,0.157,2.255,0.06,3.384c-0.029,0.33-0.085,0.659-0.216,0.967
		c-0.205,0.484-0.535,0.583-0.969,0.285c-0.393-0.27-0.669-0.65-0.939-1.032C9.46,6.039,8.65,4.493,7.99,2.868
		C7.799,2.399,7.47,2.114,6.973,2.106C5.751,2.087,4.529,2.084,3.307,2.108C2.572,2.121,2.352,2.478,2.652,3.145
		c1.331,2.96,2.812,5.839,4.746,8.461c0.993,1.346,2.133,2.533,3.605,3.375c1.669,0.954,3.466,1.241,5.358,1.153
		c0.886-0.042,1.152-0.272,1.193-1.155c0.028-0.604,0.096-1.205,0.394-1.748c0.293-0.533,0.736-0.634,1.246-0.303
		c0.255,0.166,0.471,0.377,0.674,0.6c0.499,0.546,0.98,1.108,1.497,1.635c0.649,0.661,1.418,1.051,2.385,0.971l3.743,0.001
		c0.603-0.039,0.916-0.779,0.57-1.452C27.821,14.211,27.502,13.791,27.163,13.385z"/>
</g>
</svg>
