<?xml version="1.0" encoding="utf-8"?>
<!-- Generator: Adobe Illustrator 17.0.0, SVG Export Plug-In . SVG Version: 6.00 Build 0)  -->
<!DOCTYPE svg PUBLIC "-//W3C//DTD SVG 1.1//EN" "http://www.w3.org/Graphics/SVG/1.1/DTD/svg11.dtd">
<svg version="1.1" id="Слой_1" xmlns="http://www.w3.org/2000/svg" xmlns:xlink="http://www.w3.org/1999/xlink" x="0px" y="0px"
	 width="24px" height="24px" viewBox="0 0 24 24" enable-background="new 0 0 24 24" xml:space="preserve">
<g>
	<g opacity="0.54">
		<path d="M14.86,13.539c-0.194,0.313-0.406,0.638-0.636,0.977c1.928,0.288,2.916,0.905,2.916,1.213c0,0.408-1.748,1.368-5.14,1.368
			c-3.391,0-5.14-0.959-5.14-1.368c0-0.308,0.987-0.925,2.915-1.213c-0.23-0.338-0.442-0.663-0.636-0.977
			c-1.902,0.359-3.354,1.097-3.354,2.19c0,1.603,3.127,2.442,6.214,2.442c3.087,0,6.214-0.839,6.214-2.442
			C18.214,14.636,16.762,13.898,14.86,13.539L14.86,13.539z M14.86,13.539"/>
		<path d="M12,15.627c0.28,0,0.542-0.134,0.707-0.36c1.057-1.443,2.927-4.197,2.927-5.637c0-2.007-1.627-3.634-3.634-3.634
			c-2.007,0-3.634,1.627-3.634,3.634c0,1.439,1.87,4.194,2.927,5.637C11.458,15.493,11.721,15.627,12,15.627L12,15.627z
			 M10.488,9.559c0-0.835,0.677-1.512,1.512-1.512c0.835,0,1.512,0.677,1.512,1.512c0,0.834-0.677,1.511-1.512,1.511
			C11.165,11.07,10.488,10.393,10.488,9.559L10.488,9.559z M10.488,9.559"/>
	</g>
	<g opacity="0.54">
		<g>
			<defs>
				<rect id="SVGID_1_" x="0.614" y="0.586" width="22.773" height="22.829"/>
			</defs>
			<clipPath id="SVGID_2_">
				<use xlink:href="#SVGID_1_"  overflow="visible"/>
			</clipPath>
			<path clip-path="url(#SVGID_2_)" d="M15.847,3.74c0.312-0.676,0.629-1.347,0.96-2.06C13.144,0.138,9.575,0.213,6.164,2.245
				c-3.299,1.962-5.089,4.944-5.55,8.784c0.783,0.07,1.524,0.135,2.265,0.196C3.284,5.423,9.696,0.972,15.847,3.74L15.847,3.74z
				 M15.847,3.74"/>
			<path clip-path="url(#SVGID_2_)" d="M23.2,10.045c-0.736,0.126-1.468,0.256-2.232,0.387c0.396,2.656-0.154,5.051-1.775,7.148
				c-1.612,2.088-3.775,3.234-6.417,3.528c0.065,0.75,0.13,1.482,0.191,2.213C18.498,23.126,24.426,17.571,23.2,10.045L23.2,10.045z
				 M23.2,10.045"/>
		</g>
		<path d="M2.846,12.822c-0.704,0.061-1.435,0.126-2.167,0.187c0.172,4.636,4.217,9.856,10.317,10.35
			c0.065-0.75,0.131-1.487,0.191-2.2C6.415,20.362,3.652,17.599,2.846,12.822L2.846,12.822z M2.846,12.822"/>
		<path d="M19.202,6.462c0.568,0.736,1.006,1.547,1.347,2.442c0.708-0.256,1.407-0.513,2.139-0.778
			c-0.843-2.246-2.218-4.035-4.171-5.438c-0.433,0.62-0.862,1.226-1.305,1.859C17.967,5.101,18.638,5.73,19.202,6.462L19.202,6.462z
			 M19.202,6.462"/>
	</g>
</g>
</svg>
