<?xml version="1.0" encoding="utf-8"?>
<!-- Generator: Adobe Illustrator 17.0.0, SVG Export Plug-In . SVG Version: 6.00 Build 0)  -->
<!DOCTYPE svg PUBLIC "-//W3C//DTD SVG 1.1//EN" "http://www.w3.org/Graphics/SVG/1.1/DTD/svg11.dtd">
<svg version="1.1" id="Слой_1" xmlns="http://www.w3.org/2000/svg" xmlns:xlink="http://www.w3.org/1999/xlink" x="0px" y="0px"
	 width="24px" height="24px" viewBox="0 0 24 24" style="enable-background:new 0 0 24 24;" xml:space="preserve">
<g style="opacity:0.54;">
	<g>
		<path style="fill:#313132;" d="M10.764,20.62c-0.172-0.172-0.271-0.421-0.271-0.664v-0.539H3.998V2.253h6.494V7.22
			c-0.049,0.298,0.051,0.602,0.267,0.813c0.002,0.002,0.005,0.005,0.007,0.007c0.004,0.004,0.009,0.001,0.013,0.005
			c0.211,0.202,0.505,0.285,0.793,0.238h4.95v4.398l0.116,0.202l0.3-0.519c0.165-0.287,0.494-0.471,0.825-0.464
			c0.155,0.004,0.308,0.047,0.442,0.125l0.173,0.1V7.52c0.055-0.337-0.079-0.677-0.349-0.886l-5.878-5.878
			c-0.179-0.23-0.454-0.369-0.745-0.365c-0.043,0.001-0.086,0.006-0.129,0.006H3.071c-0.512,0-0.928,0.429-0.928,0.941v19.018
			c0,0.512,0.415,0.915,0.928,0.915h8.716l0.232-0.371H11.42C11.177,20.901,10.935,20.791,10.764,20.62L10.764,20.62z M12.348,3.578
			l2.863,2.85h-2.863V3.578z"/>
		<polygon style="fill:#313132;" points="21.857,16.494 19.652,16.494 20.755,14.576 17.741,12.832 16.639,14.739 15.536,12.829 
			12.523,14.577 13.625,16.494 11.42,16.494 11.42,19.973 13.625,19.973 12.523,21.873 15.536,23.609 16.639,21.697 17.741,23.605 
			20.755,21.874 19.652,19.973 21.857,19.973 		"/>
	</g>
</g>
</svg>
