<?xml version="1.0" encoding="utf-8"?>
<!-- Generator: Adobe Illustrator 17.0.0, SVG Export Plug-In . SVG Version: 6.00 Build 0)  -->
<!DOCTYPE svg PUBLIC "-//W3C//DTD SVG 1.1//EN" "http://www.w3.org/Graphics/SVG/1.1/DTD/svg11.dtd">
<svg version="1.1" id="Слой_1" xmlns="http://www.w3.org/2000/svg" xmlns:xlink="http://www.w3.org/1999/xlink" x="0px" y="0px"
	 width="200px" height="200px" viewBox="0 0 200 200" enable-background="new 0 0 200 200" xml:space="preserve">
<path opacity="0.6" d="M195.883,149.922L125.196,20.078C119.805,11.172,110.43,5.781,100,5.781s-19.805,5.391-25.196,14.297
	L4.117,149.922c-5.39,9.259-5.507,20.274-0.234,29.532c5.273,9.257,14.765,14.766,25.429,14.766h141.375
	c10.664,0,20.157-5.508,25.429-14.766C201.391,170.196,201.273,159.18,195.883,149.922z"/>
<path opacity="0.54" d="M196.117,179.453c-5.273,9.257-14.765,14.766-25.429,14.766H100V5.781c10.43,0,19.805,5.391,25.196,14.297
	l70.688,129.843C201.273,159.18,201.391,170.196,196.117,179.453z"/>
<path fill="#4EAC50" d="M185.805,155.898L115.117,26.054c-3.163-5.39-8.905-8.554-15.117-8.554c-6.211,0-11.954,3.164-15.117,8.554
	L14.195,155.898c-3.281,5.508-3.281,12.187-0.116,17.695c3.164,5.625,8.905,8.906,15.234,8.906h141.375
	c6.329,0,12.071-3.282,15.234-8.906C189.086,168.086,189.086,161.407,185.805,155.898z"/>
<path fill="#4EAC50" d="M185.922,173.594c-3.164,5.625-8.905,8.906-15.234,8.906H100v-165c6.211,0,11.954,3.164,15.117,8.554
	l70.688,129.844C189.086,161.407,189.086,168.086,185.922,173.594z"/>
<g opacity="0.9">
	<path d="M100,170.781c-6.46,0-11.719-5.259-11.719-11.719S93.54,147.344,100,147.344c6.46,0,11.719,5.259,11.719,11.719
		S106.46,170.781,100,170.781z"/>
	<path d="M111.719,123.906c0,6.46-5.259,11.719-11.719,11.719c-6.46,0-11.719-5.259-11.719-11.719V65.312
		c0-6.46,5.259-11.719,11.719-11.719c6.46,0,11.719,5.259,11.719,11.719V123.906z"/>
</g>
<g>
	<path d="M111.719,159.063c0-6.46-5.259-11.719-11.719-11.719v23.438C106.46,170.781,111.719,165.523,111.719,159.063z"/>
	<path d="M111.719,123.906V65.312c0-6.46-5.259-11.719-11.719-11.719v82.031C106.46,135.625,111.719,130.366,111.719,123.906z"/>
</g>
</svg>
