<?xml version="1.0" encoding="utf-8"?>
<!-- Generator: Adobe Illustrator 17.0.0, SVG Export Plug-In . SVG Version: 6.00 Build 0)  -->
<!DOCTYPE svg PUBLIC "-//W3C//DTD SVG 1.1//EN" "http://www.w3.org/Graphics/SVG/1.1/DTD/svg11.dtd">
<svg version="1.1" id="Слой_1" xmlns="http://www.w3.org/2000/svg" xmlns:xlink="http://www.w3.org/1999/xlink" x="0px" y="0px"
	 width="36px" height="36px" viewBox="0 0 36 36" enable-background="new 0 0 36 36" xml:space="preserve">
<g>
	<g>
		<path fill="#BF3918" d="M21.987,5.88c-0.171-0.196-0.196-0.493-0.059-0.718c1.175-1.927,3.152-3.078,5.288-3.078h2.209
			c0.75,0,0.75-1.227,0-1.227c-2.112,0-5.943-0.472-8.445,3.629c-0.117,0.193-0.351,0.261-0.542,0.156
			c-1.535-0.838-3.282-0.87-4.876,0c-0.191,0.104-0.424,0.037-0.542-0.156c-2.382-3.904-5.852-3.629-8.445-3.629
			c-0.75,0-0.75,1.227,0,1.227h2.209c3.49,0,5.809,3.137,5.229,3.796C12.764,7.304,12.5,8.752,12.5,10.492
			c3.343-2.377,7.65-2.381,10.999,0C23.499,8.776,23.256,7.326,21.987,5.88L21.987,5.88z M21.987,5.88"/>
		<path fill="#BF3918" d="M9.969,13.074c-3.458-3.399-2.912-3.232-8.628-1.202c-1.075,0.382-0.529,2.131,0.531,1.749l3.557-1.264
			c0.58-0.205,1.22-0.057,1.67,0.385c3.786,3.72,2.27,2.103,2.024,6.07c-0.037,0.6-0.499,1.068-1.055,1.068H3.098
			c-1.127,0-1.127,1.841,0,1.841c7.83,0,5.249-0.705,6.565,4.155c0.076,0.279-0.151,0.548-0.416,0.49
			c-3.155-0.684-4.031,2.596-5.765,6.122c-0.529,1.075,0.974,1.939,1.503,0.864l2.088-4.246c0.835-1.695,3.283-0.95,4.217,0.659
			c0.713,1.227,3.013,4.564,4.731,5.312c0.677,0.294,1.412-0.243,1.412-1.031V13.232c0-1.891-1.845-3.117-3.403-2.278
			C11.486,12.329,11.156,14.24,9.969,13.074L9.969,13.074z M9.969,13.074"/>
		<path fill="#BF3918" d="M34.658,11.872c-5.449-1.935-5.027-2.335-8.628,1.202c-0.44,0.432-1.118,0.401-1.523-0.069
			c-3.567-4.133-5.94-1.796-5.94,0.227v20.814c0,1.303,1.664,1.726,3.403-0.526c1.477-1.912,2.044-2.557,2.741-3.756
			c0.95-1.636,3.402-2.31,4.216-0.658l2.088,4.246c0.527,1.071,2.037,0.221,1.504-0.864l-2.088-4.246
			c-0.718-1.459-2.269-2.185-3.677-1.876c-0.265,0.057-0.492-0.211-0.416-0.49c1.305-4.819-1.04-4.155,6.564-4.155
			c0.47,0,0.852-0.412,0.852-0.921c0-0.508-0.381-0.921-0.852-0.921h-4.983c-0.548,0-1.006-0.452-1.055-1.043
			c-0.198-2.431-0.994-3.116,0.083-4.176c3.197-3.142,2.081-2.851,7.18-1.04C35.193,14.004,35.729,12.253,34.658,11.872
			L34.658,11.872z M34.658,11.872"/>
	</g>
</g>
</svg>
