<?xml version="1.0" encoding="utf-8"?>
<!-- Generator: Adobe Illustrator 17.0.0, SVG Export Plug-In . SVG Version: 6.00 Build 0)  -->
<!DOCTYPE svg PUBLIC "-//W3C//DTD SVG 1.1//EN" "http://www.w3.org/Graphics/SVG/1.1/DTD/svg11.dtd">
<svg version="1.1" id="Слой_1" xmlns="http://www.w3.org/2000/svg" xmlns:xlink="http://www.w3.org/1999/xlink" x="0px" y="0px"
	 width="24px" height="24px" viewBox="0 0 24 24" enable-background="new 0 0 24 24" xml:space="preserve">
<g opacity="0.5">
	<g>
		<defs>
			<rect id="SVGID_1_" x="0.572" y="0.375" width="23.053" height="23.125"/>
		</defs>
		<clipPath id="SVGID_2_">
			<use xlink:href="#SVGID_1_"  overflow="visible"/>
		</clipPath>
		<path clip-path="url(#SVGID_2_)" d="M11.341,20.026L23.142,8.22c0.643-0.643,0.643-1.685,0-2.328l-4.655-4.655
			c-0.643-0.643-1.685-0.639-2.325,0L4.357,13.042L11.341,20.026z M11.341,20.026"/>
	</g>
	<path d="M1.018,19.008L5.507,23.5l3.638-3.641L4.656,15.37L1.018,19.008z M2.961,19.268l0.75-0.747l0.914,0.913l-0.751,0.751
		L2.961,19.268z M6.014,20.828l-0.747,0.747l-0.913-0.914l0.751-0.746L6.014,20.828z M6.014,20.828"/>
</g>
</svg>
