<?xml version="1.0" encoding="utf-8"?>
<!-- Generator: Adobe Illustrator 17.0.0, SVG Export Plug-In . SVG Version: 6.00 Build 0)  -->
<!DOCTYPE svg PUBLIC "-//W3C//DTD SVG 1.1//EN" "http://www.w3.org/Graphics/SVG/1.1/DTD/svg11.dtd">
<svg version="1.1" id="Слой_1" xmlns="http://www.w3.org/2000/svg" xmlns:xlink="http://www.w3.org/1999/xlink" x="0px" y="0px"
	 width="24px" height="24px" viewBox="0 0 24 24" enable-background="new 0 0 24 24" xml:space="preserve">
<g opacity="0.5">
	<path fill="#010202" d="M11.403,16.805c-0.814,0.752-1.939,0.92-2.937,0.44c-0.361-0.174-0.665-0.414-0.904-0.701l-1.359,3.006
		c-0.062,0.137,0.007,0.24,0.04,0.278c0.033,0.038,0.124,0.122,0.268,0.082l0.989-0.275c0.113-0.031,0.227-0.046,0.339-0.046
		c0.474,0,0.92,0.268,1.135,0.713l0.447,0.925c0.065,0.135,0.188,0.149,0.239,0.148c0.05-0.001,0.173-0.017,0.235-0.154l2.162-4.781
		C11.819,16.505,11.595,16.628,11.403,16.805z"/>
	<path fill="#010202" d="M13.773,16.805c0.814,0.752,1.939,0.92,2.937,0.44c0.361-0.174,0.665-0.414,0.904-0.701l1.359,3.006
		c0.062,0.137-0.007,0.24-0.04,0.278c-0.033,0.038-0.124,0.122-0.268,0.082l-0.989-0.275c-0.113-0.031-0.227-0.046-0.339-0.046
		c-0.474,0-0.92,0.268-1.135,0.713l-0.447,0.925c-0.065,0.135-0.188,0.149-0.239,0.148c-0.05-0.001-0.173-0.017-0.235-0.154
		l-2.162-4.781C13.356,16.505,13.581,16.628,13.773,16.805z"/>
	<path fill="#010202" d="M20.04,8.972c-1.129-0.773-1.479-2.307-0.797-3.493c0.41-0.713,0.196-1.417-0.14-1.839
		c-0.336-0.421-0.976-0.786-1.762-0.545c-1.308,0.401-2.726-0.282-3.228-1.555c-0.302-0.765-0.986-1.037-1.525-1.037
		s-1.223,0.273-1.525,1.037c-0.502,1.272-1.92,1.955-3.228,1.555C7.049,2.854,6.409,3.219,6.073,3.64
		c-0.336,0.422-0.549,1.126-0.14,1.839C6.615,6.665,6.265,8.2,5.136,8.972c-0.678,0.465-0.792,1.192-0.672,1.717
		c0.12,0.526,0.538,1.132,1.351,1.256c1.352,0.207,2.333,1.437,2.234,2.801c-0.06,0.82,0.438,1.362,0.924,1.596
		c0.486,0.234,1.22,0.285,1.824-0.273c0.502-0.464,1.147-0.696,1.792-0.696c0.645,0,1.289,0.232,1.791,0.696
		c0.604,0.558,1.338,0.507,1.824,0.273c0.486-0.234,0.984-0.776,0.924-1.596c-0.099-1.364,0.882-2.595,2.234-2.801
		c0.813-0.124,1.231-0.73,1.351-1.256C20.832,10.164,20.718,9.437,20.04,8.972z M12.588,14.195c-2.958,0-5.365-2.407-5.365-5.365
		s2.407-5.365,5.365-5.365s5.365,2.407,5.365,5.365C17.953,11.788,15.546,14.195,12.588,14.195z"/>
	<path fill="#010202" d="M16.952,8.83c0-2.407-1.958-4.364-4.364-4.364S8.223,6.424,8.223,8.83s1.958,4.364,4.364,4.364
		S16.952,11.237,16.952,8.83z M10.713,8.421c0.226-0.159,0.538-0.104,0.697,0.122l0.52,0.74l2.305-1.683
		c0.223-0.163,0.536-0.114,0.699,0.109c0.163,0.223,0.114,0.536-0.109,0.699l-2.716,1.984c-0.086,0.063-0.19,0.096-0.295,0.096
		c-0.027,0-0.054-0.002-0.082-0.007c-0.132-0.022-0.251-0.096-0.328-0.206l-0.813-1.157C10.433,8.892,10.487,8.58,10.713,8.421z"/>
</g>
</svg>
