<?xml version="1.0" encoding="utf-8"?>
<!-- Generator: Adobe Illustrator 17.0.0, SVG Export Plug-In . SVG Version: 6.00 Build 0)  -->
<!DOCTYPE svg PUBLIC "-//W3C//DTD SVG 1.1//EN" "http://www.w3.org/Graphics/SVG/1.1/DTD/svg11.dtd">
<svg version="1.1" id="Слой_1" xmlns="http://www.w3.org/2000/svg" xmlns:xlink="http://www.w3.org/1999/xlink" x="0px" y="0px"
	 width="24px" height="24px" viewBox="0 0 24 24" enable-background="new 0 0 24 24" xml:space="preserve">
<g opacity="0.5">
	<path fill="#010202" d="M22.312,12.079c-1.562-1.069-2.046-3.193-1.103-4.834c0.567-0.987,0.272-1.961-0.193-2.545
		c-0.465-0.583-1.35-1.088-2.438-0.755c-1.81,0.554-3.772-0.391-4.467-2.151C13.692,0.736,12.746,0.359,12,0.359
		s-1.692,0.377-2.11,1.435C9.195,3.555,7.233,4.5,5.423,3.946C4.335,3.613,3.45,4.117,2.985,4.7C2.52,5.284,2.225,6.258,2.792,7.245
		c0.943,1.641,0.459,3.764-1.103,4.834c-0.939,0.643-1.096,1.649-0.93,2.377s0.744,1.566,1.869,1.738
		c1.871,0.286,3.229,1.989,3.091,3.876c-0.083,1.135,0.606,1.885,1.278,2.209c0.672,0.324,1.688,0.395,2.524-0.378
		c0.695-0.642,1.587-0.964,2.479-0.964c0.892,0,1.784,0.321,2.479,0.964c0.836,0.772,1.852,0.702,2.524,0.378
		c0.672-0.324,1.361-1.074,1.278-2.209c-0.138-1.888,1.22-3.591,3.091-3.876c1.125-0.172,1.703-1.01,1.869-1.738
		C23.407,13.728,23.25,12.722,22.312,12.079z M12,19.306c-4.093,0-7.424-3.33-7.424-7.424S7.907,4.459,12,4.459
		s7.424,3.33,7.424,7.424C19.424,15.976,16.093,19.306,12,19.306z"/>
	<path fill="#010202" d="M18.039,11.882c0-3.33-2.709-6.039-6.039-6.039S5.96,8.552,5.96,11.882S8.67,17.922,12,17.922
		S18.039,15.212,18.039,11.882z M9.406,11.316c0.313-0.22,0.744-0.144,0.964,0.169l0.719,1.024l3.189-2.33
		c0.309-0.225,0.742-0.158,0.967,0.151c0.225,0.309,0.158,0.742-0.151,0.967l-3.759,2.745c-0.119,0.087-0.262,0.133-0.408,0.133
		c-0.038,0-0.075-0.003-0.113-0.009c-0.183-0.03-0.347-0.133-0.454-0.285L9.237,12.28C9.018,11.967,9.093,11.536,9.406,11.316z"/>
</g>
</svg>
