<?xml version="1.0" encoding="utf-8"?>
<!-- Generator: Adobe Illustrator 17.0.0, SVG Export Plug-In . SVG Version: 6.00 Build 0)  -->
<!DOCTYPE svg PUBLIC "-//W3C//DTD SVG 1.1//EN" "http://www.w3.org/Graphics/SVG/1.1/DTD/svg11.dtd">
<svg version="1.1" id="Слой_1" xmlns="http://www.w3.org/2000/svg" xmlns:xlink="http://www.w3.org/1999/xlink" x="0px" y="0px"
	 width="24px" height="24px" viewBox="0 0 24 24" enable-background="new 0 0 24 24" xml:space="preserve">
<g>
	<path fill="#7C7C7C" d="M22.951,12.699c-1.659-1.159-2.173-3.459-1.172-5.238c0.602-1.069,0.289-2.125-0.205-2.757
		c-0.494-0.632-1.434-1.179-2.589-0.818c-1.922,0.601-4.006-0.423-4.744-2.331C13.797,0.409,12.792,0,12,0s-1.797,0.409-2.241,1.555
		C9.021,3.463,6.937,4.487,5.015,3.886C3.86,3.525,2.92,4.072,2.426,4.704C1.932,5.336,1.619,6.392,2.221,7.461
		c1.002,1.778,0.487,4.079-1.172,5.238c-0.997,0.697-1.164,1.787-0.988,2.575c0.176,0.788,0.79,1.697,1.985,1.883
		c1.987,0.31,3.429,2.155,3.283,4.2c-0.088,1.23,0.644,2.043,1.357,2.393c0.714,0.351,1.793,0.428,2.68-0.409
		c0.738-0.696,1.686-1.044,2.633-1.044c0.947,0,1.895,0.348,2.633,1.044c0.888,0.837,1.967,0.76,2.681,0.409
		c0.714-0.351,1.445-1.164,1.357-2.393c-0.146-2.046,1.296-3.89,3.283-4.2c1.195-0.186,1.809-1.095,1.985-1.883
		C24.115,14.486,23.948,13.395,22.951,12.699z M12,20.53c-4.347,0-7.884-3.608-7.884-8.044S7.653,4.442,12,4.442
		s7.884,3.608,7.884,8.044C19.884,16.921,16.347,20.53,12,20.53z"/>
	<path fill="#9CC766" d="M18.414,12.486c0-3.608-2.877-6.544-6.414-6.544s-6.414,2.936-6.414,6.544S8.463,19.03,12,19.03
		S18.414,16.094,18.414,12.486z M9.245,11.872c0.332-0.238,0.791-0.156,1.024,0.183l0.764,1.109l3.387-2.524
		c0.328-0.244,0.788-0.171,1.027,0.163c0.239,0.334,0.168,0.804-0.16,1.048l-3.992,2.975c-0.127,0.094-0.279,0.144-0.433,0.144
		c-0.04,0-0.08-0.003-0.12-0.01c-0.195-0.033-0.368-0.144-0.482-0.309l-1.194-1.735C8.833,12.578,8.913,12.11,9.245,11.872z"/>
</g>
</svg>
