<?xml version="1.0" encoding="utf-8"?>
<!-- Generator: Adobe Illustrator 17.0.0, SVG Export Plug-In . SVG Version: 6.00 Build 0)  -->
<!DOCTYPE svg PUBLIC "-//W3C//DTD SVG 1.1//EN" "http://www.w3.org/Graphics/SVG/1.1/DTD/svg11.dtd">
<svg version="1.1" id="Слой_1" xmlns="http://www.w3.org/2000/svg" xmlns:xlink="http://www.w3.org/1999/xlink" x="0px" y="0px"
	 width="24px" height="24px" viewBox="0 0 24 24" enable-background="new 0 0 24 24" xml:space="preserve">
<g opacity="0.5">
	<g>
		<defs>
			<rect id="SVGID_1_" x="3.724" y="0.311" width="16.549" height="23.379"/>
		</defs>
		<clipPath id="SVGID_2_">
			<use xlink:href="#SVGID_1_"  overflow="visible"/>
		</clipPath>
		<path clip-path="url(#SVGID_2_)" d="M11.997,11.744c2.419,0,4.38-2.559,4.38-5.717c0-3.157-0.644-5.717-4.38-5.717
			c-3.736,0-4.38,2.56-4.38,5.717C7.617,9.185,9.578,11.744,11.997,11.744L11.997,11.744z M11.997,11.744"/>
		<path clip-path="url(#SVGID_2_)" d="M3.725,20.473C3.724,20.281,3.723,20.419,3.725,20.473L3.725,20.473z M3.725,20.473"/>
	</g>
	<path d="M20.26,20.243c-0.081-5.5-0.75-7.068-5.864-8.06c0,0-0.72,0.986-2.398,0.986c-1.678,0-2.399-0.986-2.399-0.986
		c-5.059,0.981-5.768,2.525-5.861,7.881c-0.008,0.437-0.011,0.46-0.012,0.409c0,0.095,0.001,0.271,0.001,0.578
		c0,0,1.218,2.638,8.272,2.638c7.054,0,8.272-2.638,8.272-2.638c0-0.197,0-0.334,0-0.427C20.268,20.655,20.265,20.594,20.26,20.243
		L20.26,20.243z M20.26,20.243"/>
</g>
</svg>
