<?xml version="1.0" encoding="utf-8"?>
<!-- Generator: Adobe Illustrator 17.0.0, SVG Export Plug-In . SVG Version: 6.00 Build 0)  -->
<!DOCTYPE svg PUBLIC "-//W3C//DTD SVG 1.1//EN" "http://www.w3.org/Graphics/SVG/1.1/DTD/svg11.dtd">
<svg version="1.1" id="Слой_1" xmlns="http://www.w3.org/2000/svg" xmlns:xlink="http://www.w3.org/1999/xlink" x="0px" y="0px"
	 width="80px" height="80px" viewBox="0 0 80 80" enable-background="new 0 0 80 80" xml:space="preserve">
<g>
	<g>
		<defs>
			<rect id="SVGID_1_" x="1" y="1" width="78" height="78"/>
		</defs>
		<clipPath id="SVGID_2_">
			<use xlink:href="#SVGID_1_"  overflow="visible"/>
		</clipPath>
		<path clip-path="url(#SVGID_2_)" fill="#BF3918" d="M53.176,11.779c1.069-2.309,2.155-4.602,3.288-7.037
			c-12.545-5.27-24.771-5.016-36.454,1.927C8.709,13.371,2.581,23.561,1,36.681c2.682,0.239,5.219,0.461,7.757,0.669
			C10.145,17.527,32.108,2.322,53.176,11.779L53.176,11.779z M53.176,11.779"/>
		<path clip-path="url(#SVGID_2_)" fill="#BF3918" d="M78.362,33.321c-2.522,0.43-5.028,0.876-7.645,1.322
			c1.356,9.076-0.527,17.259-6.081,24.423c-5.522,7.133-12.928,11.05-21.978,12.053c0.224,2.563,0.447,5.062,0.654,7.563
			C62.257,78.013,82.559,59.034,78.362,33.321L78.362,33.321z M78.362,33.321"/>
	</g>
	<path fill="#BF3918" d="M8.645,42.81c-2.41,0.208-4.916,0.43-7.422,0.637c0.59,15.842,14.444,33.674,35.336,35.362
		c0.224-2.564,0.447-5.08,0.655-7.515C20.871,68.571,11.406,59.13,8.645,42.81L8.645,42.81z M8.645,42.81"/>
	<path fill="#BF3918" d="M64.667,21.077c1.947,2.516,3.447,5.286,4.612,8.343c2.426-0.876,4.82-1.751,7.327-2.66
		c-2.889-7.674-7.598-13.788-14.285-18.58c-1.484,2.118-2.953,4.188-4.469,6.353C60.438,16.428,62.736,18.578,64.667,21.077
		L64.667,21.077z M64.667,21.077"/>
	<g>
		<g>
			<defs>
				<rect id="SVGID_3_" x="24.704" y="19.941" width="30.593" height="40.117"/>
			</defs>
			<clipPath id="SVGID_4_">
				<use xlink:href="#SVGID_3_"  overflow="visible"/>
			</clipPath>
			<path clip-path="url(#SVGID_4_)" fill="none" stroke="#BF3918" stroke-width="2" stroke-miterlimit="10" d="M39.998,40.561
				c4.471,0,8.096-4.392,8.096-9.81c0-5.418-1.191-9.81-8.096-9.81c-6.906,0-8.096,4.392-8.096,9.81
				C31.901,36.169,35.526,40.561,39.998,40.561L39.998,40.561z M39.998,40.561"/>
			<path clip-path="url(#SVGID_4_)" d="M24.705,54.54C24.704,54.21,24.702,54.447,24.705,54.54L24.705,54.54z M24.705,54.54"/>
		</g>
		<path fill="none" stroke="#BF3918" stroke-width="2" stroke-miterlimit="10" d="M55.272,56.144
			c-0.15-9.438-1.386-12.128-10.841-13.83c0,0-1.331,1.692-4.434,1.692c-3.103,0-4.434-1.692-4.434-1.692
			c-9.352,1.684-10.663,4.334-10.835,13.523c-0.014,0.75-0.021,0.79-0.023,0.702c0.001,0.163,0.001,0.466,0.001,0.992
			c0,0,2.251,4.527,15.291,4.527c13.04,0,15.291-4.527,15.291-4.527c0-0.338,0.001-0.573,0.001-0.733
			C55.287,56.852,55.282,56.747,55.272,56.144L55.272,56.144z M55.272,56.144"/>
	</g>
</g>
</svg>
