<?xml version="1.0" encoding="utf-8"?>
<!-- Generator: Adobe Illustrator 17.0.0, SVG Export Plug-In . SVG Version: 6.00 Build 0)  -->
<!DOCTYPE svg PUBLIC "-//W3C//DTD SVG 1.1//EN" "http://www.w3.org/Graphics/SVG/1.1/DTD/svg11.dtd">
<svg version="1.1" id="Слой_1" xmlns="http://www.w3.org/2000/svg" xmlns:xlink="http://www.w3.org/1999/xlink" x="0px" y="0px"
	 width="24px" height="24px" viewBox="0 0 24 24" enable-background="new 0 0 24 24" xml:space="preserve">
<g opacity="0.5">
	<g>
		<defs>
			<rect id="SVGID_1_" x="0.481" y="4.246" width="23.178" height="13.915"/>
		</defs>
		<clipPath id="SVGID_2_">
			<use xlink:href="#SVGID_1_"  overflow="visible"/>
		</clipPath>
		<path clip-path="url(#SVGID_2_)" d="M12.043,11.038h0.038c3.04-0.033,2.599-4.093,2.599-4.093
			c-0.123-2.713-2.395-2.689-2.618-2.68c-0.223-0.009-2.49-0.033-2.618,2.68C9.444,6.95,9.004,11.009,12.043,11.038L12.043,11.038z
			 M12.043,11.038"/>
	</g>
	<path d="M19.158,12.423h0.029c2.442-0.024,2.092-3.291,2.092-3.291c-0.1-2.182-1.926-2.163-2.106-2.158
		c-0.18-0.01-2.006-0.024-2.106,2.158C17.066,9.136,16.71,12.399,19.158,12.423L19.158,12.423z M19.158,12.423"/>
	<path d="M23.64,15.733c-0.019-0.702-0.157-1.19-0.873-1.641c-0.953-0.597-2.021-1.115-2.021-1.115l-0.849,2.684l-0.493-1.409
		c0.868-1.214-0.062-1.276-0.228-1.276h-0.009c-0.166,0-1.096,0.062-0.228,1.276l-0.493,1.404l-0.849-2.684
		c0,0-0.303,0.147-0.73,0.375c-0.1-0.081-0.209-0.161-0.332-0.237c-1.186-0.745-2.509-1.39-2.509-1.39l-1.053,3.334l-0.616-1.75
		c1.081-1.508-0.076-1.584-0.285-1.589h-0.01c-0.209,0-1.366,0.076-0.285,1.589l-0.616,1.75l-1.053-3.334
		c0,0-1.323,0.645-2.509,1.39c-0.128,0.081-0.237,0.161-0.337,0.242c-0.431-0.232-0.74-0.379-0.74-0.379l-0.849,2.684l-0.493-1.404
		c0.868-1.214-0.062-1.276-0.228-1.276H4.944c-0.166,0-1.096,0.062-0.228,1.276l-0.493,1.404l-0.849-2.684
		c0,0-1.067,0.517-2.021,1.115c-0.721,0.45-0.854,0.939-0.873,1.641v2.376h23.163L23.64,15.733z M23.64,15.733"/>
	<path d="M4.92,12.423h0.028C7.396,12.399,7.04,9.131,7.04,9.131C6.94,6.95,5.114,6.969,4.934,6.973
		c-0.18-0.01-2.006-0.024-2.106,2.158C2.828,9.136,2.477,12.399,4.92,12.423L4.92,12.423z M4.92,12.423"/>
</g>
</svg>
