<?xml version="1.0" encoding="utf-8"?>
<!-- Generator: Adobe Illustrator 17.0.0, SVG Export Plug-In . SVG Version: 6.00 Build 0)  -->
<!DOCTYPE svg PUBLIC "-//W3C//DTD SVG 1.1//EN" "http://www.w3.org/Graphics/SVG/1.1/DTD/svg11.dtd">
<svg version="1.1" id="Слой_1" xmlns="http://www.w3.org/2000/svg" xmlns:xlink="http://www.w3.org/1999/xlink" x="0px" y="0px"
	 width="80px" height="80px" viewBox="0 0 80 80" style="enable-background:new 0 0 80 80;" xml:space="preserve">
<g>
	<circle style="fill:none;stroke:#B7482A;stroke-width:3;stroke-miterlimit:10;" cx="40" cy="40" r="38"/>
	<g>
		<g>
			<g>
				<path style="fill:none;stroke:#B7482A;stroke-miterlimit:10;" d="M51.626,60.292c0.381,0.058,0.769-0.031,1.081-0.247
					c0.308-0.211,0.522-0.537,0.579-0.9l0.342-2.154c0.069-0.434,0.354-0.802,0.767-0.999l2.059-0.974
					c0.348-0.167,0.609-0.453,0.727-0.8c0.121-0.351,0.083-0.727-0.091-1.053l-1.061-1.943c-0.209-0.38-0.209-0.842,0-1.226
					l1.061-1.941c0.174-0.326,0.211-0.702,0.091-1.053c-0.119-0.349-0.381-0.633-0.727-0.8l-2.059-0.974
					c-0.413-0.198-0.699-0.566-0.767-0.999l-0.342-2.154c-0.057-0.363-0.271-0.687-0.579-0.898
					c-0.312-0.219-0.701-0.307-1.081-0.247l-2.278,0.361c-0.452,0.071-0.909-0.071-1.233-0.38l-1.618-1.558
					c-0.273-0.259-0.64-0.405-1.029-0.405c-0.383,0-0.757,0.148-1.029,0.405l-1.618,1.558c-0.322,0.311-0.782,0.451-1.233,0.38
					l-2.274-0.355c-0.381-0.059-0.769,0.029-1.083,0.247c-0.31,0.211-0.522,0.535-0.579,0.898l-0.34,2.154
					c-0.071,0.433-0.354,0.802-0.767,0.999l-2.061,0.974c-0.342,0.167-0.607,0.451-0.725,0.8c-0.119,0.351-0.085,0.727,0.089,1.053
					l1.061,1.941c0.211,0.382,0.211,0.844,0,1.226l-1.061,1.943c-0.174,0.326-0.209,0.702-0.089,1.053
					c0.119,0.347,0.381,0.633,0.725,0.8l2.061,0.974c0.413,0.198,0.697,0.566,0.767,0.999l0.34,2.154
					c0.057,0.361,0.269,0.687,0.579,0.9c0.312,0.217,0.701,0.305,1.083,0.247l2.274-0.355c0.452-0.075,0.911,0.069,1.233,0.378
					l1.618,1.554c0.273,0.265,0.644,0.41,1.029,0.41c0.387,0,0.757-0.146,1.029-0.41l1.618-1.554
					c0.324-0.309,0.784-0.453,1.233-0.378L51.626,60.292z M45.467,58.719c-4.839,0-8.773-3.727-8.773-8.309s3.936-8.313,8.773-8.313
					c4.839,0,8.773,3.733,8.773,8.313S50.308,58.719,45.467,58.719z"/>
				<path style="fill:none;stroke:#B7482A;stroke-miterlimit:10;" d="M45.469,43.295c-4.133,0-7.498,3.184-7.498,7.101
					s3.367,7.101,7.498,7.101c4.137,0,7.498-3.184,7.498-7.101S49.606,43.295,45.469,43.295z"/>
				<path style="fill:none;stroke:#B7482A;stroke-miterlimit:10;" d="M58.535,61.847l-4.08-3.867l-0.207,1.304
					c-0.097,0.6-0.449,1.155-0.97,1.51c-0.516,0.357-1.162,0.508-1.806,0.409l-2.28-0.353c-0.188-0.012-0.302,0.038-0.385,0.119
					l-0.389,0.37l5.329,5.047c0.207,0.196,0.504,0.265,0.78,0.186c0.275-0.082,0.478-0.299,0.535-0.57l0.48-2.449l2.594-0.46
					c0.283-0.05,0.512-0.244,0.595-0.506C58.816,62.323,58.739,62.037,58.535,61.847z"/>
				<path style="fill:none;stroke:#B7482A;stroke-miterlimit:10;" d="M41.818,60.84l-2.349,0.363
					c-0.658,0.096-1.296-0.054-1.814-0.414c-0.516-0.353-0.869-0.905-0.966-1.51l-0.207-1.299l-4.078,3.867
					c-0.202,0.192-0.277,0.476-0.194,0.737c0.087,0.263,0.318,0.453,0.597,0.506l2.592,0.458l0.486,2.453
					c0.053,0.27,0.257,0.487,0.533,0.57c0.273,0.079,0.573,0.01,0.775-0.184l5.327-5.049l-0.389-0.372
					C42.047,60.884,41.934,60.84,41.818,60.84z"/>
				<path style="fill:none;stroke:#B7482A;stroke-miterlimit:10;" d="M47.793,26.465H28.69c-0.688,0-1.245,0.527-1.245,1.18
					c-0.002,0.656,0.555,1.182,1.245,1.182h19.104c0.686,0,1.245-0.526,1.245-1.178C49.039,26.996,48.478,26.465,47.793,26.465z"/>
				<path style="fill:none;stroke:#B7482A;stroke-miterlimit:10;" d="M47.793,32.515H28.69c-0.688,0-1.245,0.527-1.245,1.176
					c-0.002,0.652,0.555,1.182,1.245,1.182h19.104c0.686,0,1.245-0.526,1.245-1.18C49.039,33.042,48.478,32.515,47.793,32.515z"/>
				<path style="fill:none;stroke:#B7482A;stroke-miterlimit:10;" d="M34.535,57.154l-0.942-0.445
					c-0.241-0.115-0.46-0.263-0.662-0.428h-8.042c-0.551,0-0.998-0.426-0.998-0.944v-33.5c0-0.524,0.447-0.948,0.998-0.948h26.763
					c0.549,0,0.998,0.424,0.998,0.948v17.277c0.445,0.1,0.871,0.284,1.243,0.547c0.729,0.493,1.233,1.281,1.369,2.141l0.04-19.962
					c0.004-1.909-1.636-3.462-3.651-3.462H24.889c-2.015,0-3.655,1.556-3.655,3.462v33.502c0,1.91,1.642,3.464,3.655,3.464h7.907
					L34.535,57.154z"/>
			</g>
		</g>
	</g>
</g>
</svg>
