<?xml version="1.0" encoding="utf-8"?>
<!-- Generator: Adobe Illustrator 17.0.0, SVG Export Plug-In . SVG Version: 6.00 Build 0)  -->
<!DOCTYPE svg PUBLIC "-//W3C//DTD SVG 1.1//EN" "http://www.w3.org/Graphics/SVG/1.1/DTD/svg11.dtd">
<svg version="1.1" id="Слой_1" xmlns="http://www.w3.org/2000/svg" xmlns:xlink="http://www.w3.org/1999/xlink" x="0px" y="0px"
	 width="24px" height="24px" viewBox="0 0 24 24" style="enable-background:new 0 0 24 24;" xml:space="preserve">
<g style="opacity:1;">
	<g>
		<path style="fill:#ffffff;" d="M17.48,20.466c0.179,0.027,0.363-0.015,0.51-0.118c0.145-0.1,0.246-0.255,0.273-0.428l0.161-1.024
			c0.032-0.206,0.167-0.381,0.362-0.475l0.971-0.463c0.164-0.079,0.287-0.215,0.343-0.38c0.057-0.167,0.039-0.346-0.043-0.501
			l-0.5-0.924c-0.098-0.181-0.098-0.4,0-0.583l0.5-0.923c0.082-0.155,0.099-0.334,0.043-0.501c-0.056-0.166-0.179-0.301-0.343-0.38
			l-0.971-0.463c-0.195-0.094-0.329-0.269-0.362-0.475l-0.161-1.024c-0.027-0.172-0.128-0.327-0.273-0.427
			c-0.147-0.104-0.33-0.146-0.51-0.118l-1.074,0.171c-0.213,0.034-0.429-0.034-0.581-0.181l-0.763-0.741
			c-0.129-0.123-0.302-0.192-0.485-0.192c-0.18,0-0.357,0.07-0.485,0.192l-0.763,0.741c-0.152,0.148-0.368,0.214-0.581,0.181
			l-1.072-0.169c-0.179-0.028-0.363,0.014-0.511,0.118c-0.146,0.1-0.246,0.254-0.273,0.427l-0.16,1.024
			c-0.033,0.206-0.167,0.381-0.362,0.475L9.4,13.768c-0.161,0.079-0.286,0.214-0.342,0.38c-0.056,0.167-0.04,0.346,0.042,0.501
			l0.5,0.923c0.099,0.182,0.099,0.401,0,0.583l-0.5,0.924c-0.082,0.155-0.098,0.334-0.042,0.501c0.056,0.165,0.179,0.301,0.342,0.38
			l0.972,0.463c0.195,0.094,0.328,0.269,0.362,0.475l0.16,1.024c0.027,0.171,0.127,0.327,0.273,0.428
			c0.147,0.103,0.33,0.145,0.511,0.118l1.072-0.169c0.213-0.036,0.429,0.033,0.581,0.18l0.763,0.739
			c0.129,0.126,0.303,0.195,0.485,0.195c0.182,0,0.357-0.069,0.485-0.195l0.763-0.739c0.153-0.147,0.369-0.215,0.581-0.18
			L17.48,20.466z M14.577,19.718c-2.281,0-4.135-1.772-4.135-3.952s1.855-3.953,4.135-3.953c2.281,0,4.135,1.775,4.135,3.953
			S16.859,19.718,14.577,19.718z"/>
		<path style="fill:#ffffff;" d="M14.578,12.383c-1.948,0-3.534,1.514-3.534,3.377c0,1.863,1.587,3.377,3.534,3.377
			c1.95,0,3.534-1.514,3.534-3.377S16.528,12.383,14.578,12.383z"/>
		<path style="fill:#ffffff;" d="M20.737,21.205l-1.923-1.839l-0.097,0.62c-0.046,0.286-0.212,0.549-0.457,0.718
			c-0.243,0.17-0.548,0.242-0.851,0.194l-1.075-0.168c-0.089-0.005-0.142,0.018-0.181,0.057l-0.183,0.176l2.512,2.4
			c0.097,0.093,0.238,0.126,0.367,0.088c0.13-0.039,0.225-0.142,0.252-0.271l0.226-1.165l1.223-0.219
			c0.134-0.024,0.241-0.116,0.281-0.241C20.869,21.432,20.833,21.296,20.737,21.205z"/>
		<path style="fill:#ffffff;" d="M12.857,20.727l-1.107,0.172c-0.31,0.046-0.611-0.026-0.855-0.197
			c-0.243-0.168-0.409-0.431-0.455-0.718l-0.097-0.618L8.42,21.205c-0.095,0.091-0.131,0.226-0.092,0.35
			c0.041,0.125,0.15,0.215,0.282,0.241l1.222,0.218l0.229,1.167c0.025,0.129,0.121,0.232,0.251,0.271
			c0.129,0.037,0.27,0.005,0.366-0.088l2.511-2.401l-0.183-0.177C12.965,20.748,12.912,20.727,12.857,20.727z"/>
		<path style="fill:#ffffff;" d="M15.674,4.379H6.669c-0.324,0-0.587,0.251-0.587,0.561C6.081,5.252,6.343,5.502,6.669,5.502h9.005
			c0.324,0,0.587-0.25,0.587-0.56C16.26,4.632,15.996,4.379,15.674,4.379z"/>
		<path style="fill:#ffffff;" d="M15.674,7.256H6.669c-0.324,0-0.587,0.251-0.587,0.559c-0.001,0.31,0.262,0.562,0.587,0.562h9.005
			c0.324,0,0.587-0.25,0.587-0.561C16.26,7.507,15.996,7.256,15.674,7.256z"/>
		<path style="fill:#ffffff;" d="M9.424,18.973L8.98,18.762c-0.114-0.055-0.217-0.125-0.312-0.203H4.877
			c-0.26,0-0.471-0.203-0.471-0.449V2.178c0-0.249,0.211-0.451,0.471-0.451h12.615c0.259,0,0.471,0.202,0.471,0.451v8.216
			c0.21,0.047,0.41,0.135,0.586,0.26c0.344,0.234,0.581,0.609,0.645,1.018l0.019-9.493c0.002-0.908-0.771-1.646-1.721-1.646H4.877
			c-0.95,0-1.723,0.74-1.723,1.646v15.932c0,0.909,0.774,1.647,1.723,1.647h3.727L9.424,18.973z"/>
	</g>
</g>
</svg>
