<?xml version="1.0" encoding="utf-8"?>
<!-- Generator: Adobe Illustrator 17.0.0, SVG Export Plug-In . SVG Version: 6.00 Build 0)  -->
<!DOCTYPE svg PUBLIC "-//W3C//DTD SVG 1.1//EN" "http://www.w3.org/Graphics/SVG/1.1/DTD/svg11.dtd">
<svg version="1.1" id="Слой_1" xmlns="http://www.w3.org/2000/svg" xmlns:xlink="http://www.w3.org/1999/xlink" x="0px" y="0px"
	 width="24px" height="24px" viewBox="0 0 24 24" enable-background="new 0 0 24 24" xml:space="preserve">
<g>
	<path fill="#7C7C7C" d="M22.951,12.699c-1.659-1.159-2.173-3.459-1.172-5.238c0.602-1.069,0.289-2.125-0.205-2.757
		c-0.494-0.632-1.434-1.179-2.589-0.818c-1.922,0.601-4.006-0.423-4.744-2.331C13.797,0.409,12.792,0,12,0s-1.797,0.409-2.241,1.555
		C9.021,3.463,6.937,4.487,5.015,3.886C3.86,3.525,2.92,4.072,2.426,4.704C1.932,5.336,1.619,6.392,2.221,7.461
		c1.002,1.778,0.487,4.079-1.172,5.238c-0.997,0.697-1.164,1.787-0.988,2.575c0.176,0.788,0.79,1.697,1.985,1.883
		c1.987,0.31,3.429,2.155,3.283,4.2c-0.088,1.23,0.644,2.043,1.357,2.393c0.714,0.351,1.793,0.428,2.68-0.409
		c0.738-0.696,1.686-1.044,2.633-1.044c0.947,0,1.895,0.348,2.633,1.044c0.888,0.837,1.967,0.76,2.681,0.409
		c0.714-0.351,1.445-1.164,1.357-2.393c-0.146-2.046,1.296-3.89,3.283-4.2c1.195-0.186,1.809-1.095,1.985-1.883
		C24.115,14.486,23.948,13.395,22.951,12.699z M12,20.53c-4.347,0-7.884-3.608-7.884-8.044S7.653,4.442,12,4.442
		s7.884,3.608,7.884,8.044C19.884,16.921,16.347,20.53,12,20.53z"/>
	<path fill="#EE6F49" d="M12,5.942c-3.537,0-6.414,2.936-6.414,6.544c0,3.608,2.877,6.544,6.414,6.544s6.414-2.936,6.414-6.544
		C18.414,8.877,15.537,5.942,12,5.942z M15.028,14.331c0.381,0.389,0.381,1.02,0,1.409c-0.381,0.389-1,0.389-1.381,0L12,14.06
		l-1.647,1.68c-0.381,0.389-1,0.389-1.381,0c-0.381-0.389-0.381-1.02,0-1.409l1.647-1.68l-1.647-1.68
		c-0.381-0.389-0.381-1.02,0-1.409c0.381-0.389,1-0.389,1.381,0L12,11.241l1.647-1.68c0.382-0.389,1-0.389,1.381,0
		c0.381,0.389,0.381,1.02,0,1.409l-1.647,1.68L15.028,14.331z"/>
</g>
</svg>
