<?xml version="1.0" encoding="utf-8"?>
<!-- Generator: Adobe Illustrator 17.0.0, SVG Export Plug-In . SVG Version: 6.00 Build 0)  -->
<!DOCTYPE svg PUBLIC "-//W3C//DTD SVG 1.1//EN" "http://www.w3.org/Graphics/SVG/1.1/DTD/svg11.dtd">
<svg version="1.1" id="Слой_1" xmlns="http://www.w3.org/2000/svg" xmlns:xlink="http://www.w3.org/1999/xlink" x="0px" y="0px"
	 width="24px" height="24px" viewBox="0 0 24 24" enable-background="new 0 0 24 24" xml:space="preserve">
<g opacity="0.54">
	<g>
		<defs>
			<rect id="SVGID_1_" x="0" width="23.941" height="24"/>
		</defs>
		<clipPath id="SVGID_2_">
			<use xlink:href="#SVGID_1_"  overflow="visible"/>
		</clipPath>
		<path clip-path="url(#SVGID_2_)" d="M16.015,3.317c0.328-0.71,0.661-1.416,1.009-2.165C13.173-0.47,9.421-0.392,5.835,1.744
			C2.366,3.807,0.485,6.942,0,10.979c0.823,0.073,1.602,0.142,2.381,0.206C2.807,5.085,9.548,0.407,16.015,3.317L16.015,3.317z
			 M16.015,3.317"/>
		<path clip-path="url(#SVGID_2_)" d="M23.745,9.945c-0.774,0.132-1.543,0.27-2.347,0.407c0.416,2.792-0.162,5.31-1.867,7.515
			c-1.695,2.195-3.968,3.4-6.746,3.709c0.069,0.789,0.137,1.558,0.201,2.327C18.802,23.696,25.034,17.857,23.745,9.945L23.745,9.945
			z M23.745,9.945"/>
	</g>
	<path d="M2.347,12.865c-0.74,0.064-1.509,0.132-2.278,0.196c0.181,4.874,4.433,10.361,10.846,10.881
		c0.069-0.789,0.137-1.563,0.201-2.312C6.099,20.791,3.194,17.886,2.347,12.865L2.347,12.865z M2.347,12.865"/>
	<path d="M19.542,6.178c0.598,0.774,1.058,1.626,1.416,2.567c0.745-0.27,1.479-0.539,2.249-0.818
		c-0.887-2.361-2.332-4.242-4.385-5.717c-0.455,0.652-0.906,1.289-1.372,1.955C18.244,4.747,18.949,5.409,19.542,6.178L19.542,6.178
		z M19.542,6.178"/>
	<g>
		<g>
			<defs>
				<rect id="SVGID_3_" x="7.276" y="5.828" width="9.39" height="12.344"/>
			</defs>
			<clipPath id="SVGID_4_">
				<use xlink:href="#SVGID_3_"  overflow="visible"/>
			</clipPath>
			<path clip-path="url(#SVGID_4_)" d="M11.97,11.865c1.372,0,2.485-1.351,2.485-3.018c0-1.667-0.365-3.018-2.485-3.018
				c-2.12,0-2.485,1.351-2.485,3.018C9.485,10.514,10.597,11.865,11.97,11.865L11.97,11.865z M11.97,11.865"/>
			<path clip-path="url(#SVGID_4_)" d="M7.276,16.474C7.276,16.372,7.275,16.445,7.276,16.474L7.276,16.474z M7.276,16.474"/>
		</g>
		<path d="M16.658,16.352c-0.046-2.904-0.425-3.732-3.328-4.255c0,0-0.409,0.521-1.361,0.521c-0.952,0-1.361-0.521-1.361-0.521
			c-2.871,0.518-3.273,1.333-3.326,4.161c-0.004,0.231-0.006,0.243-0.007,0.216c0,0.05,0,0.143,0,0.305c0,0,0.691,1.393,4.693,1.393
			c4.002,0,4.693-1.393,4.693-1.393c0-0.104,0-0.176,0-0.226C16.663,16.57,16.661,16.538,16.658,16.352L16.658,16.352z
			 M16.658,16.352"/>
	</g>
</g>
</svg>
