<?xml version="1.0" encoding="utf-8"?>
<!-- Generator: Adobe Illustrator 17.0.0, SVG Export Plug-In . SVG Version: 6.00 Build 0)  -->
<!DOCTYPE svg PUBLIC "-//W3C//DTD SVG 1.1//EN" "http://www.w3.org/Graphics/SVG/1.1/DTD/svg11.dtd">
<svg version="1.1" id="Слой_1" xmlns="http://www.w3.org/2000/svg" xmlns:xlink="http://www.w3.org/1999/xlink" x="0px" y="0px"
	 width="100px" height="100px" viewBox="0 0 100 100" enable-background="new 0 0 100 100" xml:space="preserve">
<circle fill="#FFFFFF" cx="50.161" cy="50.159" r="48.291"/>
<circle fill="none" stroke="#BF3918" stroke-width="4" stroke-miterlimit="10" cx="50.161" cy="50.159" r="43.09"/>
<g>
	<path fill="#BF3918" d="M42.753,27.74l9.298-9.294c1.642-2.188,4.916-2.188,6.56,0l9.295,9.294c2.193,1.64,2.193,4.375,0,6.561
		l-9.295,9.297c-1.644,1.64-4.918,1.64-6.56,0l-2.19-2.188l2.044-2.107l2.329,2.107c0.548,0.547,1.639,0.547,2.19,0l9.292-9.295
		c0.548-0.545,0.548-1.64,0-2.187l-9.292-9.296c-0.551-0.547-1.641-0.547-2.19,0l-9.292,9.296c-0.548,0.547-0.548,1.642,0,2.187
		l1.924,1.903l-2.193,2.223l-1.921-1.939C41.111,32.115,41.111,29.38,42.753,27.74z"/>
	<path fill="#BF3918" d="M46.775,42.826l-3.894-3.647l6.98-7.064c3.28-3.279,8.202-3.279,11.482,0l1.195,1.191l-4.164,4.04
		l-1.407-1.403c-0.542-0.547-2.184-0.547-3.274,0L46.775,42.826z"/>
	<path fill="#BF3918" d="M41.111,72.578c-2.732,2.735-6.56,2.735-9.292,0l-12.03-12.03c-2.738-2.733-2.738-6.56,0-9.295l12.03-12.03
		c2.732-2.733,6.56-2.733,9.292,0l12.03,12.03c2.732,2.735,2.732,6.562,0,9.295l-4.023,4.028l-3.084-3.023l4.379-4.284
		c0.542-0.548,0.542-2.189,0-2.734L37.834,41.956c-0.551-0.547-2.19-0.547-2.734,0L22.521,54.535c-0.542,0.545-0.542,2.186,0,2.734
		L35.1,69.843c0.545,0.547,2.183,0.547,2.734,0l2.466-2.466l2.975,3.037L41.111,72.578z"/>
	<path fill="#BF3918" d="M77.201,59.454L61.343,75.313c-3.28,2.733-8.201,2.733-11.482,0L34.003,59.454
		c-3.277-3.28-3.277-8.202,0-11.483l4.078-4.075l3.737,3.922L37.834,51.8c-1.093,1.095-1.093,2.735,0,3.28l15.858,15.858
		c1.09,1.094,2.732,1.094,3.274,0L72.828,55.08c1.09-0.545,1.09-2.185,0-3.28L62.537,41.528l4.139-4.079l10.524,10.523
		C79.93,51.253,79.93,56.174,77.201,59.454z"/>
</g>
</svg>
