<?xml version="1.0" encoding="utf-8"?>
<!-- Generator: Adobe Illustrator 17.0.0, SVG Export Plug-In . SVG Version: 6.00 Build 0)  -->
<!DOCTYPE svg PUBLIC "-//W3C//DTD SVG 1.1//EN" "http://www.w3.org/Graphics/SVG/1.1/DTD/svg11.dtd">
<svg version="1.1" id="Слой_1" xmlns="http://www.w3.org/2000/svg" xmlns:xlink="http://www.w3.org/1999/xlink" x="0px" y="0px"
	 width="32px" height="32px" viewBox="0 0 32 32" enable-background="new 0 0 32 32" xml:space="preserve">
<g opacity="0.8">
	<g>
		<path fill="#201E20" d="M23.752,16.875c0.039-0.654,0.072-1.198,0.094-1.571c0.006-0.095-0.059-0.179-0.156-0.202
			c-0.387-0.094-0.783-0.22-1.183-0.378c-0.397-0.157-0.768-0.336-1.109-0.53c-0.086-0.049-0.194-0.034-0.262,0.036l-1.124,1.165
			c-0.084,0.086-0.076,0.223,0.022,0.294c0.445,0.326,0.996,0.636,1.646,0.894c0.652,0.259,1.275,0.414,1.835,0.485
			C23.636,17.084,23.745,16.992,23.752,16.875z"/>
		<path fill="#201E20" d="M23.66,18.407l0.019-0.324c0.006-0.108-0.074-0.196-0.186-0.208c-0.675-0.075-1.405-0.254-2.145-0.547
			c-0.738-0.293-1.383-0.658-1.911-1.059c-0.088-0.066-0.211-0.058-0.288,0.021l-0.233,0.241c-0.077,0.08-0.078,0.204,0.004,0.279
			c0.496,0.456,1.205,0.908,2.097,1.262c0.894,0.355,1.735,0.516,2.429,0.53C23.561,18.603,23.654,18.515,23.66,18.407z"/>
		<path fill="#201E20" d="M23.729,14.048l4.012-9.016c0.192-0.432-0.013-0.948-0.476-1.109c-0.441-0.153-0.887,0.03-1.073,0.449
			l-4.029,9.057c-0.039,0.088-0.011,0.192,0.073,0.245c0.18,0.114,0.381,0.218,0.601,0.306c0.222,0.088,0.442,0.15,0.657,0.192
			C23.592,14.19,23.69,14.136,23.729,14.048z"/>
		<path fill="#201E20" d="M23.165,26.659c0-0.001,0.225-3.756,0.423-7.048c0.007-0.114-0.086-0.206-0.206-0.209
			c-0.818-0.021-1.749-0.212-2.694-0.587c-0.943-0.374-1.738-0.867-2.326-1.402c-0.087-0.079-0.222-0.076-0.303,0.008l-5.028,5.212
			c-0.033,0.034-0.059,0.073-0.078,0.116c-0.341,0.767,0.722,1.599,1.853,2.048c0.148,0.059,0.319,0.033,0.442-0.067l0.076-0.062
			l0.002,0.026c-0.106,0.508,0.575,0.976,1.283,1.255c0.127,0.05,0.274,0.032,0.389-0.04l0.748-0.47l0.168,0.833
			c0.026,0.128,0.115,0.24,0.242,0.291c0.707,0.282,1.538,0.413,1.847-0.013l0.021-0.017l0.006,0.095
			c0.01,0.152,0.111,0.286,0.259,0.345c1.115,0.442,2.464,0.577,2.829-0.154C23.119,26.811,23.161,26.702,23.165,26.659z"/>
	</g>
	<g>
		<g>
			<defs>
				<rect id="SVGID_1_" x="2.65" y="1.334" width="31.554" height="28.534"/>
			</defs>
			<clipPath id="SVGID_2_">
				<use xlink:href="#SVGID_1_"  overflow="visible"/>
			</clipPath>
			<path clip-path="url(#SVGID_2_)" fill="#201E20" d="M12.921,21.375c-0.106-0.508-0.561-0.88-1.111-0.92
				c-1.404-0.073-2.555,0.641-3.571,1.288c-1.062,0.679-1.747,1.086-2.425,0.857c-0.833-0.278-0.916-2.401-0.514-4.286
				c0.354-1.705,1.022-4.871,2.722-6.309c0.573-0.484,1.398-1.009,2.084-0.752c0.802,0.295,1.463,1.544,1.611,3.026
				c0.059,0.631,0.638,1.087,1.316,1.031c0.662-0.056,1.152-0.613,1.093-1.243c-0.242-2.42-1.446-4.314-3.134-4.938
				c-1.016-0.374-2.634-0.474-4.588,1.176c-2.125,1.8-2.909,4.848-3.482,7.563C2.638,19.223,1.941,23.726,5,24.752
				c1.865,0.623,3.376-0.34,4.593-1.114c0.218-0.146,0.437-0.284,0.648-0.407C10.041,24.061,13.051,22.015,12.921,21.375z
				 M18.83,25.76"/>
		</g>
	</g>
</g>
</svg>
