<?xml version="1.0" encoding="utf-8"?>
<!-- Generator: Adobe Illustrator 17.0.0, SVG Export Plug-In . SVG Version: 6.00 Build 0)  -->
<!DOCTYPE svg PUBLIC "-//W3C//DTD SVG 1.1//EN" "http://www.w3.org/Graphics/SVG/1.1/DTD/svg11.dtd">
<svg version="1.1" id="Слой_1" xmlns="http://www.w3.org/2000/svg" xmlns:xlink="http://www.w3.org/1999/xlink" x="0px" y="0px"
	 width="32px" height="32px" viewBox="0 0 32 32" enable-background="new 0 0 32 32" xml:space="preserve">
<g opacity="0.8">
	<g>
		<path fill="#201E20" d="M28.752,9.339h-0.234c-1.025,0-1.857-0.831-1.857-1.858V7.248c0-0.923-0.749-1.672-1.671-1.672h-7.945
			c-0.924,0-1.673,0.748-1.673,1.672v0.233c0,1.026-0.831,1.858-1.857,1.858h-2.827v1.532c0,0.267-0.216,0.483-0.483,0.483H8.381
			v2.024h1.824c0.267,0,0.483,0.216,0.483,0.483v1.058c0,0.267-0.216,0.483-0.483,0.483H7.538c-0.266,0-0.483-0.216-0.483-0.483
			v-1.541H5.231c-0.267,0-0.483-0.216-0.483-0.483v-1.058c0-0.267,0.216-0.483,0.483-0.483h1.824V9.339H3.248
			c-0.924,0-1.672,0.75-1.672,1.672l0.001,13.402c0,1.11,0.9,2.01,2.008,2.01h24.832c1.108,0,2.008-0.899,2.008-2.01V11.012
			C30.425,10.089,29.676,9.339,28.752,9.339L28.752,9.339z M9.351,23.713c-0.376,0.525-0.986,0.839-1.632,0.839
			c-0.646,0-1.256-0.314-1.632-0.839c-0.376-0.526-0.476-1.205-0.267-1.816l0.746-2.192v-2.472c0-0.267,0.216-0.484,0.483-0.484
			h1.341c0.267,0,0.483,0.216,0.483,0.484v2.472l0.746,2.192C9.827,22.508,9.726,23.187,9.351,23.713L9.351,23.713z M9.351,23.713"
			/>
		<path fill="#201E20" d="M8.359,21.211H7.078l-0.34,0.999c-0.108,0.315-0.056,0.665,0.139,0.937c0.387,0.542,1.297,0.542,1.684,0
			c0.195-0.271,0.246-0.621,0.138-0.936L8.359,21.211z M8.359,21.211"/>
	</g>
</g>
</svg>
