<?xml version="1.0" encoding="utf-8"?>
<!-- Generator: Adobe Illustrator 17.0.0, SVG Export Plug-In . SVG Version: 6.00 Build 0)  -->
<!DOCTYPE svg PUBLIC "-//W3C//DTD SVG 1.1//EN" "http://www.w3.org/Graphics/SVG/1.1/DTD/svg11.dtd">
<svg version="1.1" id="Слой_1" xmlns="http://www.w3.org/2000/svg" xmlns:xlink="http://www.w3.org/1999/xlink" x="0px" y="0px"
	 width="32px" height="32px" viewBox="0 0 32 32" enable-background="new 0 0 32 32" xml:space="preserve">
<g opacity="0.8">
	<g>
		<path fill="#201E20" d="M24.308,13.578h-0.491V11.28c0-4.249-3.372-7.799-7.587-7.874c-0.115-0.002-0.345-0.002-0.46,0
			c-4.215,0.076-7.587,3.625-7.587,7.874v2.297H7.692c-0.756,0-1.373,0.781-1.373,1.745v11.523c0,0.963,0.617,1.751,1.373,1.751
			h16.615c0.756,0,1.373-0.788,1.373-1.751V15.322C25.681,14.358,25.064,13.578,24.308,13.578L24.308,13.578z M17.557,21.072v3.482
			c0,0.399-0.334,0.736-0.733,0.736h-1.647c-0.399,0-0.733-0.337-0.733-0.736v-3.482c-0.387-0.381-0.612-0.908-0.612-1.49
			c0-1.104,0.853-2.053,1.939-2.097c0.115-0.005,0.345-0.005,0.46,0c1.085,0.044,1.939,0.993,1.939,2.097
			C18.169,20.164,17.944,20.691,17.557,21.072L17.557,21.072z M20.581,13.578h-9.163V11.28c0-2.531,2.057-4.624,4.581-4.624
			c2.524,0,4.581,2.093,4.581,4.624V13.578z M20.581,13.578"/>
	</g>
</g>
</svg>
