<?xml version="1.0" encoding="utf-8"?>
<!-- Generator: Adobe Illustrator 17.0.0, SVG Export Plug-In . SVG Version: 6.00 Build 0)  -->
<!DOCTYPE svg PUBLIC "-//W3C//DTD SVG 1.1//EN" "http://www.w3.org/Graphics/SVG/1.1/DTD/svg11.dtd">
<svg version="1.1" id="Слой_1" xmlns="http://www.w3.org/2000/svg" xmlns:xlink="http://www.w3.org/1999/xlink" x="0px" y="0px"
	 width="32px" height="32px" viewBox="0 0 32 32" enable-background="new 0 0 32 32" xml:space="preserve">
<g opacity="0.8">
	<g>
		<defs>
			<rect id="SVGID_1_" x="0.184" y="1.81" width="29.628" height="28.379"/>
		</defs>
		<clipPath id="SVGID_2_">
			<use xlink:href="#SVGID_1_"  overflow="visible"/>
		</clipPath>
		<path clip-path="url(#SVGID_2_)" fill="#201E20" d="M15.377,26.104c-0.288-0.271-0.643-0.61-1.225-0.87
			c-0.477-0.211-0.942-0.223-1.281-0.227c-0.033,0-0.071-0.006-0.116-0.006c-0.21-0.582-0.643-0.948-1.286-1.087
			c-0.853-0.183-1.541,0.221-2.012,0.532c0.044-0.238,0.111-0.521,0.16-0.727c0.167-0.66,0.333-1.341,0.211-1.978
			c-0.099-0.505-0.526-0.876-1.043-0.915c-1.318-0.072-2.399,0.637-3.353,1.281c-0.998,0.675-1.64,1.08-2.277,0.853
			c-0.782-0.277-0.86-2.388-0.482-4.263c0.332-1.696,0.959-4.844,2.556-6.275c0.538-0.481,1.313-1.003,1.957-0.748
			c0.753,0.294,1.374,1.535,1.513,3.01c0.055,0.627,0.599,1.081,1.236,1.026c0.622-0.055,1.081-0.61,1.026-1.236
			c-0.227-2.407-1.358-4.291-2.943-4.911c-0.954-0.372-2.473-0.471-4.308,1.169c-1.995,1.791-2.731,4.822-3.269,7.522
			c-0.267,1.347-0.921,5.825,1.951,6.845c1.751,0.62,3.17-0.338,4.312-1.108c0.204-0.145,0.41-0.282,0.609-0.404
			c-0.187,0.826-0.304,1.701,0.194,2.443c0.738,1.12,1.785,1.236,3.11,0.366c0.05-0.033,0.111-0.072,0.166-0.111
			c0.122,0.261,0.338,0.543,0.731,0.732c0.477,0.238,0.953,0.248,1.303,0.254c0.15,0.006,0.355,0.011,0.416,0.04
			c0.211,0.094,0.339,0.204,0.582,0.437c0.183,0.177,0.377,0.355,0.627,0.543c0.204,0.149,0.443,0.227,0.675,0.227
			c0.345,0,0.688-0.16,0.91-0.454c0.377-0.505,0.277-1.215-0.227-1.591C15.632,26.349,15.505,26.221,15.377,26.104L15.377,26.104z
			 M15.377,26.104"/>
	</g>
	<g>
		<path fill="#201E20" d="M28.765,11.783c-0.045-0.022-0.089-0.033-0.134-0.033c-0.096,0-0.181,0.037-0.255,0.111l-0.71,0.709
			c-0.067,0.067-0.1,0.148-0.1,0.244v2.817c0,0.489-0.174,0.906-0.521,1.254c-0.348,0.348-0.766,0.521-1.254,0.521h-9.23
			c-0.488,0-0.906-0.174-1.253-0.521c-0.348-0.348-0.521-0.765-0.521-1.254V6.402c0-0.488,0.173-0.906,0.521-1.253
			c0.348-0.348,0.765-0.522,1.253-0.522h9.23c0.163,0,0.329,0.023,0.499,0.067c0.044,0.015,0.078,0.022,0.1,0.022
			c0.096,0,0.181-0.037,0.255-0.111l0.543-0.543c0.089-0.089,0.122-0.196,0.1-0.322c-0.022-0.118-0.088-0.203-0.199-0.255
			c-0.4-0.185-0.832-0.277-1.298-0.277h-9.23c-0.88,0-1.632,0.312-2.257,0.937c-0.625,0.625-0.937,1.378-0.937,2.258v9.229
			c0,0.88,0.312,1.633,0.937,2.258c0.625,0.625,1.378,0.937,2.257,0.937h9.23c0.88,0,1.633-0.312,2.258-0.937
			c0.625-0.625,0.937-1.378,0.937-2.258v-3.527C28.987,11.949,28.913,11.842,28.765,11.783L28.765,11.783z M28.765,11.783"/>
		<path fill="#201E20" d="M31.549,5.415l-1.22-1.22c-0.178-0.178-0.389-0.267-0.633-0.267c-0.244,0-0.455,0.089-0.632,0.267
			l-7.177,7.177L18.97,8.455c-0.178-0.178-0.388-0.266-0.632-0.266c-0.244,0-0.455,0.088-0.632,0.266l-1.22,1.221
			c-0.178,0.178-0.267,0.388-0.267,0.632c0,0.244,0.089,0.455,0.267,0.632l4.769,4.77c0.178,0.178,0.389,0.266,0.633,0.266
			c0.244,0,0.455-0.088,0.632-0.266l9.03-9.029c0.178-0.178,0.267-0.388,0.267-0.632C31.816,5.804,31.727,5.593,31.549,5.415
			L31.549,5.415z M31.549,5.415"/>
	</g>
</g>
</svg>
