<?xml version="1.0" encoding="utf-8"?>
<!-- Generator: Adobe Illustrator 17.0.0, SVG Export Plug-In . SVG Version: 6.00 Build 0)  -->
<!DOCTYPE svg PUBLIC "-//W3C//DTD SVG 1.1//EN" "http://www.w3.org/Graphics/SVG/1.1/DTD/svg11.dtd">
<svg version="1.1" id="Слой_1" xmlns="http://www.w3.org/2000/svg" xmlns:xlink="http://www.w3.org/1999/xlink" x="0px" y="0px"
	 width="32px" height="32px" viewBox="0 0 32 32" enable-background="new 0 0 32 32" xml:space="preserve">
<g opacity="0.8">
	<g>
		<g>
			<path fill="#201E20" d="M29.591,13.564h-0.494H13.375h-0.494c-0.761,0-1.381,0.785-1.381,1.755v11.588
				c0,0.968,0.621,1.761,1.381,1.761h16.709c0.761,0,1.381-0.792,1.381-1.761V15.319C30.972,14.349,30.352,13.564,29.591,13.564
				L29.591,13.564z M22.802,21.101v3.501c0,0.401-0.336,0.74-0.737,0.74h-1.657c-0.401,0-0.737-0.339-0.737-0.74v-3.501
				c-0.389-0.383-0.616-0.913-0.616-1.499c0-1.11,0.858-2.065,1.95-2.109c0.116-0.005,0.347-0.005,0.463,0
				c1.092,0.044,1.95,0.998,1.95,2.109C23.417,20.188,23.191,20.717,22.802,21.101L22.802,21.101z M25.844,13.564"/>
		</g>
	</g>
	<path fill="#201E20" d="M9.12,3.335c-0.116-0.002-0.347-0.002-0.463,0c-4.239,0.076-7.629,3.646-7.629,7.919v2.311
		c0,0,1.342,0,3.254,0V12.66h-1.32v-1.096h1.32v-0.31c0-2.545,2.068-4.65,4.607-4.65c2.539,0,4.607,2.105,4.607,4.65v2.311
		c1.437,0,2.615,0,3.254,0v-2.311C16.749,6.981,13.358,3.411,9.12,3.335z"/>
</g>
</svg>
