<?xml version="1.0" encoding="utf-8"?>
<!-- Generator: Adobe Illustrator 17.0.0, SVG Export Plug-In . SVG Version: 6.00 Build 0)  -->
<!DOCTYPE svg PUBLIC "-//W3C//DTD SVG 1.1//EN" "http://www.w3.org/Graphics/SVG/1.1/DTD/svg11.dtd">
<svg version="1.1" id="Слой_1" xmlns="http://www.w3.org/2000/svg" xmlns:xlink="http://www.w3.org/1999/xlink" x="0px" y="0px"
	 width="32px" height="32px" viewBox="0 0 32 32" enable-background="new 0 0 32 32" xml:space="preserve">
<g opacity="0.8">
	<path fill="#201E20" d="M8.476,28.535h15.595c0.321,0,0.584-0.263,0.584-0.584V11.74H7.892v16.211
		C7.892,28.275,8.152,28.535,8.476,28.535L8.476,28.535z M19.638,14.884c0-0.526,0.427-0.956,0.955-0.956h0.02
		c0.526,0,0.955,0.427,0.955,0.956v10.51c0,0.526-0.427,0.956-0.955,0.956h-0.02c-0.526,0-0.955-0.427-0.955-0.956V14.884z
		 M15.308,14.884c0-0.526,0.427-0.956,0.955-0.956h0.021c0.526,0,0.955,0.427,0.955,0.956v10.51c0,0.526-0.427,0.956-0.955,0.956
		h-0.021c-0.526,0-0.955-0.427-0.955-0.956V14.884z M10.977,14.884c0-0.526,0.427-0.956,0.956-0.956h0.02
		c0.526,0,0.955,0.427,0.955,0.956v10.51c0,0.526-0.427,0.956-0.955,0.956h-0.02c-0.526,0-0.956-0.427-0.956-0.956V14.884z
		 M10.977,14.884"/>
	<path fill="#201E20" d="M20.009,6.241V4.926c0-0.806-0.655-1.461-1.461-1.461h-4.553c-0.807,0-1.461,0.655-1.461,1.461v1.315h1.169
		V5.218c0-0.321,0.263-0.584,0.584-0.584h3.965c0.321,0,0.584,0.263,0.584,0.584v1.023H20.009z M20.009,6.241"/>
	<path fill="#201E20" d="M7.161,7.994v1.993c0,0.321,0.263,0.584,0.584,0.584h17.053c0.321,0,0.584-0.263,0.584-0.584V7.994
		c0-0.321-0.263-0.584-0.584-0.584H7.746C7.424,7.409,7.161,7.669,7.161,7.994L7.161,7.994z M7.161,7.994"/>
</g>
</svg>
