<?xml version="1.0" encoding="utf-8"?>
<!-- Generator: Adobe Illustrator 17.0.0, SVG Export Plug-In . SVG Version: 6.00 Build 0)  -->
<!DOCTYPE svg PUBLIC "-//W3C//DTD SVG 1.1//EN" "http://www.w3.org/Graphics/SVG/1.1/DTD/svg11.dtd">
<svg version="1.1" id="Слой_1" xmlns="http://www.w3.org/2000/svg" xmlns:xlink="http://www.w3.org/1999/xlink" x="0px" y="0px"
	 width="32px" height="32px" viewBox="0 0 32 32" enable-background="new 0 0 32 32" xml:space="preserve">
<g opacity="0.8">
	<defs>
		<rect id="SVGID_1_" x="1.081" y="1.709" opacity="0.8" width="29.839" height="28.581"/>
	</defs>
	<clipPath id="SVGID_2_">
		<use xlink:href="#SVGID_1_"  overflow="visible"/>
	</clipPath>
	<path clip-path="url(#SVGID_2_)" fill="#201E20" d="M22.488,12.383l4.404,1.618l-3.661,9.982c-0.346,0.937-2.205,3.874-3.5,4.472
		l-0.313,0.859c-0.084,0.219-0.29,0.352-0.507,0.352c-0.061,0-0.123-0.01-0.184-0.033c-0.28-0.1-0.419-0.407-0.319-0.686
		l0.296-0.816c-0.659-1.272-0.167-4.985,0.123-5.766L22.488,12.383z M28.863,1.821c-1.21-0.442-2.628,0.474-3.037,1.585l-2.651,7.23
		l4.404,1.619l2.651-7.235C30.566,4.116,30.081,2.268,28.863,1.821L28.863,1.821z M20.892,12.009
		c0.123,0.044,0.252,0.067,0.374,0.067c0.436,0,0.849-0.269,1.005-0.703l2.802-7.554c0.207-0.557-0.079-1.178-0.636-1.378
		c-0.559-0.207-1.173,0.077-1.379,0.63l-2.802,7.558C20.049,11.183,20.334,11.801,20.892,12.009L20.892,12.009z M16.382,26.176
		c-0.29-0.273-0.647-0.614-1.233-0.876c-0.48-0.213-0.949-0.224-1.29-0.229c-0.033,0-0.071-0.006-0.117-0.006
		c-0.212-0.586-0.647-0.955-1.295-1.095c-0.859-0.184-1.552,0.223-2.026,0.536c0.044-0.24,0.112-0.524,0.161-0.732
		c0.169-0.665,0.336-1.35,0.213-1.992c-0.1-0.509-0.53-0.882-1.05-0.922c-1.328-0.073-2.417,0.642-3.377,1.29
		c-1.005,0.68-1.652,1.087-2.294,0.859c-0.787-0.279-0.866-2.405-0.486-4.293c0.334-1.708,0.966-4.879,2.574-6.319
		c0.542-0.484,1.322-1.01,1.971-0.753c0.759,0.296,1.383,1.546,1.523,3.031c0.056,0.632,0.603,1.089,1.245,1.033
		c0.626-0.056,1.089-0.614,1.033-1.245c-0.229-2.424-1.368-4.322-2.964-4.946c-0.96-0.374-2.491-0.474-4.339,1.178
		c-2.009,1.803-2.751,4.856-3.293,7.575c-0.269,1.356-0.927,5.866,1.965,6.894c1.763,0.624,3.192-0.34,4.343-1.116
		c0.206-0.146,0.413-0.284,0.613-0.407c-0.189,0.832-0.306,1.713,0.196,2.461c0.743,1.128,1.798,1.245,3.133,0.369
		c0.05-0.033,0.111-0.073,0.167-0.111c0.123,0.263,0.34,0.547,0.736,0.737c0.48,0.24,0.96,0.25,1.312,0.256
		c0.152,0.006,0.357,0.011,0.419,0.04c0.213,0.094,0.342,0.206,0.586,0.44c0.184,0.179,0.38,0.357,0.632,0.547
		c0.206,0.15,0.446,0.229,0.68,0.229c0.347,0,0.693-0.161,0.916-0.457c0.38-0.509,0.279-1.223-0.229-1.602
		C16.639,26.422,16.51,26.294,16.382,26.176L16.382,26.176z M16.382,26.176"/>
</g>
</svg>
