<?xml version="1.0" encoding="utf-8"?>
<!-- Generator: Adobe Illustrator 17.0.0, SVG Export Plug-In . SVG Version: 6.00 Build 0)  -->
<!DOCTYPE svg PUBLIC "-//W3C//DTD SVG 1.1//EN" "http://www.w3.org/Graphics/SVG/1.1/DTD/svg11.dtd">
<svg version="1.1" id="Слой_1" xmlns="http://www.w3.org/2000/svg" xmlns:xlink="http://www.w3.org/1999/xlink" x="0px" y="0px"
	 width="24px" height="24px" viewBox="0 0 24 24" enable-background="new 0 0 24 24" xml:space="preserve">
<g opacity="0.54">
	<g>
		<defs>
			<rect id="SVGID_1_" x="1.027" y="1" width="21.946" height="22"/>
		</defs>
		<clipPath id="SVGID_2_">
			<use xlink:href="#SVGID_1_"  overflow="visible"/>
		</clipPath>
		<path clip-path="url(#SVGID_2_)" d="M15.707,4.04c0.301-0.651,0.606-1.298,0.925-1.985c-3.53-1.486-6.97-1.415-10.257,0.543
			c-3.179,1.891-4.904,4.765-5.348,8.465c0.754,0.067,1.468,0.13,2.182,0.189C3.6,5.661,9.779,1.373,15.707,4.04L15.707,4.04z
			 M15.707,4.04"/>
		<path clip-path="url(#SVGID_2_)" d="M22.794,10.116c-0.71,0.121-1.415,0.247-2.151,0.373c0.382,2.56-0.148,4.868-1.711,6.889
			c-1.554,2.012-3.638,3.117-6.184,3.4c0.063,0.723,0.126,1.428,0.184,2.133C18.262,22.722,23.975,17.369,22.794,10.116
			L22.794,10.116z M22.794,10.116"/>
	</g>
	<path d="M3.178,12.793c-0.678,0.059-1.383,0.121-2.088,0.18c0.166,4.468,4.064,9.498,9.942,9.974
		c0.063-0.723,0.126-1.433,0.184-2.12C6.618,20.059,3.955,17.396,3.178,12.793L3.178,12.793z M3.178,12.793"/>
	<path d="M18.94,6.663c0.548,0.71,0.97,1.491,1.298,2.353c0.683-0.247,1.356-0.494,2.061-0.75c-0.813-2.164-2.138-3.889-4.019-5.241
		c-0.417,0.597-0.831,1.181-1.257,1.792C17.75,5.351,18.397,5.958,18.94,6.663L18.94,6.663z M18.94,6.663"/>
	<g>
		<path d="M13.662,6.404H7.616v11.193h8.768V9.124L13.662,6.404z M9.668,8.316h1.865c0.103,0,0.187,0.212,0.187,0.473
			c0,0.26-0.084,0.473-0.187,0.473H9.668c-0.103,0-0.187-0.212-0.187-0.473C9.481,8.529,9.565,8.316,9.668,8.316L9.668,8.316z
			 M14.332,11.18H9.668c-0.103,0-0.187-0.232-0.187-0.523c0-0.288,0.084-0.52,0.187-0.52h4.664c0.103,0,0.187,0.232,0.187,0.52
			C14.519,10.948,14.435,11.18,14.332,11.18L14.332,11.18z M13.399,9.389V6.777l2.611,2.611H13.399z M13.399,9.389 M14.299,12.89
			H9.636c-0.103,0-0.187-0.232-0.187-0.523c0-0.288,0.084-0.52,0.187-0.52h4.664c0.103,0,0.187,0.232,0.187,0.52
			C14.486,12.658,14.402,12.89,14.299,12.89L14.299,12.89z M14.316,14.73H9.652c-0.103,0-0.187-0.232-0.187-0.523
			c0-0.288,0.084-0.52,0.187-0.52h4.664c0.103,0,0.187,0.232,0.187,0.52C14.502,14.498,14.418,14.73,14.316,14.73L14.316,14.73z
			 M14.299,16.701H9.636c-0.103,0-0.187-0.232-0.187-0.523c0-0.288,0.084-0.52,0.187-0.52h4.664c0.103,0,0.187,0.232,0.187,0.52
			C14.486,16.469,14.402,16.701,14.299,16.701L14.299,16.701z"/>
	</g>
</g>
</svg>
