<?xml version="1.0" encoding="utf-8"?>
<!-- Generator: Adobe Illustrator 17.0.0, SVG Export Plug-In . SVG Version: 6.00 Build 0)  -->
<!DOCTYPE svg PUBLIC "-//W3C//DTD SVG 1.1//EN" "http://www.w3.org/Graphics/SVG/1.1/DTD/svg11.dtd">
<svg version="1.1" id="Слой_1" xmlns="http://www.w3.org/2000/svg" xmlns:xlink="http://www.w3.org/1999/xlink" x="0px" y="0px"
	 width="24px" height="24px" viewBox="0 0 24 24" enable-background="new 0 0 24 24" xml:space="preserve">
<g opacity="0.54">
	<g>
		<defs>
			<rect id="SVGID_1_" x="1" y="1" width="22" height="22"/>
		</defs>
		<clipPath id="SVGID_2_">
			<use xlink:href="#SVGID_1_"  overflow="visible"/>
		</clipPath>
		<path clip-path="url(#SVGID_2_)" d="M15.716,4.04c0.302-0.651,0.608-1.298,0.927-1.985C13.105,0.569,9.657,0.641,6.362,2.599
			C3.174,4.489,1.446,7.363,1,11.064c0.756,0.067,1.472,0.13,2.188,0.189C3.579,5.661,9.774,1.373,15.716,4.04L15.716,4.04z
			 M15.716,4.04"/>
		<path clip-path="url(#SVGID_2_)" d="M22.82,10.116c-0.711,0.121-1.418,0.247-2.156,0.373c0.382,2.56-0.149,4.868-1.715,6.889
			c-1.558,2.012-3.646,3.117-6.199,3.4c0.063,0.723,0.126,1.428,0.184,2.133C18.278,22.722,24.004,17.369,22.82,10.116L22.82,10.116
			z M22.82,10.116"/>
	</g>
	<path d="M3.156,12.793c-0.68,0.059-1.387,0.121-2.093,0.18c0.166,4.468,4.074,9.498,9.967,9.974
		c0.063-0.723,0.126-1.433,0.185-2.12C6.605,20.059,3.935,17.396,3.156,12.793L3.156,12.793z M3.156,12.793"/>
	<path d="M18.957,6.663c0.549,0.71,0.972,1.491,1.301,2.353c0.684-0.247,1.36-0.494,2.066-0.75
		c-0.815-2.164-2.143-3.889-4.029-5.241c-0.418,0.597-0.833,1.181-1.26,1.792C17.765,5.351,18.413,5.958,18.957,6.663L18.957,6.663z
		 M18.957,6.663"/>
	<g>
		<path fill="none" stroke="#000106" stroke-width="1.5" stroke-linecap="round" stroke-miterlimit="10" d="M8.736,15.422
			C6.109,15.72,6.109,13.73,6.109,13.73 M7.938,11.872c0,0-1.829,0.199-1.829,1.858 M8.371,9.683c0,0-0.948,0.73-0.432,2.189
			 M10.898,9.882c0,0-1.264-1.36-2.527-0.199 M13.824,7.411c-2.909,0-2.926,2.471-2.926,2.471 M16.617,10.778
			c0.316-3.367-2.793-3.367-2.793-3.367 M17.847,13.365c0,0,0.399-1.095-1.23-2.587 M16.052,15.422
			c1.663-0.831,1.796-2.057,1.796-2.057"/>
		<path fill="#000106" d="M15.265,12.036c-0.046-0.101-0.109-0.191-0.187-0.269c-0.169-0.167-0.401-0.262-0.637-0.261l-1.168,0.008
			c-0.368,0.003-0.702,0.237-0.831,0.584c-0.033,0.089-0.063,0.18-0.09,0.27l-2.529,0.024c-0.071,0.001-0.137,0.029-0.186,0.08
			l-0.65,0.668c-0.102,0.105-0.101,0.275,0.004,0.378l0.662,0.655c0.104,0.103,0.272,0.102,0.374-0.003l0.228-0.234l0.232,0.23
			c0.104,0.103,0.272,0.102,0.374-0.004l0.228-0.234l0.232,0.23l0.037,0.016c0.46,0.008,0.786,0.012,0.988-0.005
			c0.037,0.134,0.072,0.24,0.111,0.332c0.047,0.112,0.114,0.212,0.199,0.296c0.171,0.169,0.397,0.261,0.636,0.259l1.182-0.008
			c0.357-0.003,0.677-0.218,0.817-0.549c0.122-0.291,0.267-0.742,0.261-1.241C15.548,12.76,15.393,12.318,15.265,12.036z
			 M14.073,13.961c-0.354,0-0.641-0.305-0.641-0.68c0-0.376,0.287-0.68,0.641-0.68c0.354,0,0.641,0.305,0.641,0.68
			C14.714,13.657,14.427,13.961,14.073,13.961z"/>
	</g>
</g>
</svg>
