<?xml version="1.0" encoding="utf-8"?>
<!-- Generator: Adobe Illustrator 17.0.0, SVG Export Plug-In . SVG Version: 6.00 Build 0)  -->
<!DOCTYPE svg PUBLIC "-//W3C//DTD SVG 1.1//EN" "http://www.w3.org/Graphics/SVG/1.1/DTD/svg11.dtd">
<svg version="1.1" id="Слой_1" xmlns="http://www.w3.org/2000/svg" xmlns:xlink="http://www.w3.org/1999/xlink" x="0px" y="0px"
	 width="80px" height="80px" viewBox="0 0 80 80" enable-background="new 0 0 80 80" xml:space="preserve">
<g>
	<g>
		<defs>
			<rect id="SVGID_1_" x="1" y="1" width="78" height="78"/>
		</defs>
		<clipPath id="SVGID_2_">
			<use xlink:href="#SVGID_1_"  overflow="visible"/>
		</clipPath>
		<path clip-path="url(#SVGID_2_)" fill="#BF3918" d="M53.176,11.779c1.069-2.309,2.155-4.602,3.288-7.037
			c-12.545-5.27-24.771-5.016-36.454,1.927C8.709,13.371,2.581,23.561,1,36.681c2.682,0.239,5.219,0.461,7.757,0.669
			C10.145,17.527,32.108,2.322,53.176,11.779L53.176,11.779z M53.176,11.779"/>
		<path clip-path="url(#SVGID_2_)" fill="#BF3918" d="M78.362,33.321c-2.522,0.43-5.028,0.876-7.645,1.322
			c1.356,9.076-0.527,17.259-6.081,24.423c-5.522,7.133-12.928,11.05-21.978,12.053c0.224,2.563,0.447,5.062,0.654,7.563
			C62.257,78.013,82.559,59.034,78.362,33.321L78.362,33.321z M78.362,33.321"/>
	</g>
	<path fill="#BF3918" d="M8.645,42.81c-2.41,0.208-4.916,0.43-7.422,0.637c0.59,15.842,14.444,33.674,35.336,35.362
		c0.224-2.564,0.447-5.08,0.655-7.515C20.871,68.571,11.406,59.13,8.645,42.81L8.645,42.81z M8.645,42.81"/>
	<path fill="#BF3918" d="M64.667,21.077c1.947,2.516,3.447,5.286,4.612,8.343c2.426-0.876,4.82-1.751,7.327-2.66
		c-2.889-7.674-7.598-13.788-14.285-18.58c-1.484,2.118-2.953,4.188-4.469,6.353C60.438,16.428,62.736,18.578,64.667,21.077
		L64.667,21.077z M64.667,21.077"/>
	<path fill="#BF3918" d="M54.323,33.005h-2.528v-3.362c0-6.488-5.291-11.766-11.795-11.766s-11.795,5.278-11.795,11.766v3.362
		h-2.528c-0.466,0-0.843,0.376-0.843,0.84v21.011c0,1.854,1.511,3.362,3.37,3.362h23.59c1.859,0,3.37-1.508,3.37-3.362V33.845
		C55.165,33.38,54.788,33.005,54.323,33.005z M41.991,45.793l0.532,4.768c0.026,0.237-0.05,0.475-0.21,0.653
		c-0.16,0.178-0.388,0.28-0.628,0.28h-3.37c-0.239,0-0.468-0.102-0.628-0.28c-0.16-0.178-0.236-0.416-0.21-0.653l0.532-4.768
		c-0.863-0.626-1.379-1.617-1.379-2.704c0-1.854,1.511-3.362,3.37-3.362c1.859,0,3.37,1.508,3.37,3.362
		C43.37,44.177,42.854,45.167,41.991,45.793z M46.74,33.005H33.26v-3.362c0-3.707,3.024-6.724,6.74-6.724
		c3.716,0,6.74,3.016,6.74,6.724V33.005z"/>
</g>
</svg>
