<?xml version="1.0" encoding="utf-8"?>
<!-- Generator: Adobe Illustrator 17.0.0, SVG Export Plug-In . SVG Version: 6.00 Build 0)  -->
<!DOCTYPE svg PUBLIC "-//W3C//DTD SVG 1.1//EN" "http://www.w3.org/Graphics/SVG/1.1/DTD/svg11.dtd">
<svg version="1.1" id="Слой_1" xmlns="http://www.w3.org/2000/svg" xmlns:xlink="http://www.w3.org/1999/xlink" x="0px" y="0px"
	 width="24px" height="24px" viewBox="0 0 24 24" enable-background="new 0 0 24 24" xml:space="preserve">
<g opacity="0.54">
	<g>
		<defs>
			<rect id="SVGID_1_" x="0.029" width="23.941" height="24"/>
		</defs>
		<clipPath id="SVGID_2_">
			<use xlink:href="#SVGID_1_"  overflow="visible"/>
		</clipPath>
		<path clip-path="url(#SVGID_2_)" d="M16.044,3.317c0.328-0.71,0.661-1.416,1.009-2.165C13.203-0.47,9.45-0.392,5.864,1.744
			c-3.468,2.062-5.35,5.198-5.835,9.235c0.823,0.073,1.602,0.142,2.381,0.206C2.836,5.085,9.578,0.407,16.044,3.317L16.044,3.317z
			 M16.044,3.317"/>
		<path clip-path="url(#SVGID_2_)" d="M23.775,9.945c-0.774,0.132-1.543,0.27-2.347,0.407c0.416,2.792-0.162,5.31-1.867,7.515
			c-1.695,2.195-3.968,3.4-6.746,3.709c0.069,0.789,0.137,1.558,0.201,2.327C18.832,23.696,25.063,17.857,23.775,9.945L23.775,9.945
			z M23.775,9.945"/>
	</g>
	<path d="M2.376,12.865c-0.74,0.064-1.509,0.132-2.278,0.196c0.181,4.874,4.433,10.361,10.846,10.881
		c0.069-0.789,0.137-1.563,0.201-2.312C6.129,20.791,3.224,17.886,2.376,12.865L2.376,12.865z M2.376,12.865"/>
	<path d="M19.571,6.178c0.598,0.774,1.058,1.626,1.416,2.567c0.745-0.27,1.479-0.539,2.249-0.818
		c-0.887-2.361-2.332-4.242-4.385-5.717c-0.455,0.652-0.906,1.289-1.372,1.955C18.273,4.747,18.979,5.409,19.571,6.178L19.571,6.178
		z M19.571,6.178"/>
	<path fill="#010202" d="M16.396,9.848H15.62V8.813c0-1.996-1.624-3.62-3.62-3.62s-3.62,1.624-3.62,3.62v1.034H7.604
		c-0.143,0-0.259,0.116-0.259,0.259v6.465c0,0.57,0.464,1.034,1.034,1.034h7.241c0.57,0,1.034-0.464,1.034-1.034v-6.465
		C16.655,9.963,16.539,9.848,16.396,9.848z M12.611,13.783l0.163,1.467c0.008,0.073-0.015,0.146-0.064,0.201
		c-0.049,0.055-0.119,0.086-0.193,0.086h-1.034c-0.073,0-0.144-0.031-0.193-0.086c-0.049-0.055-0.072-0.128-0.064-0.201l0.163-1.467
		c-0.265-0.193-0.423-0.498-0.423-0.832c0-0.57,0.464-1.034,1.034-1.034c0.57,0,1.034,0.464,1.034,1.034
		C13.034,13.285,12.876,13.59,12.611,13.783z M14.069,9.848H9.931V8.813c0-1.141,0.928-2.069,2.069-2.069s2.069,0.928,2.069,2.069
		V9.848z"/>
</g>
</svg>
