<?xml version="1.0" encoding="utf-8"?>
<!-- Generator: Adobe Illustrator 17.0.0, SVG Export Plug-In . SVG Version: 6.00 Build 0)  -->
<!DOCTYPE svg PUBLIC "-//W3C//DTD SVG 1.1//EN" "http://www.w3.org/Graphics/SVG/1.1/DTD/svg11.dtd">
<svg version="1.1" id="Слой_1" xmlns="http://www.w3.org/2000/svg" xmlns:xlink="http://www.w3.org/1999/xlink" x="0px" y="0px"
	 width="24px" height="24px" viewBox="0 0 24 24" style="enable-background:new 0 0 24 24;" xml:space="preserve">
<g style="opacity:0.54;">
	<path style="fill:#010202;" d="M19.836,9.741H18.71V6.957c0-3.51-2.855-6.365-6.365-6.365c-3.51,0-6.365,2.855-6.365,6.365v2.784
		H4.853c-0.364,0-0.659,0.295-0.659,0.658V22.75c0,0.364,0.295,0.659,0.659,0.659h14.983c0.364,0,0.658-0.295,0.658-0.659V10.4
		C20.494,10.036,20.199,9.741,19.836,9.741z M13.371,17.258v2.629c0,0.23-0.186,0.416-0.416,0.416h-1.222
		c-0.23,0-0.416-0.186-0.416-0.416v-2.629c-0.454-0.322-0.751-0.852-0.751-1.451c0-0.982,0.796-1.778,1.778-1.778
		c0.982,0,1.778,0.796,1.778,1.778C14.122,16.406,13.825,16.936,13.371,17.258z M15.671,9.741H9.018V6.957
		c0-1.834,1.492-3.326,3.326-3.326c1.834,0,3.326,1.492,3.326,3.326V9.741z"/>
</g>
</svg>
