<?xml version="1.0" encoding="utf-8"?>
<!-- Generator: Adobe Illustrator 17.0.0, SVG Export Plug-In . SVG Version: 6.00 Build 0)  -->
<!DOCTYPE svg PUBLIC "-//W3C//DTD SVG 1.1//EN" "http://www.w3.org/Graphics/SVG/1.1/DTD/svg11.dtd">
<svg version="1.1" id="Слой_1" xmlns="http://www.w3.org/2000/svg" xmlns:xlink="http://www.w3.org/1999/xlink" x="0px" y="0px"
	 width="32px" height="40px" viewBox="0 0 32 40" enable-background="new 0 0 32 40" xml:space="preserve">
<g>
	<path fill="#BF3A1C" d="M1.071,15.433v20.869C1.071,37.786,2.285,39,3.769,39H28.23c1.484,0,2.698-1.214,2.698-2.698V15.433H1.071z
		"/>
	<path fill="#BF3A1C" d="M30.929,16.285v-5.206L20.96,1H3.769C2.285,1,1.071,2.214,1.071,3.698v12.586L30.929,16.285L30.929,16.285z
		"/>
	<path opacity="0.2" fill="#000204" enable-background="new    " d="M20.96,1l-1.023,9.303c0,1.484,1.214,2.698,2.698,2.698
		l8.294-1.923L20.96,1z"/>
	<path fill="#FFFFFF" d="M20.986,1v7.367c0,1.484,1.214,2.698,2.698,2.698h7.245L20.986,1z"/>
	<g>
		
			<image display="none" overflow="visible" opacity="0.85" enable-background="new    " width="75" height="58" xlink:href="E29AD753.png"  transform="matrix(0.2258 0 0 0.2258 2.7306 4.7808)">
		</image>
		<g>
			<text transform="matrix(1 0 0 1 4.6784 11.1156)" fill="#FFFFFF" font-family="'ArialMT'" font-size="6.2917">ENC</text>
		</g>
	</g>
	<rect x="1.071" y="15.433" fill="#FFFFFF" width="29.858" height="0.852"/>
	<path fill="none" stroke="#FFFFFF" stroke-miterlimit="10" d="M21.521,25.034h-0.949v-1.266c0-2.443-1.987-4.43-4.43-4.43
		s-4.43,1.987-4.43,4.43v1.266h-0.949c-0.175,0-0.316,0.142-0.316,0.316v7.912c0,0.698,0.568,1.266,1.266,1.266h8.861
		c0.698,0,1.266-0.568,1.266-1.266V25.35C21.838,25.175,21.696,25.034,21.521,25.034z M16.889,29.849l0.2,1.795
		c0.01,0.089-0.019,0.179-0.079,0.246c-0.06,0.067-0.146,0.105-0.236,0.105h-1.266c-0.09,0-0.176-0.038-0.236-0.105
		s-0.089-0.157-0.079-0.246l0.2-1.795c-0.324-0.236-0.518-0.609-0.518-1.018c0-0.698,0.568-1.266,1.266-1.266
		c0.698,0,1.266,0.568,1.266,1.266C17.407,29.24,17.213,29.613,16.889,29.849z M18.673,25.034H13.61v-1.266
		c0-1.396,1.136-2.532,2.532-2.532s2.532,1.136,2.532,2.532L18.673,25.034L18.673,25.034z"/>
</g>
</svg>
