<?xml version="1.0" encoding="utf-8"?>
<!-- Generator: Adobe Illustrator 17.0.0, SVG Export Plug-In . SVG Version: 6.00 Build 0)  -->
<!DOCTYPE svg PUBLIC "-//W3C//DTD SVG 1.1//EN" "http://www.w3.org/Graphics/SVG/1.1/DTD/svg11.dtd">
<svg version="1.1" id="Слой_1" xmlns="http://www.w3.org/2000/svg" xmlns:xlink="http://www.w3.org/1999/xlink" x="0px" y="0px"
	 width="24px" height="24px" viewBox="0 0 24 24" enable-background="new 0 0 24 24" xml:space="preserve">
<g opacity="0.54">
	<g>
		<path d="M12.016,20.184c-0.658,0-1.194-0.536-1.194-1.194c0-0.658,0.536-1.194,1.194-1.194c0.658,0,1.194,0.536,1.194,1.194
			C13.21,19.649,12.674,20.184,12.016,20.184z M12.016,18.383c-0.335,0-0.607,0.273-0.607,0.607s0.273,0.607,0.607,0.607
			c0.335,0,0.607-0.273,0.607-0.607C12.623,18.655,12.351,18.383,12.016,18.383z"/>
		<path d="M12,17.308c-0.66,0-1.196-0.537-1.196-1.196v-2.791c0-0.66,0.537-1.196,1.196-1.196c1.178,0,2.136-0.958,2.136-2.136
			S13.178,7.853,12,7.853S9.864,8.811,9.864,9.989c0,0.66-0.537,1.196-1.196,1.196c-0.66,0-1.196-0.537-1.196-1.196
			c0-2.497,2.031-4.528,4.528-4.528s4.528,2.031,4.528,4.528c0,1.038-0.362,2.054-1.019,2.859c-0.597,0.732-1.412,1.261-2.314,1.509
			v1.755C13.196,16.772,12.66,17.308,12,17.308z M12,7.266c1.501,0,2.723,1.221,2.723,2.723S13.501,12.712,12,12.712
			c-0.336,0-0.61,0.273-0.61,0.61v2.791c0,0.336,0.273,0.61,0.61,0.61c0.336,0,0.61-0.273,0.61-0.61v-1.985
			c0-0.138,0.096-0.257,0.231-0.287c1.797-0.392,3.101-2.012,3.101-3.852c0-2.174-1.768-3.942-3.942-3.942S8.058,7.816,8.058,9.989
			c0,0.336,0.273,0.61,0.61,0.61s0.61-0.273,0.61-0.61C9.277,8.488,10.499,7.266,12,7.266z"/>
		<path d="M12,16.371c-0.162,0-0.293-0.131-0.293-0.293v-1.701c0-0.162,0.131-0.293,0.293-0.293s0.293,0.131,0.293,0.293v1.701
			C12.293,16.24,12.162,16.371,12,16.371z"/>
		<path d="M12,13.878c-0.162,0-0.293-0.131-0.293-0.293v-0.264c0-0.162,0.131-0.293,0.293-0.293s0.293,0.131,0.293,0.293v0.264
			C12.293,13.747,12.162,13.878,12,13.878z"/>
	</g>
	<g>
		<defs>
			<rect id="SVGID_1_" x="0.614" y="0.586" width="22.773" height="22.829"/>
		</defs>
		<clipPath id="SVGID_2_">
			<use xlink:href="#SVGID_1_"  overflow="visible"/>
		</clipPath>
		<path clip-path="url(#SVGID_2_)" d="M15.847,3.74c0.312-0.676,0.629-1.347,0.96-2.06C13.144,0.138,9.575,0.213,6.164,2.245
			c-3.299,1.962-5.089,4.944-5.55,8.784c0.783,0.07,1.524,0.135,2.265,0.196C3.284,5.423,9.696,0.972,15.847,3.74L15.847,3.74z
			 M15.847,3.74"/>
		<path clip-path="url(#SVGID_2_)" d="M23.2,10.045c-0.736,0.126-1.468,0.256-2.232,0.387c0.396,2.656-0.154,5.051-1.775,7.148
			c-1.612,2.088-3.775,3.234-6.417,3.528c0.065,0.75,0.13,1.482,0.191,2.213C18.498,23.126,24.426,17.571,23.2,10.045L23.2,10.045z
			 M23.2,10.045"/>
	</g>
	<path d="M2.846,12.822c-0.704,0.061-1.435,0.126-2.167,0.187c0.172,4.636,4.217,9.856,10.317,10.35
		c0.065-0.75,0.131-1.487,0.191-2.2C6.415,20.362,3.652,17.599,2.846,12.822L2.846,12.822z M2.846,12.822"/>
	<path d="M19.202,6.462c0.568,0.736,1.006,1.547,1.347,2.442c0.708-0.256,1.407-0.513,2.139-0.778
		c-0.843-2.246-2.218-4.035-4.171-5.438c-0.433,0.62-0.862,1.226-1.305,1.859C17.967,5.101,18.638,5.73,19.202,6.462L19.202,6.462z
		 M19.202,6.462"/>
</g>
</svg>
