<?xml version="1.0" encoding="utf-8"?>
<!-- Generator: Adobe Illustrator 17.0.0, SVG Export Plug-In . SVG Version: 6.00 Build 0)  -->
<!DOCTYPE svg PUBLIC "-//W3C//DTD SVG 1.1//EN" "http://www.w3.org/Graphics/SVG/1.1/DTD/svg11.dtd">
<svg version="1.1" id="Слой_1" xmlns="http://www.w3.org/2000/svg" xmlns:xlink="http://www.w3.org/1999/xlink" x="0px" y="0px"
	 width="36px" height="34.768px" viewBox="0 0 36 34.768" enable-background="new 0 0 36 34.768" xml:space="preserve">
<g opacity="0.8">
	<g>
		<path d="M26.263,23.552h-1.114l-0.414-0.407c1.392-1.48,2.22-3.499,2.22-5.655c0-4.846-4.033-8.751-9.038-8.751
			s-9.038,3.905-9.038,8.751c0,4.846,4.033,8.751,9.038,8.751c2.227,0,4.313-0.801,5.841-2.149l0.421,0.401v1.079l6.954,6.733
			l2.084-2.018L26.263,23.552z M17.917,23.552c-3.477,0-6.253-2.696-6.253-6.063c0-3.366,2.776-6.054,6.253-6.054
			c3.477,0,6.262,2.688,6.262,6.054C24.178,20.855,21.393,23.552,17.917,23.552L17.917,23.552z M17.917,23.552"/>
		<polygon points="30.66,32.771 21.548,24.08 24.783,20.923 33.895,29.614 		"/>
	</g>
	<g>
		<path fill="none" d="M26.552,21.546l0.905,0.851c0.216-0.376,0.412-0.765,0.579-1.167c0.5-1.202,0.775-2.513,0.775-3.886
			c0-5.77-4.864-10.465-10.846-10.465c-5.981,0-10.845,4.694-10.845,10.465c0,5.77,4.864,10.464,10.845,10.464
			c1.409,0,2.755-0.26,3.991-0.734c0.271-0.104,0.534-0.221,0.794-0.344l-0.737-0.693L26.552,21.546z"/>
		<path fill="none" d="M1.156,14.444c1.753,0,3.284-0.916,3.903-2.339c0.649-1.492,0.246-3.227-1.003-4.318
			C3.667,7.444,3.618,6.868,3.949,6.471c0.849-1.022,1.827-1.954,2.902-2.768c0.411-0.309,1.001-0.264,1.354,0.109
			c1.067,1.133,2.974,1.554,4.44,0.976c1.529-0.604,2.514-2.088,2.457-3.693c-0.018-0.503,0.368-0.935,0.888-0.991
			C16.658,0.033,17.33-0.001,18,0H0v17.252c0.001-0.656,0.041-1.31,0.12-1.958C0.183,14.795,0.587,14.426,1.156,14.444z"/>
		<path fill="none" d="M18.014,0c0.672,0.002,1.343,0.04,2.011,0.115c0.526,0.059,0.912,0.502,0.881,1.011
			c-0.096,1.621,0.879,3.131,2.422,3.757c1.484,0.597,3.405,0.173,4.474-0.97c0.355-0.379,0.955-0.423,1.364-0.106
			c1.044,0.807,2,1.738,2.842,2.769c0.323,0.396,0.276,0.965-0.109,1.305c-1.225,1.084-1.627,2.804-1.003,4.279
			c0.612,1.441,2.071,2.371,3.714,2.371c0.508,0,1.096,0.366,1.153,0.853c0.153,1.311,0.151,2.634-0.008,3.935
			c-0.062,0.507-0.535,0.889-1.05,0.849l-0.222-0.006c-1.586,0-3.06,0.943-3.669,2.346c-0.444,1.021-0.394,2.156,0.082,3.121
			l4.475,4.21l-4.539,4.492l-4.842-4.555c-0.792-0.252-1.666-0.285-2.451-0.057c-0.106,0.031-0.21,0.066-0.312,0.106
			c-1.527,0.603-2.514,2.087-2.455,3.691c0.018,0.503-0.368,0.936-0.888,0.991c-0.656,0.07-1.313,0.105-1.969,0.105
			c-0.692,0-1.381-0.038-2.067-0.116c-0.524-0.058-0.911-0.502-0.88-1.011c0.095-1.621-0.879-3.131-2.427-3.756
			c-1.478-0.599-3.398-0.175-4.472,0.97c-0.357,0.379-0.954,0.424-1.365,0.105c-1.047-0.814-2.004-1.746-2.837-2.77
			c-0.324-0.395-0.275-0.964,0.109-1.304c1.227-1.085,1.63-2.805,1.003-4.28c-0.63-1.477-2.129-2.41-3.691-2.371
			c-0.514,0-1.12-0.363-1.176-0.852C0.037,18.576-0.001,17.92,0,17.265v17.504h36V0H18.014z"/>
		<path d="M1.289,20.081c1.562-0.038,3.061,0.894,3.691,2.371c0.627,1.475,0.224,3.195-1.003,4.28
			c-0.384,0.34-0.433,0.909-0.109,1.304c0.833,1.024,1.79,1.956,2.837,2.77c0.411,0.319,1.009,0.275,1.365-0.105
			c1.074-1.145,2.994-1.569,4.472-0.97c1.549,0.625,2.522,2.135,2.427,3.756c-0.031,0.509,0.356,0.953,0.88,1.011
			c0.686,0.077,1.375,0.116,2.067,0.116c0.656,0,1.313-0.035,1.969-0.105c0.52-0.055,0.905-0.488,0.888-0.991
			c-0.06-1.604,0.928-3.088,2.455-3.691c0.102-0.04,0.206-0.076,0.312-0.106c0.785-0.228,1.658-0.194,2.451,0.057l-3.24-3.047
			c-0.26,0.124-0.523,0.24-0.794,0.344c-1.236,0.473-2.583,0.734-3.991,0.734c-5.981,0-10.845-4.694-10.845-10.464
			c0-5.77,4.864-10.465,10.845-10.465c5.982,0,10.846,4.694,10.846,10.465c0,1.372-0.275,2.684-0.775,3.886
			c-0.167,0.403-0.363,0.791-0.579,1.167l3.438,3.234c-0.476-0.965-0.527-2.1-0.082-3.121c0.609-1.403,2.084-2.346,3.669-2.346
			l0.222,0.006c0.515,0.04,0.988-0.342,1.05-0.849c0.158-1.301,0.16-2.625,0.008-3.935c-0.057-0.487-0.645-0.853-1.153-0.853
			c-1.644,0-3.102-0.931-3.714-2.371c-0.624-1.475-0.222-3.195,1.003-4.279c0.386-0.34,0.433-0.91,0.109-1.305
			c-0.841-1.031-1.797-1.962-2.842-2.769c-0.409-0.316-1.009-0.272-1.364,0.106c-1.069,1.143-2.99,1.567-4.474,0.97
			c-1.544-0.627-2.518-2.137-2.422-3.757c0.031-0.509-0.355-0.952-0.881-1.011C19.357,0.041,18.686,0.002,18.014,0H18
			c-0.671-0.002-1.342,0.033-2.011,0.105c-0.519,0.055-0.905,0.487-0.888,0.991c0.058,1.605-0.928,3.088-2.457,3.693
			c-1.466,0.578-3.374,0.157-4.44-0.976C7.852,3.439,7.262,3.393,6.851,3.703C5.776,4.517,4.798,5.449,3.949,6.471
			C3.618,6.868,3.667,7.444,4.056,7.786c1.249,1.091,1.651,2.826,1.003,4.318c-0.619,1.423-2.15,2.339-3.903,2.339
			c-0.569-0.018-0.974,0.351-1.036,0.85C0.041,15.942,0.001,16.596,0,17.252v0.013c-0.001,0.655,0.036,1.312,0.112,1.964
			C0.169,19.718,0.774,20.081,1.289,20.081z"/>
	</g>
</g>
</svg>
