<?xml version="1.0" encoding="utf-8"?>
<!-- Generator: Adobe Illustrator 17.0.0, SVG Export Plug-In . SVG Version: 6.00 Build 0)  -->
<!DOCTYPE svg PUBLIC "-//W3C//DTD SVG 1.1//EN" "http://www.w3.org/Graphics/SVG/1.1/DTD/svg11.dtd">
<svg version="1.1" id="Слой_1" xmlns="http://www.w3.org/2000/svg" xmlns:xlink="http://www.w3.org/1999/xlink" x="0px" y="0px"
	 width="36px" height="34.768px" viewBox="0 0 36 34.768" enable-background="new 0 0 36 34.768" xml:space="preserve">
<g>
	<g opacity="0.8">
		<g>
			<path d="M26.263,23.637h-1.114l-0.414-0.407c1.392-1.48,2.22-3.499,2.22-5.655c0-4.846-4.033-8.751-9.038-8.751
				S8.88,12.728,8.88,17.574c0,4.846,4.033,8.751,9.038,8.751c2.227,0,4.313-0.801,5.841-2.149l0.421,0.401v1.079l6.954,6.733
				l2.084-2.018L26.263,23.637z M17.917,23.637c-3.477,0-6.253-2.696-6.253-6.063c0-3.366,2.776-6.054,6.253-6.054
				c3.477,0,6.262,2.688,6.262,6.054C24.179,20.94,21.394,23.637,17.917,23.637L17.917,23.637z M17.917,23.637"/>
			<polygon points="30.661,32.856 21.549,24.166 24.784,21.008 33.896,29.699 			"/>
		</g>
		<g>
			<path fill="none" d="M26.553,21.631l0.905,0.851c0.216-0.376,0.412-0.765,0.579-1.167c0.5-1.202,0.775-2.513,0.775-3.886
				c0-5.77-4.864-10.465-10.846-10.465c-5.981,0-10.845,4.694-10.845,10.465c0,5.77,4.864,10.464,10.845,10.464
				c1.409,0,2.755-0.26,3.991-0.734c0.271-0.104,0.534-0.221,0.794-0.344l-0.737-0.693L26.553,21.631z"/>
			<path fill="none" d="M1.157,14.529c1.753,0,3.284-0.916,3.903-2.339c0.649-1.492,0.246-3.227-1.003-4.318
				C3.668,7.53,3.619,6.954,3.95,6.556c0.849-1.022,1.827-1.954,2.902-2.768c0.411-0.309,1.001-0.264,1.354,0.109
				c1.067,1.133,2.974,1.554,4.44,0.976c1.529-0.604,2.514-2.088,2.457-3.693c-0.018-0.503,0.368-0.935,0.888-0.991
				c0.669-0.072,1.341-0.106,2.011-0.105h-18v17.252c0.001-0.656,0.041-1.31,0.12-1.958C0.183,14.88,0.588,14.511,1.157,14.529z"/>
			<path fill="none" d="M18.015,0.085c0.672,0.002,1.343,0.04,2.011,0.115c0.526,0.059,0.912,0.502,0.881,1.011
				c-0.096,1.621,0.879,3.131,2.422,3.757c1.484,0.597,3.405,0.173,4.474-0.97c0.355-0.379,0.955-0.423,1.364-0.106
				c1.044,0.807,2,1.738,2.842,2.769c0.323,0.396,0.276,0.965-0.109,1.305c-1.225,1.084-1.627,2.804-1.003,4.279
				c0.612,1.441,2.071,2.371,3.714,2.371c0.508,0,1.096,0.366,1.153,0.853c0.153,1.311,0.151,2.634-0.008,3.935
				c-0.062,0.507-0.535,0.889-1.05,0.849l-0.222-0.006c-1.586,0-3.06,0.943-3.669,2.346c-0.444,1.021-0.394,2.156,0.082,3.121
				l4.475,4.21l-4.539,4.492l-4.842-4.555c-0.792-0.252-1.666-0.285-2.451-0.057c-0.106,0.031-0.21,0.066-0.312,0.106
				c-1.527,0.603-2.514,2.087-2.455,3.691c0.018,0.503-0.368,0.936-0.888,0.991c-0.656,0.07-1.313,0.105-1.969,0.105
				c-0.692,0-1.381-0.038-2.067-0.116c-0.524-0.058-0.911-0.502-0.88-1.011c0.095-1.621-0.879-3.131-2.427-3.756
				c-1.478-0.599-3.398-0.175-4.472,0.97c-0.357,0.379-0.954,0.424-1.365,0.105c-1.047-0.814-2.004-1.746-2.837-2.77
				c-0.324-0.395-0.275-0.964,0.109-1.304c1.227-1.085,1.63-2.805,1.003-4.28c-0.63-1.477-2.129-2.41-3.691-2.371
				c-0.514,0-1.12-0.363-1.176-0.852C0.037,18.661,0,18.005,0.001,17.35v17.504h36V0.085H18.015z"/>
			<path d="M1.289,20.166c1.562-0.038,3.061,0.894,3.691,2.371c0.627,1.475,0.224,3.195-1.003,4.28
				c-0.384,0.34-0.433,0.909-0.109,1.304c0.833,1.024,1.79,1.956,2.837,2.77c0.411,0.319,1.009,0.275,1.365-0.105
				c1.074-1.145,2.994-1.569,4.472-0.97c1.549,0.625,2.522,2.135,2.427,3.756c-0.031,0.509,0.356,0.953,0.88,1.011
				c0.686,0.077,1.375,0.116,2.067,0.116c0.656,0,1.313-0.035,1.969-0.105c0.52-0.055,0.905-0.488,0.888-0.991
				c-0.06-1.604,0.928-3.088,2.455-3.691c0.102-0.04,0.206-0.076,0.312-0.106c0.785-0.228,1.658-0.194,2.451,0.057l-3.24-3.047
				c-0.26,0.124-0.523,0.24-0.794,0.344c-1.236,0.473-2.583,0.734-3.991,0.734c-5.981,0-10.845-4.694-10.845-10.464
				c0-5.77,4.864-10.465,10.845-10.465c5.982,0,10.846,4.694,10.846,10.465c0,1.372-0.275,2.684-0.775,3.886
				c-0.167,0.403-0.363,0.791-0.579,1.167l3.438,3.234c-0.476-0.965-0.527-2.1-0.082-3.121c0.609-1.403,2.084-2.346,3.669-2.346
				l0.222,0.006c0.515,0.04,0.988-0.342,1.05-0.849c0.158-1.301,0.16-2.625,0.008-3.935c-0.057-0.487-0.645-0.853-1.153-0.853
				c-1.644,0-3.102-0.931-3.714-2.371c-0.624-1.475-0.222-3.195,1.003-4.279c0.386-0.34,0.433-0.91,0.109-1.305
				C31.166,5.631,30.21,4.7,29.166,3.893c-0.409-0.316-1.009-0.272-1.364,0.106c-1.069,1.143-2.99,1.567-4.474,0.97
				c-1.544-0.627-2.518-2.137-2.422-3.757c0.031-0.509-0.355-0.952-0.881-1.011c-0.668-0.075-1.339-0.113-2.011-0.115h-0.014
				C17.33,0.084,16.659,0.119,15.99,0.19c-0.519,0.055-0.905,0.487-0.888,0.991c0.058,1.605-0.928,3.088-2.457,3.693
				c-1.466,0.578-3.374,0.157-4.44-0.976C7.853,3.525,7.263,3.479,6.852,3.788C5.777,4.602,4.799,5.534,3.95,6.556
				C3.619,6.954,3.668,7.53,4.057,7.871c1.249,1.091,1.651,2.826,1.003,4.318c-0.619,1.423-2.15,2.339-3.903,2.339
				c-0.569-0.018-0.974,0.351-1.036,0.85c-0.079,0.648-0.119,1.302-0.12,1.958v0.013C0,18.005,0.037,18.661,0.113,19.314
				C0.17,19.803,0.775,20.166,1.289,20.166z"/>
		</g>
	</g>
	<ellipse fill="#459D40" cx="17.922" cy="17.578" rx="6.257" ry="6.058"/>
</g>
</svg>
