<?xml version="1.0" encoding="utf-8"?>
<!-- Generator: Adobe Illustrator 17.0.0, SVG Export Plug-In . SVG Version: 6.00 Build 0)  -->
<!DOCTYPE svg PUBLIC "-//W3C//DTD SVG 1.1//EN" "http://www.w3.org/Graphics/SVG/1.1/DTD/svg11.dtd">
<svg version="1.1" id="Слой_1" xmlns="http://www.w3.org/2000/svg" xmlns:xlink="http://www.w3.org/1999/xlink" x="0px" y="0px"
	 width="36px" height="34.768px" viewBox="0 0 36 34.768" enable-background="new 0 0 36 34.768" xml:space="preserve">
<symbol  id="ic_x5F_moreVert" viewBox="0 -24 12 24">
	<polygon fill="none" points="12,-24 0,-24 0,0 12,0 	"/>
	<path fill="#000204" d="M6-8c1.105,0,2,0.895,2,2S7.104-4,6-4S4-4.896,4-6S4.895-8,6-8z M6-10c-1.104,0-2-0.896-2-2s0.895-2,2-2
		s2,0.895,2,2S7.104-10,6-10z M6-16c-1.104,0-2-0.896-2-2s0.895-2,2-2s2,0.896,2,2S7.104-16,6-16z"/>
</symbol>
<use xlink:href="#ic_x5F_moreVert"  width="12" height="24" id="XMLID_1_" x="0" y="-24" transform="matrix(1.1371 0 0 -1.1371 11.6775 4.1075)" overflow="visible" opacity="0.8"/>
</svg>
