<?xml version="1.0" encoding="utf-8"?>
<!-- Generator: Adobe Illustrator 17.0.0, SVG Export Plug-In . SVG Version: 6.00 Build 0)  -->
<!DOCTYPE svg PUBLIC "-//W3C//DTD SVG 1.1//EN" "http://www.w3.org/Graphics/SVG/1.1/DTD/svg11.dtd">
<svg version="1.1" id="Слой_1" xmlns="http://www.w3.org/2000/svg" xmlns:xlink="http://www.w3.org/1999/xlink" x="0px" y="0px"
	 width="24px" height="24px" viewBox="0 0 24 24" enable-background="new 0 0 24 24" xml:space="preserve">
<g opacity="0.54">
	<path d="M12.448,13.893l1.556-1.128c0.142,0.09,0.309,0.143,0.49,0.143c0.508,0,0.92-0.412,0.92-0.921
		c0-0.508-0.412-0.92-0.92-0.92c-0.508,0-0.92,0.412-0.92,0.92c0,0.038,0.003,0.075,0.008,0.114l-1.133,0.82v-2.56l1.567-1.136
		c0.141,0.085,0.303,0.135,0.478,0.135c0.508,0,0.92-0.412,0.92-0.92c0-0.508-0.412-0.921-0.92-0.921
		c-0.508,0-0.92,0.413-0.92,0.921c0,0.042,0.003,0.085,0.01,0.127L12.448,9.39V5.505h-0.896v2.051L10.41,6.73
		c0.011-0.056,0.016-0.111,0.016-0.17c0-0.508-0.412-0.92-0.92-0.92c-0.508,0-0.92,0.412-0.92,0.92c0,0.508,0.412,0.92,0.92,0.92
		c0.161,0,0.311-0.041,0.443-0.113l1.603,1.16v2.56l-1.14-0.825c0.008-0.05,0.014-0.102,0.014-0.154c0-0.51-0.412-0.921-0.92-0.921
		c-0.508,0-0.92,0.412-0.92,0.921c0,0.507,0.412,0.92,0.92,0.92c0.166,0,0.321-0.044,0.454-0.121l1.591,1.152v2.731l-1.139-0.825
		c0.008-0.05,0.013-0.1,0.013-0.152c0-0.508-0.413-0.92-0.92-0.92c-0.508,0-0.92,0.412-0.92,0.92c0,0.508,0.412,0.92,0.92,0.92
		c0.167,0,0.323-0.046,0.457-0.123l1.589,1.149v2.735h0.896v-0.901l1.553-1.124c0.142,0.09,0.311,0.144,0.493,0.144
		c0.508,0,0.92-0.412,0.92-0.92c0-0.508-0.412-0.92-0.92-0.92c-0.508,0-0.92,0.412-0.92,0.92c0,0.037,0.003,0.073,0.006,0.109
		l-1.132,0.82V13.893z M12.448,13.893"/>
	<g>
		<defs>
			<rect id="SVGID_1_" x="1.027" y="1" width="21.946" height="22"/>
		</defs>
		<clipPath id="SVGID_2_">
			<use xlink:href="#SVGID_1_"  overflow="visible"/>
		</clipPath>
		<path clip-path="url(#SVGID_2_)" d="M15.707,4.04c0.301-0.651,0.606-1.298,0.925-1.985c-3.53-1.486-6.97-1.415-10.257,0.543
			c-3.179,1.891-4.904,4.765-5.348,8.465c0.754,0.067,1.468,0.13,2.182,0.189C3.6,5.661,9.779,1.373,15.707,4.04L15.707,4.04z
			 M15.707,4.04"/>
		<path clip-path="url(#SVGID_2_)" d="M22.794,10.116c-0.71,0.121-1.415,0.247-2.151,0.373c0.382,2.56-0.148,4.868-1.711,6.889
			c-1.554,2.012-3.638,3.117-6.184,3.4c0.063,0.723,0.126,1.428,0.184,2.133C18.262,22.722,23.975,17.369,22.794,10.116
			L22.794,10.116z M22.794,10.116"/>
	</g>
	<path d="M3.178,12.793c-0.678,0.059-1.383,0.121-2.088,0.18c0.166,4.468,4.064,9.498,9.942,9.974
		c0.063-0.723,0.126-1.433,0.184-2.12C6.618,20.059,3.955,17.396,3.178,12.793L3.178,12.793z M3.178,12.793"/>
	<path d="M18.94,6.663c0.548,0.71,0.97,1.491,1.298,2.353c0.683-0.247,1.356-0.494,2.061-0.75c-0.813-2.164-2.138-3.889-4.019-5.241
		c-0.417,0.597-0.831,1.181-1.257,1.792C17.75,5.351,18.397,5.958,18.94,6.663L18.94,6.663z M18.94,6.663"/>
</g>
</svg>
