<?xml version="1.0" encoding="utf-8"?>
<!-- Generator: Adobe Illustrator 17.0.0, SVG Export Plug-In . SVG Version: 6.00 Build 0)  -->
<!DOCTYPE svg PUBLIC "-//W3C//DTD SVG 1.1//EN" "http://www.w3.org/Graphics/SVG/1.1/DTD/svg11.dtd">
<svg version="1.1" id="Слой_1" xmlns="http://www.w3.org/2000/svg" xmlns:xlink="http://www.w3.org/1999/xlink" x="0px" y="0px"
	 width="24px" height="24px" viewBox="0 0 24 24" enable-background="new 0 0 24 24" xml:space="preserve">
<path fill="#7B7C7C" d="M21.139,3.951L18.958,1.77c-2.104-2.104-5.529-2.105-7.634,0c-1.92,1.92-2.089,4.938-0.507,7.05L1.508,18.13
	c-0.301,0.301-0.301,0.789,0,1.091l2.181,2.181c0.301,0.301,0.789,0.301,1.091,0l0.546-0.545l2.727,2.727
	c0.301,0.301,0.789,0.301,1.091,0l1.636-1.636l-1.636-1.636c-0.301-0.301-0.301-0.79,0-1.091c0.301-0.301,0.789-0.301,1.091,0
	l1.636,1.636l1.636-1.636c0.301-0.301,0.301-0.789,0-1.091l-2.727-2.727l3.311-3.311c2.114,1.582,5.131,1.414,7.051-0.507
	C23.244,9.481,23.244,6.056,21.139,3.951z M18.958,9.405c-0.805,0.805-2.034,0.881-2.919,0.29c-0.295-0.198-2.283-2.22-2.534-2.471
	c-0.902-0.902-0.902-2.37-0.001-3.272l0.001,0c0.901-0.902,2.37-0.903,3.272,0c0.277,0.277,2.274,2.24,2.471,2.534
	C19.843,7.373,19.76,8.603,18.958,9.405z"/>
</svg>
