<?xml version="1.0" encoding="utf-8"?>
<!-- Generator: Adobe Illustrator 17.0.0, SVG Export Plug-In . SVG Version: 6.00 Build 0)  -->
<!DOCTYPE svg PUBLIC "-//W3C//DTD SVG 1.1//EN" "http://www.w3.org/Graphics/SVG/1.1/DTD/svg11.dtd">
<svg version="1.1" id="Слой_1" xmlns="http://www.w3.org/2000/svg" xmlns:xlink="http://www.w3.org/1999/xlink" x="0px" y="0px"
	 width="24px" height="24px" viewBox="0 0 24 24" enable-background="new 0 0 24 24" xml:space="preserve">
<g opacity="0.54">
	<g>
		<defs>
			<rect id="SVGID_1_" x="1.106" y="1.197" width="22" height="22"/>
		</defs>
		<clipPath id="SVGID_2_">
			<use xlink:href="#SVGID_1_"  overflow="visible"/>
		</clipPath>
		<path clip-path="url(#SVGID_2_)" d="M15.823,4.237c0.302-0.651,0.608-1.298,0.927-1.985C13.212,0.766,9.763,0.837,6.468,2.795
			C3.281,4.686,1.552,7.56,1.106,11.26c0.756,0.067,1.472,0.13,2.188,0.189C3.686,5.858,9.88,1.569,15.823,4.237L15.823,4.237z
			 M15.823,4.237"/>
		<path clip-path="url(#SVGID_2_)" d="M22.926,10.313c-0.711,0.121-1.418,0.247-2.156,0.373c0.382,2.56-0.149,4.868-1.715,6.889
			c-1.558,2.012-3.646,3.117-6.199,3.4c0.063,0.723,0.126,1.428,0.184,2.133C18.384,22.918,24.11,17.565,22.926,10.313
			L22.926,10.313z M22.926,10.313"/>
	</g>
	<path d="M3.263,12.989c-0.68,0.059-1.387,0.121-2.093,0.18c0.166,4.468,4.074,9.498,9.967,9.974
		c0.063-0.723,0.126-1.433,0.185-2.12C6.711,20.255,4.042,17.592,3.263,12.989L3.263,12.989z M3.263,12.989"/>
	<path d="M19.064,6.859c0.549,0.71,0.972,1.491,1.301,2.353c0.684-0.247,1.36-0.494,2.066-0.75
		c-0.815-2.164-2.143-3.889-4.029-5.241c-0.418,0.597-0.833,1.181-1.26,1.792C17.871,5.548,18.519,6.154,19.064,6.859L19.064,6.859z
		 M19.064,6.859"/>
	<g>
		<g>
			<defs>
				<rect id="SVGID_3_" x="5.784" y="5.741" width="13.163" height="13.171"/>
			</defs>
			<clipPath id="SVGID_4_">
				<use xlink:href="#SVGID_3_"  overflow="visible"/>
			</clipPath>
			<path clip-path="url(#SVGID_4_)" d="M12.798,7.72L6.06,14.444c-0.367,0.366-0.367,0.959,0,1.326l2.658,2.651
				c0.367,0.366,0.962,0.364,1.327,0l6.74-6.724L12.798,7.72z M12.798,7.72"/>
		</g>
		<path d="M18.692,8.3l-2.563-2.559l-2.077,2.074l2.563,2.557L18.692,8.3z M17.583,8.152l-0.428,0.426l-0.522-0.52l0.429-0.428
			L17.583,8.152z M15.84,7.263l0.427-0.426l0.522,0.521l-0.429,0.425L15.84,7.263z M15.84,7.263"/>
	</g>
</g>
</svg>
