<?xml version="1.0" encoding="iso-8859-1"?>
<!-- Generator: Adobe Illustrator 18.0.0, SVG Export Plug-In . SVG Version: 6.00 Build 0)  -->
<!DOCTYPE svg PUBLIC "-//W3C//DTD SVG 1.1//EN" "http://www.w3.org/Graphics/SVG/1.1/DTD/svg11.dtd">
<svg xmlns="http://www.w3.org/2000/svg" xmlns:xlink="http://www.w3.org/1999/xlink" version="1.1" id="Capa_1" x="0px" y="0px" viewBox="0 0 464.871 464.871" style="enable-background:new 0 0 464.871 464.871;" xml:space="preserve" width="512px" height="512px">
<g>
	<path d="M410.66,252.471H137.918c-29.892,0-54.211,24.319-54.211,54.211s24.319,54.211,54.211,54.211H410.66   c29.892,0,54.211-24.319,54.211-54.211S440.552,252.471,410.66,252.471z M410.66,345.893H137.918   c-21.621,0-39.211-17.59-39.211-39.211s17.59-39.211,39.211-39.211H410.66c21.621,0,39.211,17.59,39.211,39.211   S432.281,345.893,410.66,345.893z" fill="#FFFFFF"/>
	<path d="M175.964,292.369c-2.071-3.588-6.66-4.817-10.245-2.745l-8.021,4.631v-9.261c0-4.142-3.357-7.5-7.5-7.5s-7.5,3.358-7.5,7.5   v9.261l-8.021-4.631c-3.589-2.072-8.175-0.843-10.245,2.745c-2.071,3.587-0.842,8.174,2.745,10.245l8.021,4.631l-8.021,4.631   c-3.587,2.071-4.816,6.658-2.745,10.245c1.39,2.406,3.91,3.751,6.502,3.751c1.272,0,2.563-0.324,3.743-1.006l8.021-4.631v9.261   c0,4.142,3.357,7.5,7.5,7.5s7.5-3.358,7.5-7.5v-9.261l8.021,4.631c1.182,0.682,2.471,1.006,3.743,1.006   c2.592,0,5.113-1.345,6.502-3.751c2.071-3.587,0.842-8.174-2.745-10.245l-8.021-4.631l8.021-4.631   C176.806,300.543,178.035,295.956,175.964,292.369z" fill="#FFFFFF"/>
	<path d="M245.73,292.369c-2.07-3.588-6.66-4.817-10.245-2.745l-8.021,4.631v-9.262c0-4.142-3.357-7.5-7.5-7.5s-7.5,3.358-7.5,7.5   v9.261l-8.021-4.631c-3.59-2.072-8.176-0.842-10.245,2.745c-2.071,3.587-0.842,8.174,2.745,10.245l8.021,4.631l-8.021,4.631   c-3.587,2.071-4.816,6.658-2.745,10.245c1.389,2.406,3.91,3.751,6.502,3.751c1.272,0,2.563-0.324,3.743-1.006l8.021-4.631v9.261   c0,4.142,3.357,7.5,7.5,7.5s7.5-3.358,7.5-7.5v-9.262l8.021,4.631c1.182,0.682,2.471,1.006,3.743,1.006   c2.592,0,5.113-1.346,6.502-3.751c2.071-3.587,0.842-8.174-2.745-10.245l-8.021-4.631l8.021-4.631   C246.572,300.544,247.801,295.957,245.73,292.369z" fill="#FFFFFF"/>
	<path d="M315.494,292.369c-2.07-3.588-6.659-4.817-10.245-2.745l-8.021,4.631v-9.262c0-4.142-3.357-7.5-7.5-7.5s-7.5,3.358-7.5,7.5   v9.261l-8.021-4.631c-3.59-2.072-8.175-0.842-10.245,2.745c-2.071,3.587-0.842,8.174,2.745,10.245l8.021,4.631l-8.021,4.631   c-3.587,2.071-4.816,6.658-2.745,10.245c1.389,2.406,3.91,3.751,6.502,3.751c1.272,0,2.563-0.324,3.743-1.006l8.021-4.631v9.261   c0,4.142,3.357,7.5,7.5,7.5s7.5-3.358,7.5-7.5v-9.262l8.021,4.631c1.182,0.682,2.471,1.006,3.743,1.006   c2.592,0,5.113-1.346,6.502-3.751c2.071-3.587,0.842-8.174-2.745-10.245l-8.021-4.631l8.021-4.631   C316.336,300.544,317.566,295.957,315.494,292.369z" fill="#FFFFFF"/>
	<path d="M385.259,292.369c-2.07-3.588-6.659-4.817-10.245-2.745l-8.021,4.631v-9.261c0-4.142-3.357-7.5-7.5-7.5s-7.5,3.358-7.5,7.5   v9.262l-8.021-4.631c-3.589-2.072-8.175-0.842-10.245,2.745c-2.071,3.587-0.842,8.174,2.745,10.245l8.021,4.631l-8.021,4.631   c-3.587,2.071-4.816,6.658-2.745,10.245c1.389,2.406,3.91,3.751,6.502,3.751c1.272,0,2.563-0.324,3.743-1.006l8.021-4.631v9.262   c0,4.142,3.357,7.5,7.5,7.5s7.5-3.358,7.5-7.5v-9.261l8.021,4.631c1.182,0.682,2.471,1.006,3.743,1.006   c2.592,0,5.113-1.346,6.502-3.751c2.071-3.587,0.842-8.174-2.745-10.245l-8.021-4.631l8.021-4.631   C386.101,300.544,387.33,295.957,385.259,292.369z" fill="#FFFFFF"/>
	<path d="M58.58,292.421h-0.307v-6.32c0-13.771-11.204-24.976-24.976-24.976S8.323,272.33,8.323,286.101v6.32H8.016   c-4.143,0-7.5,3.358-7.5,7.5v44.817c0,4.142,3.357,7.5,7.5,7.5H58.58c4.143,0,7.5-3.358,7.5-7.5v-44.817   C66.08,295.779,62.723,292.421,58.58,292.421z M23.323,286.101c0-5.5,4.475-9.976,9.976-9.976s9.976,4.475,9.976,9.976v6.32H23.323   V286.101z M51.08,337.238H15.516v-29.817H51.08V337.238z" fill="#FFFFFF"/>
	<path d="M137.918,212.401H410.66c29.892,0,54.211-24.319,54.211-54.211s-24.319-54.211-54.211-54.211H137.918   c-29.892,0-54.211,24.319-54.211,54.211S108.027,212.401,137.918,212.401z M137.918,118.979H410.66   c21.621,0,39.211,17.59,39.211,39.211s-17.59,39.211-39.211,39.211H137.918c-21.621,0-39.211-17.59-39.211-39.211   S116.297,118.979,137.918,118.979z" fill="#FFFFFF"/>
	<path d="M7.5,196.943h50.564c4.143,0,7.5-3.358,7.5-7.5v-3.156c0-11.072-5.523-20.873-13.952-26.811   c3.558-4.259,5.704-9.736,5.704-15.706c0-13.528-11.006-24.533-24.534-24.533c-13.527,0-24.533,11.005-24.533,24.533   c0,5.97,2.146,11.447,5.704,15.706C5.523,165.414,0,175.214,0,186.287v3.156C0,193.585,3.357,196.943,7.5,196.943z M32.782,134.237   c5.257,0,9.534,4.276,9.534,9.533s-4.277,9.534-9.534,9.534s-9.533-4.277-9.533-9.534S27.525,134.237,32.782,134.237z    M32.782,168.504c8.308,0,15.303,5.727,17.246,13.439H15.536C17.479,174.231,24.475,168.504,32.782,168.504z" fill="#FFFFFF"/>
	<path d="M141.166,179.706h22c4.143,0,7.5-3.358,7.5-7.5s-3.357-7.5-7.5-7.5h-14.5v-23.5c0-4.142-3.357-7.5-7.5-7.5   s-7.5,3.358-7.5,7.5v31C133.666,176.348,137.024,179.706,141.166,179.706z" fill="#FFFFFF"/>
	<path d="M289.766,179.706c4.143,0,7.5-3.358,7.5-7.5v-31c0-4.142-3.357-7.5-7.5-7.5s-7.5,3.358-7.5,7.5v31   C282.266,176.348,285.623,179.706,289.766,179.706z" fill="#FFFFFF"/>
	<path d="M316.766,179.706c4.143,0,7.5-3.358,7.5-7.5V159.74l17.11,17.681c1.441,1.489,3.397,2.285,5.392,2.285   c0.945,0,1.899-0.179,2.812-0.548c2.832-1.146,4.687-3.896,4.687-6.952v-31c0-4.142-3.357-7.5-7.5-7.5s-7.5,3.358-7.5,7.5v12.465   l-17.11-17.681c-2.125-2.195-5.368-2.885-8.203-1.736c-2.832,1.146-4.687,3.896-4.687,6.952v31   C309.266,176.348,312.623,179.706,316.766,179.706z" fill="#FFFFFF"/>
	<path d="M199.731,179.706c12.683,0,23-10.318,23-23s-10.317-23-23-23s-23,10.318-23,23S187.048,179.706,199.731,179.706z    M199.731,148.706c4.411,0,8,3.589,8,8s-3.589,8-8,8s-8-3.589-8-8S195.32,148.706,199.731,148.706z" fill="#FFFFFF"/>
	<path d="M256.338,179.435v3.771c0,4.142,3.357,7.5,7.5,7.5s7.5-3.358,7.5-7.5v-15.54c0-3.033-1.827-5.768-4.63-6.929   s-6.028-0.519-8.173,1.625c-3.119,3.119-8.193,3.12-11.314,0c-3.119-3.119-3.119-8.195-0.001-11.313   c3.121-3.118,8.194-3.12,11.315,0c2.928,2.929,7.677,2.928,10.606,0c2.929-2.929,2.929-7.678-0.001-10.607   c-8.967-8.967-23.559-8.965-32.527,0c-8.967,8.968-8.967,23.559,0.001,32.527C241.979,178.334,249.359,180.487,256.338,179.435z" fill="#FFFFFF"/>
</g>
<g>
</g>
<g>
</g>
<g>
</g>
<g>
</g>
<g>
</g>
<g>
</g>
<g>
</g>
<g>
</g>
<g>
</g>
<g>
</g>
<g>
</g>
<g>
</g>
<g>
</g>
<g>
</g>
<g>
</g>
</svg>
