<?xml version="1.0" encoding="utf-8"?>
<!-- Generator: Adobe Illustrator 17.0.0, SVG Export Plug-In . SVG Version: 6.00 Build 0)  -->
<!DOCTYPE svg PUBLIC "-//W3C//DTD SVG 1.1//EN" "http://www.w3.org/Graphics/SVG/1.1/DTD/svg11.dtd">
<svg version="1.1" id="Слой_1" xmlns="http://www.w3.org/2000/svg" xmlns:xlink="http://www.w3.org/1999/xlink" x="0px" y="0px"
	 width="48px" height="48px" viewBox="0 0 48 48" enable-background="new 0 0 48 48" xml:space="preserve">
<g>
	<g>
		<g>
			<path fill="#FFFFFF" d="M11.272,8.603c-0.015,0.183-0.158,0.35-0.438,0.512c-1.18,0.605-2.3,1.257-3.294,1.924
				c-0.067,0.04-0.207,0.123-0.2,0.013c0.003-0.053,0.064-0.151,0.1-0.21c0.4-0.59,0.883-1.089,1.446-1.485
				c0,0,0.575-0.451,2.565-1.521C11.301,7.917,11.241,8.175,11.272,8.603"/>
		</g>
		<g>
			<path fill="#FFFFFF" d="M15.283,5.442c0.299,0.091,0.103,0.204,0.034,0.237c-0.025,0.012-2.556,0.942-3.774,1.502
				c-0.295,0.117-0.479,0.106-0.548-0.033c-0.103-0.396-0.12-0.62-0.047-0.657c0.109-0.05,0.899-0.361,1.57-0.624
				C13.044,5.663,14.653,5.3,15.283,5.442"/>
		</g>
		<g>
			<path fill="#FFFFFF" d="M5.495,17.947c-0.007,0.498-0.177,0.892-0.521,1.204c-0.67,0.511-1.288,1.023-1.841,1.531
				c-0.642,0.59-1.167,1.145-1.576,1.661c-0.029,0.029-0.074,0.064-0.112,0.078c-0.104-0.088-0.142-0.121-0.12-0.577
				c0.177-2.203,0.792-4.295,1.8-6.167c0.287-0.519,0.486-0.815,0.603-0.971c0.274-0.346,0.626-0.718,1.057-1.114
				c0.37-0.34,0.784-0.683,1.233-1.026c0.114-0.075,0.114-0.075,0.2-0.045c0.013,0.137,0.013,0.137-0.044,0.308
				C5.618,14.278,5.384,16.013,5.495,17.947"/>
		</g>
		<path fill="#FFFFFF" d="M1.052,22.257c-0.058,0.575-0.136,0.963-0.244,1.22c-0.227,0.441-0.347,0.842-0.365,1.199l0.025-0.426
			c0.212-1.965,0.22-2.042,0.487-3.2c0.498-1.8,0.538-1.948,1.013-3.108c0.33-0.716,0.797-1.658,1.174-2.35
			c-0.073,0.129-0.145,0.258-0.217,0.388C1.888,17.895,1.248,20.025,1.052,22.257"/>
		<g>
			<path fill="#FFFFFF" d="M21.016,10.269c0.24,0.358,0.136,0.628-0.317,0.824c-1.996,0.668-4.047,1.488-6.046,2.407
				c-0.497,0.181-0.842,0.089-1.053-0.281c-0.67-1.608-1.178-2.911-1.501-3.846c-0.042-0.234,0.088-0.422,0.406-0.594
				c1.34-0.616,2.714-1.165,4.052-1.613c0.354-0.096,0.669-0.08,0.962,0.05C18.648,7.832,19.835,8.865,21.016,10.269"/>
		</g>
		<g>
			<path fill="#FFFFFF" d="M8.181,27.274c0.233,0.581,0.173,1.016-0.191,1.369c-0.743,0.567-1.427,1.135-2.04,1.698
				c-0.712,0.654-1.294,1.27-1.747,1.842c-0.231,0.202-0.527,0.073-0.783-0.46c-0.892-1.856-1.877-4.907-2.069-6.911
				c-0.033-0.565,0.015-1,0.225-1.275c0.91-1.192,2.831-2.764,3.522-3.291c0.372-0.226,0.609-0.11,0.747,0.367
				C6.213,22.452,6.781,24.367,8.181,27.274"/>
		</g>
		<g>
			<path fill="#FFFFFF" d="M3.109,32.194c0.265,0.559,0.351,0.966,0.263,1.245c-0.474,0.923-0.53,1.687-0.189,2.266
				c-3.184-6.323-2.758-9.634-2.758-9.634c0.093-0.596,0.177-1.455,0.489-1.406c0.139,0.022,0.103,0.247,0.142,0.592
				C1.237,27.278,2.969,31.922,3.109,32.194"/>
		</g>
		<g>
			<path fill="#FFFFFF" d="M14.099,20.898c0.205,0.578,0.066,1.014-0.425,1.334c-2.145,1.1-4.181,2.286-5.989,3.499
				c-0.463,0.238-0.84,0.104-1.151-0.411c-0.135-0.275-0.266-0.552-0.394-0.831c-0.931-2.029-1.586-3.983-1.98-5.804
				c-0.065-0.52,0.095-0.929,0.491-1.25c1.68-1.128,3.573-2.23,5.568-3.253c0.497-0.201,0.851-0.093,1.081,0.33
				c0.674,1.658,1.482,3.523,2.412,5.551C13.84,20.341,13.969,20.619,14.099,20.898"/>
		</g>
		<g>
			<path fill="#FFFFFF" d="M26.444,18.898c0.212,0.647,0.037,1.09-0.536,1.354c-2.491,0.834-5.052,1.856-7.546,3.003
				c-0.628,0.213-1.102,0.028-1.449-0.565c-0.145-0.314-0.29-0.628-0.433-0.942c-1.047-2.284-1.98-4.372-2.781-6.219
				c-0.16-0.524,0.023-0.928,0.558-1.234c2.319-1.066,4.7-2.018,7.016-2.792c0.589-0.141,1.055,0.006,1.423,0.447
				c1.153,1.706,2.278,3.718,3.326,6.002C26.166,18.266,26.307,18.581,26.444,18.898"/>
		</g>
		<g>
			<path fill="#FFFFFF" d="M25.081,17.813c0.153,0.466,0.027,0.785-0.386,0.975c-1.795,0.6-3.639,1.337-5.436,2.163
				c-0.452,0.154-0.794,0.02-1.044-0.407c-0.104-0.226-0.208-0.452-0.312-0.678c-0.755-1.645-1.426-3.15-2.003-4.479
				c-0.115-0.377,0.016-0.668,0.402-0.889c1.671-0.768,3.385-1.453,5.054-2.011c0.424-0.102,0.759,0.004,1.025,0.322
				c0.831,1.229,1.641,2.678,2.396,4.323C24.88,17.358,24.982,17.585,25.081,17.813"/>
		</g>
		<g opacity="0.83">
			<path fill="#FFFFFF" d="M13.924,36.449c0.292,0.343,0.329,0.603,0.116,0.82c-0.467,0.357-0.897,0.713-1.283,1.067
				c-0.448,0.411-0.813,0.798-1.098,1.158c-0.166,0.136-0.435,0.083-0.822-0.161c-1.576-1.101-2.986-2.462-4.136-4.04
				c-0.263-0.402-0.328-0.713-0.199-0.95c0.352-0.444,0.803-0.92,1.354-1.428c0.475-0.436,1.006-0.876,1.582-1.315
				c0.324-0.187,0.62-0.092,0.903,0.292C11.388,33.566,12.608,35.106,13.924,36.449"/>
		</g>
		<path fill="#FFFFFF" d="M12.878,36.234c0.292,0.343,0.329,0.603,0.116,0.82c-0.467,0.357-0.897,0.713-1.283,1.067
			c-0.447,0.411-0.813,0.798-1.098,1.158c-0.166,0.136-0.435,0.083-0.822-0.161c-1.576-1.101-2.987-2.462-4.136-4.04
			c-0.263-0.402-0.328-0.713-0.199-0.95c0.352-0.444,0.803-0.921,1.354-1.428c0.475-0.436,1.006-0.876,1.582-1.315
			c0.324-0.187,0.62-0.092,0.903,0.292C10.342,33.351,11.562,34.891,12.878,36.234"/>
		<g opacity="0.86">
			<path fill="#FFFFFF" d="M10.553,34.585c0.225,0.264,0.253,0.465,0.09,0.633c-0.36,0.275-0.692,0.55-0.988,0.822
				c-0.345,0.317-0.627,0.615-0.847,0.893c-0.128,0.105-0.335,0.064-0.634-0.124c-1.215-0.849-2.302-1.898-3.188-3.114
				c-0.203-0.31-0.253-0.549-0.153-0.732c0.271-0.342,0.619-0.709,1.044-1.1c0.366-0.336,0.775-0.675,1.219-1.014
				c0.25-0.144,0.478-0.07,0.696,0.225C8.599,32.363,9.539,33.549,10.553,34.585"/>
		</g>
		<g>
			<path fill="#FFFFFF" d="M10.439,41.014c0.482,0.35,0.686,0.612,0.642,0.825c-0.386,0.751-0.427,1.371-0.141,1.838
				c-0.084,0.031-0.126,0.046-0.689-0.266c-1.757-1.005-3.351-2.299-4.706-3.857c-0.396-0.494-1.105-1.36-1.386-1.798
				c-0.365-0.568-0.302-1.34,0.174-2.266c0.151-0.173,0.403-0.032,0.773,0.43C6.585,37.923,8.403,39.639,10.439,41.014"/>
		</g>
		<g>
			<path fill="#FFFFFF" d="M19.99,31.375c0.237,0.548,0.149,0.951-0.266,1.231c-1.852,0.95-3.61,1.973-5.17,3.021
				c-0.419,0.208-0.845,0.106-1.3-0.313c-1.757-1.881-3.395-4.022-4.813-6.336c-0.296-0.592-0.231-1.059,0.198-1.427
				c1.923-1.291,4.091-2.553,6.374-3.725c0.579-0.221,1.027-0.055,1.371,0.509C17.576,26.779,18.799,29.164,19.99,31.375"/>
		</g>
		<g>
			<path fill="#FFFFFF" d="M29.079,28.757c0.062,0.567-0.111,0.938-0.529,1.137c-1.778,0.595-3.605,1.325-5.385,2.144
				c-0.451,0.147-0.812-0.013-1.102-0.49c-1.038-2.093-2.125-4.337-3.206-6.626c-0.209-0.579-0.067-1.005,0.433-1.304
				c2.195-1.009,4.448-1.91,6.64-2.643c0.549-0.118,0.942,0.097,1.2,0.656C27.977,24.014,28.631,26.43,29.079,28.757"/>
		</g>
		<g>
			<path fill="#FFFFFF" d="M20.453,5.777c0.291,0.01,0.405,0.019,0.507,0.039c-0.017,0.006-0.039,0.014-0.055,0.021
				c-0.531,0.032-1.138,0.115-1.818,0.25c-0.427,0.085-0.867,0.188-1.318,0.307c-0.297,0.065-0.597,0.074-0.947,0.029
				c-0.683-0.107-1.346-0.076-1.975,0.101l0.263-0.073c0.782-0.197,0.828-0.208,1.281-0.299c1.233-0.219,1.691-0.291,3.112-0.367
				l0.347-0.01C20.052,5.771,20.253,5.772,20.453,5.777"/>
		</g>
		<g>
			<path fill="#FFFFFF" d="M32.264,12.872c0.289,0.486,0.166,0.599,0.067,0.622c-0.487,0.061-1.045,0.212-1.669,0.461
				c-0.392,0.157-0.797,0.346-1.211,0.565c-0.274,0.098-0.504-0.032-0.703-0.395c-0.712-1.547-1.443-2.667-2.154-3.311
				c-0.218-0.231-0.033-0.361,0.006-0.384c0.278-0.147,0.549-0.274,0.811-0.379c0.419-0.167,0.792-0.268,1.119-0.308
				c0.165-0.006,0.378,0.047,0.633,0.156C30.256,10.407,31.309,11.412,32.264,12.872"/>
		</g>
		<g>
			<path fill="#FFFFFF" d="M39.329,4.893c0.289,0.486,0.166,0.599,0.067,0.622c-0.487,0.061-1.045,0.212-1.669,0.461
				c-0.392,0.157-0.797,0.346-1.211,0.565c-0.274,0.098-0.504-0.032-0.703-0.395c-0.712-1.547-1.443-2.667-2.154-3.311
				c-0.218-0.231-0.032-0.36,0.006-0.384c0.601-0.39,1.604-0.647,1.93-0.688c0.165-0.006,0.378,0.047,0.633,0.156
				C37.321,2.427,38.374,3.432,39.329,4.893"/>
		</g>
		<g>
			<path fill="#FFFFFF" d="M43.581,12.61c0.269,0.394,0.155,0.485,0.062,0.504c-0.453,0.049-0.972,0.171-1.553,0.373
				c-0.365,0.127-0.741,0.28-1.126,0.458c-0.255,0.079-0.469-0.026-0.654-0.32c-0.662-1.253-1.343-2.16-2.004-2.681
				c-0.203-0.187-0.031-0.292,0.006-0.312c0.258-0.119,0.51-0.222,0.755-0.307c0.389-0.135,0.737-0.218,1.041-0.25
				c0.154-0.005,0.352,0.038,0.589,0.126C41.713,10.613,42.693,11.427,43.581,12.61"/>
		</g>
		<path fill="#FFFFFF" d="M47.321,5.572c0.225,0.162,0.129,0.213,0.052,0.207c-0.379-0.034-1.543,0.091-2.237,0.34
			c-0.213,0.032-0.391-0.01-0.546-0.131c-0.553-0.513-1.121-0.885-1.673-1.098c-0.169-0.077-0.025-0.119,0.005-0.127
			c0.216-0.049,1.246-0.215,1.499-0.228C45.342,4.544,46.58,5.087,47.321,5.572"/>
		<g>
			<path fill="#FFFFFF" d="M33.051,17.279c0.155,0.454,0.091,0.706-0.196,0.77c-0.78,0.048-1.671,0.169-2.67,0.368
				c-0.627,0.125-1.274,0.276-1.936,0.451c-0.436,0.065-0.751-0.113-0.989-0.559c-0.098-0.228-0.198-0.454-0.302-0.679
				c-0.752-1.639-1.583-3.076-2.456-4.287c-0.2-0.342-0.124-0.564,0.239-0.7c0.615-0.163,1.217-0.303,1.8-0.419
				c0.928-0.185,1.757-0.297,2.482-0.342c0.314,0.014,0.623,0.174,0.945,0.489c1.087,1.173,2.035,2.589,2.787,4.228
				C32.859,16.824,32.958,17.05,33.051,17.279"/>
		</g>
		<g>
			<path fill="#FFFFFF" d="M34.771,26.532c-0.048,0.408-0.177,0.633-0.393,0.686c-0.543,0.033-1.164,0.117-1.859,0.256
				c-0.436,0.087-0.887,0.193-1.348,0.314c-0.294,0.037-0.472-0.127-0.56-0.517c-0.242-1.652-0.646-3.36-1.21-5.037
				c-0.101-0.416,0.015-0.683,0.354-0.818c0.569-0.15,1.124-0.28,1.663-0.387c0.857-0.17,1.623-0.274,2.292-0.315
				c0.272,0.026,0.468,0.238,0.597,0.648C34.73,23.064,34.878,24.817,34.771,26.532"/>
		</g>
		<g>
			<path fill="#FFFFFF" d="M22.159,41.653c0.555,0.274,0.536,0.411,0.473,0.49c-0.284,0.216-0.545,0.433-0.779,0.648
				c-0.272,0.249-0.494,0.484-0.667,0.703c-0.097,0.066-0.358,0.129-1.052,0.051c-2.372-0.323-4.708-1.064-6.886-2.163
				c-0.514-0.287-0.715-0.537-0.613-0.763c0.345-0.436,0.788-0.904,1.33-1.401c0.466-0.429,0.987-0.86,1.552-1.292
				c0.34-0.188,0.717-0.115,1.184,0.229C18.475,39.635,20.327,40.826,22.159,41.653"/>
		</g>
		<g>
			<path fill="#FFFFFF" d="M20.002,43.746c0.627,0.079,0.785,0.142,0.863,0.198c-0.179,0.386-0.198,0.681-0.062,0.903
				c-0.05,0.035-0.143,0.101-0.897,0.129c-2.433,0.057-4.823-0.341-7.047-1.154c-0.53-0.203-0.863-0.374-0.988-0.507
				c-0.27-0.442-0.232-1.029,0.133-1.74c0.142-0.144,0.466-0.096,1.019,0.149C15.227,42.783,17.594,43.476,20.002,43.746"/>
		</g>
		<g>
			<path fill="#FFFFFF" d="M24.796,39.086c0.142,0.25,0.148,0.42,0.018,0.518c-0.614,0.315-1.197,0.654-1.714,1.002
				c-0.158,0.07-0.399,0.033-0.717-0.109c-1.317-0.661-2.654-1.592-3.939-2.732c-0.289-0.295-0.323-0.534-0.104-0.731
				c1.031-0.692,2.193-1.369,3.416-1.996c0.315-0.116,0.577-0.01,0.802,0.322C23.361,36.782,24.121,38.05,24.796,39.086"/>
		</g>
		<g opacity="0.83">
			<path fill="#FFFFFF" d="M22.618,39.507c0.165,0.29,0.171,0.486,0.02,0.599c-0.71,0.364-1.385,0.757-1.984,1.159
				c-0.183,0.081-0.462,0.038-0.829-0.126c-1.523-0.765-3.07-1.842-4.558-3.161c-0.334-0.341-0.373-0.618-0.12-0.846
				c1.192-0.801,2.537-1.584,3.953-2.309c0.364-0.134,0.668-0.012,0.928,0.373C20.957,36.841,21.837,38.308,22.618,39.507"/>
		</g>
		<g>
			<path fill="#FFFFFF" d="M29.587,37.592c-0.062,0.426-0.2,0.698-0.409,0.808c-0.845,0.282-1.713,0.63-2.559,1.019
				c-0.22,0.06-0.428-0.069-0.633-0.395c-0.786-1.437-1.698-3.177-2.683-5.116c-0.2-0.492-0.113-0.845,0.269-1.081
				c1.686-0.775,3.416-1.466,5.1-2.029c0.415-0.081,0.668,0.138,0.772,0.668C29.707,33.691,29.759,35.773,29.587,37.592"/>
		</g>
		<g>
			<path fill="#FFFFFF" d="M33.38,37.192c-0.353,0.579-0.574,0.749-0.698,0.788c-0.369,0.023-0.79,0.08-1.261,0.174
				c-0.296,0.059-0.602,0.131-0.915,0.213c-0.114,0.005-0.255-0.056-0.175-0.633c0.34-1.87,0.439-3.997,0.303-6.26
				c0.004-0.571,0.186-0.912,0.574-1.072c0.623-0.165,1.233-0.307,1.823-0.425c0.94-0.187,1.78-0.301,2.514-0.346
				c0.28,0.042,0.374,0.343,0.288,0.919C35.358,32.921,34.531,35.178,33.38,37.192"/>
		</g>
		<g>
			<path fill="#FFFFFF" d="M30.557,9.339c-0.306-0.061-0.664-0.241-1.127-0.567c-1.762-1.301-3.718-2.197-5.758-2.65
				c-0.375-0.083-0.439-0.099-0.531-0.123c0.105,0,0.183,0.01,0.257,0.022c1.677,0.329,1.853,0.363,2.985,0.719
				c1.746,0.637,1.889,0.689,3.019,1.26c1.681,0.952,1.782,1.009,2.745,1.719l0.34,0.259C32.063,9.648,31.416,9.431,30.557,9.339"/>
		</g>
		<g>
			<path fill="#FFFFFF" d="M34.885,10.21c-0.432-0.387-1.133-0.64-2.089-0.743c-0.137-0.004-0.297,0.067,0.17,0.593
				c1.38,1.452,2.573,3.204,3.503,5.233c0.128,0.279,0.249,0.559,0.365,0.842c0.257,0.563,0.534,0.879,0.847,0.966
				c1.207,0.129,2.196,0.644,2.499,1.041C38.152,13.131,34.885,10.21,34.885,10.21z"/>
		</g>
		<g>
			<path fill="#FFFFFF" d="M38.685,27.45c-0.062,0.299-0.109,0.473-0.199,0.596c-0.016,0.001-0.038,0.002-0.054,0.003
				c-0.277-0.355-0.815-0.584-1.6-0.668c-0.184-0.067-0.259-0.322-0.235-0.801c0.178-1.978,0.046-4.002-0.423-5.967
				c-0.09-0.473-0.026-0.714,0.194-0.738c0.967,0.104,1.631,0.386,1.972,0.824c0.094,0.156,0.19,0.463,0.295,0.94
				C39.035,23.575,39.038,25.545,38.685,27.45"/>
		</g>
		<g>
			<path fill="#FFFFFF" d="M43.667,23.198c-0.037,0.182-0.066,0.287-0.12,0.361c-0.01,0-0.023,0.001-0.032,0.002
				c-0.168-0.215-0.495-0.355-0.971-0.405c-0.111-0.041-0.157-0.195-0.143-0.486c0.108-1.2,0.028-2.428-0.257-3.621
				c-0.055-0.287-0.016-0.433,0.118-0.447c0.587,0.063,0.99,0.234,1.197,0.5c0.057,0.094,0.115,0.281,0.179,0.57
				C43.88,20.845,43.882,22.041,43.667,23.198"/>
		</g>
		<g>
			<path fill="#FFFFFF" d="M35.719,37.915c-0.14,0.157-0.469,0.526-0.682,0.636c-0.189-0.21-0.505-0.345-0.966-0.395
				c-0.032-0.073-0.065-0.149,0.323-0.793c1.259-2.012,2.183-4.268,2.737-6.639c0.158-0.584,0.341-0.872,0.575-0.908
				c0.919,0.098,1.549,0.366,1.873,0.783c0.061,0.161-0.003,0.52-0.189,1.067C38.571,33.926,37.331,36.05,35.719,37.915"/>
		</g>
		<g>
			<path fill="#FFFFFF" d="M36.716,38.082c-0.14,0.157-0.469,0.526-0.682,0.636c-0.189-0.21-0.505-0.345-0.966-0.395
				c-0.032-0.073-0.065-0.149,0.323-0.793c1.259-2.012,2.183-4.268,2.737-6.639c0.158-0.584,0.341-0.872,0.575-0.908
				c0.919,0.098,1.549,0.366,1.873,0.783c0.061,0.161-0.003,0.52-0.189,1.067C39.568,34.092,38.328,36.216,36.716,38.082"/>
		</g>
		<g>
			<path fill="#FFFFFF" d="M26.425,44.478c-0.989,0.348-2.096,0.521-3.288,0.535c-0.425-0.008-0.611-0.081-0.553-0.214
				c0.414-0.522,0.898-1.057,1.422-1.578c0.204-0.138,0.462,0.001,0.639,0.118C25.356,43.859,25.957,44.246,26.425,44.478"/>
		</g>
		<g>
			<path fill="#FFFFFF" d="M28.471,43.546c-0.258-0.424-0.587-1.041-0.973-1.819c-0.082-0.189-0.168-0.456,0.039-0.584
				c0.697-0.266,1.411-0.498,2.102-0.68c0.161-0.005,0.191,0.178,0.088,0.544C29.402,42.015,28.984,42.873,28.471,43.546"/>
		</g>
		<g>
			<path fill="#FFFFFF" d="M30.499,6.75c0.637,0.534,0.366,0.657,0.147,0.684c-1.073,0.066-5.428,0.886-6.339,1.126
				c-0.604,0.107-1.109-0.035-1.548-0.434c-1.568-1.698-3.177-2.927-4.742-3.634c-0.478-0.254-0.072-0.396,0.015-0.422
				c0.61-0.161,3.529-0.71,4.249-0.755C24.126,3.088,28.398,5.147,30.499,6.75"/>
		</g>
		<g opacity="0.84">
			<path fill="#FFFFFF" d="M21.462,26.522c0.184,0.427,0.116,0.74-0.207,0.958c-1.442,0.739-2.81,1.536-4.024,2.351
				c-0.327,0.162-0.657,0.082-1.012-0.244c-1.367-1.464-2.642-3.131-3.746-4.931c-0.231-0.46-0.18-0.824,0.154-1.111
				c1.497-1.005,3.184-1.987,4.961-2.899c0.45-0.172,0.799-0.043,1.067,0.396C19.584,22.945,20.536,24.801,21.462,26.522"/>
		</g>
		<g opacity="0.84">
			<path fill="#FFFFFF" d="M27.847,9.881c0.099,0.302,0.017,0.508-0.25,0.632c-1.163,0.389-2.358,0.866-3.522,1.402
				c-0.293,0.1-0.514,0.013-0.676-0.264c-0.068-0.146-0.135-0.293-0.202-0.439c-0.489-1.066-0.924-2.04-1.298-2.902
				c-0.075-0.244,0.011-0.433,0.26-0.576c1.082-0.498,2.193-0.942,3.274-1.303c0.275-0.066,0.492,0.003,0.664,0.209
				c0.538,0.796,1.063,1.735,1.552,2.801C27.717,9.586,27.783,9.733,27.847,9.881"/>
		</g>
		<g opacity="0.86">
			<path fill="#FFFFFF" d="M31.926,40.907c-0.158,0.4-0.355,0.633-0.584,0.693c-0.887,0.081-1.812,0.22-2.725,0.405
				c-0.228,0.007-0.4-0.165-0.526-0.53c-0.436-1.579-0.924-3.482-1.438-5.595c-0.082-0.524,0.084-0.848,0.509-0.99
				c1.819-0.368,3.661-0.644,5.429-0.806c0.422,0.017,0.618,0.287,0.599,0.827C32.937,37.137,32.511,39.175,31.926,40.907"/>
		</g>
		<g opacity="0.84">
			<path fill="#FFFFFF" d="M12.718,13.648c0.102,0.423-0.067,0.764-0.517,1.044c-1.935,0.992-3.772,2.062-5.402,3.156
				c-0.399,0.217-0.63,0.11-0.707-0.327c-0.152-1.905,0.027-3.601,0.519-5.004c0.141-0.34,0.348-0.61,0.631-0.824
				c1.092-0.733,2.323-1.45,3.62-2.115c0.319-0.139,0.507-0.105,0.592,0.108C11.681,10.669,12.109,12.011,12.718,13.648"/>
		</g>
		<g opacity="0.73">
			<path fill="#FFFFFF" d="M7.41,21.337c0.071,0.442-0.04,0.735-0.349,0.924c-0.607,0.277-1.173,0.565-1.688,0.86
				c-0.599,0.343-1.101,0.68-1.508,1.007c-0.192,0.104-0.347-0.041-0.473-0.444c-0.054-0.211-0.104-0.424-0.149-0.638
				c-0.328-1.559-0.384-3.076-0.201-4.502c0.066-0.399,0.184-0.678,0.358-0.853c0.378-0.304,0.845-0.617,1.402-0.936
				c0.479-0.274,1.006-0.542,1.57-0.8c0.295-0.099,0.442,0.02,0.462,0.373c-0.034,1.339,0.103,2.808,0.431,4.368
				C7.311,20.91,7.359,21.124,7.41,21.337"/>
		</g>
	</g>
</g>
</svg>
