<?xml version="1.0" encoding="utf-8"?>
<!-- Generator: Adobe Illustrator 17.0.0, SVG Export Plug-In . SVG Version: 6.00 Build 0)  -->
<!DOCTYPE svg PUBLIC "-//W3C//DTD SVG 1.1//EN" "http://www.w3.org/Graphics/SVG/1.1/DTD/svg11.dtd">
<svg version="1.1" id="Слой_1" xmlns="http://www.w3.org/2000/svg" xmlns:xlink="http://www.w3.org/1999/xlink" x="0px" y="0px"
	 width="48px" height="48px" viewBox="0 0 48 48" enable-background="new 0 0 48 48" xml:space="preserve">
<g>
	<g>
		
			<image overflow="visible" opacity="0.75" width="302" height="312" xlink:href="A43AE36C.png"  transform="matrix(0.24 0 0 0.24 -12.2143 -13.399)">
		</image>
		<g>
			<path fill="#BF3918" d="M45.214,45.01c0,0.773-0.627,1.4-1.4,1.4H4.186c-0.773,0-1.4-0.627-1.4-1.4V3.001
				c0-0.773,0.627-1.4,1.4-1.4h39.628c0.773,0,1.4,0.627,1.4,1.4V45.01z"/>
		</g>
	</g>
	<linearGradient id="SVGID_1_" gradientUnits="userSpaceOnUse" x1="24" y1="23.9945" x2="24" y2="1.59">
		<stop  offset="0" style="stop-color:#FFFFFF"/>
		<stop  offset="0.2531" style="stop-color:#F2F2F3"/>
		<stop  offset="0.7327" style="stop-color:#D1D2D3"/>
		<stop  offset="1" style="stop-color:#BCBEC0"/>
	</linearGradient>
	<path opacity="0.12" fill="url(#SVGID_1_)" d="M43.814,1.59H4.186c-0.773,0-1.4,0.627-1.4,1.4v18.377
		c6.041,1.661,13.255,2.627,21.004,2.627c7.93,0,15.299-1.011,21.424-2.744V2.99C45.214,2.217,44.587,1.59,43.814,1.59z"/>
	<path fill="none" stroke="#FFFFFF" stroke-width="2" stroke-miterlimit="10" d="M45.214,44.999c0,0.773-0.627,1.4-1.4,1.4H4.186
		c-0.773,0-1.4-0.627-1.4-1.4V2.99c0-0.773,0.627-1.4,1.4-1.4h39.628c0.773,0,1.4,0.627,1.4,1.4V44.999z"/>
	<polygon fill-rule="evenodd" clip-rule="evenodd" fill="#FFFFFF" points="18.889,10.384 18.889,16.405 18.889,32.088 
		12.448,32.088 12.448,10.384 6.566,10.384 6.566,37.129 12.448,37.129 18.889,37.129 23.86,37.129 24.537,42.59 28.831,42.59 
		28.831,37.129 28.831,32.088 24.91,32.088 24.91,16.405 30.161,16.405 30.161,42.59 35.832,42.59 35.832,16.405 41.434,16.405 
		41.434,10.384 	"/>
	<text transform="matrix(0.8578 0 0 1 6.5675 8.2768)" fill="#FFFFFF" font-family="'MyriadPro-Bold'" font-size="5.6795">цифровые</text>
	<text transform="matrix(0 -0.8123 1 0 41.4552 42.6015)" fill="#FFFFFF" font-family="'MyriadPro-Bold'" font-size="5.8512">технологии</text>
</g>
</svg>
