<?xml version="1.0" encoding="utf-8"?>
<!-- Generator: Adobe Illustrator 17.0.0, SVG Export Plug-In . SVG Version: 6.00 Build 0)  -->
<!DOCTYPE svg PUBLIC "-//W3C//DTD SVG 1.1//EN" "http://www.w3.org/Graphics/SVG/1.1/DTD/svg11.dtd">
<svg version="1.1" id="Слой_1" xmlns="http://www.w3.org/2000/svg" xmlns:xlink="http://www.w3.org/1999/xlink" x="0px" y="0px"
	 width="24px" height="24px" viewBox="0 0 24 24" enable-background="new 0 0 24 24" xml:space="preserve">
<g opacity="0.8">
	<path d="M9.951,16.449c0.234,0.234,0.541,0.351,0.849,0.351c0.307,0,0.614-0.117,0.849-0.351l6-6c0.469-0.469,0.469-1.228,0-1.697
		c-0.469-0.468-1.228-0.468-1.697,0L10.8,13.903l-2.751-2.751c-0.469-0.468-1.228-0.468-1.697,0c-0.469,0.469-0.469,1.228,0,1.697
		L9.951,16.449z"/>
	<path d="M12,24c6.617,0,12-5.383,12-12S18.617,0,12,0S0,5.383,0,12S5.383,24,12,24z M12,2.4c5.293,0,9.6,4.307,9.6,9.6
		s-4.307,9.6-9.6,9.6S2.4,17.293,2.4,12S6.707,2.4,12,2.4z"/>
</g>
</svg>
