<?xml version="1.0" encoding="utf-8"?>
<!-- Generator: Adobe Illustrator 17.0.0, SVG Export Plug-In . SVG Version: 6.00 Build 0)  -->
<!DOCTYPE svg PUBLIC "-//W3C//DTD SVG 1.1//EN" "http://www.w3.org/Graphics/SVG/1.1/DTD/svg11.dtd">
<svg version="1.1" id="Слой_1" xmlns="http://www.w3.org/2000/svg" xmlns:xlink="http://www.w3.org/1999/xlink" x="0px" y="0px"
	 width="48px" height="48px" viewBox="0 0 48 48" enable-background="new 0 0 48 48" xml:space="preserve">
<text transform="matrix(1.0072 0 0 1 14.8192 35.3064)" fill="#FEF8F9" font-family="'Roboto-Regular'" font-size="30.4134">F</text>
<g>
	<g>
		<ellipse fill="#B53737" cx="24" cy="24" rx="22.836" ry="23"/>
		<ellipse fill="#B92318" cx="24" cy="24" rx="21.531" ry="21.686"/>
	</g>
	<g>
		<path fill="#FFFFFF" d="M41.632,30.265c-1.187-2.143-6.383-3.508-10.972-3.766c-0.415-0.444-0.836-0.911-1.267-1.402
			c-3.944-4.509-5.541-11.062-6.137-14.533c-0.071-0.736-0.149-1.347-0.214-1.803c-0.053-0.362-0.165-1.118-0.951-1.118
			c-0.252,0-0.495,0.108-0.667,0.3c-0.28,0.32-0.238,0.664-0.189,1.061c0.056,0.456,0.14,1.065,0.26,1.761
			c0.336,3.524,0.495,10.235-2.218,15.566c-0.283,0.556-0.565,1.089-0.845,1.598c-5.076,1.476-9.172,4.109-9.772,6.293
			c-0.217,0.791-0.028,1.548,0.533,2.135c0.653,0.682,1.424,1.028,2.292,1.028c2.402,0,5.139-2.675,8.136-7.947
			c1.335-0.351,2.66-0.596,3.94-0.725c0.499-0.051,1.306-0.156,1.803-0.232c1.367-0.211,2.915-0.296,4.505-0.244
			C33.546,32.061,36.555,34,38.809,34c1.211-0.001,2.213-0.591,2.821-1.662C42.004,31.676,42.006,30.938,41.632,30.265z
			 M11.482,35.611c-0.376,0-0.697-0.152-1.011-0.481c-0.129-0.134-0.157-0.249-0.104-0.439c0.309-1.125,2.908-3.052,6.705-4.451
			C14.926,33.625,12.873,35.611,11.482,35.611z M25.09,26.731c-0.471,0.073-1.237,0.172-1.71,0.222
			c-0.861,0.085-1.745,0.221-2.637,0.403c0.037-0.073,0.074-0.146,0.112-0.22c1.33-2.613,2.154-5.747,2.459-9.339
			c1.22,3.415,2.812,6.257,4.745,8.467c0.057,0.066,0.116,0.132,0.173,0.199C27.115,26.49,26.062,26.581,25.09,26.731z
			 M40.084,31.468c-0.294,0.521-0.713,0.763-1.312,0.763h-0.001c-1.409,0-3.576-1.334-6.17-3.78
			c4.015,0.504,6.954,1.719,7.481,2.672C40.159,31.262,40.159,31.335,40.084,31.468z"/>
	</g>
</g>
</svg>
