<?xml version="1.0" encoding="utf-8"?>
<!-- Generator: Adobe Illustrator 17.0.0, SVG Export Plug-In . SVG Version: 6.00 Build 0)  -->
<!DOCTYPE svg PUBLIC "-//W3C//DTD SVG 1.1//EN" "http://www.w3.org/Graphics/SVG/1.1/DTD/svg11.dtd">
<svg version="1.1" id="Слой_1" xmlns="http://www.w3.org/2000/svg" xmlns:xlink="http://www.w3.org/1999/xlink" x="0px" y="0px"
	 width="32px" height="40px" viewBox="0 0 32 40" enable-background="new 0 0 32 40" xml:space="preserve">
<g>
	<path fill="#E74F4E" d="M0.996,15.518v20.869c0,1.484,1.214,2.698,2.698,2.698h24.461c1.484,0,2.698-1.214,2.698-2.698V15.518
		H0.996z"/>
	<path fill="#E74F4E" d="M30.854,16.37v-5.206L20.886,1.085H3.695c-1.484,0-2.698,1.214-2.698,2.698V16.37H30.854z"/>
	<path opacity="0.2" fill="#000204" d="M20.886,1.085l-1.023,9.303c0,1.484,1.214,2.698,2.698,2.698l8.294-1.923L20.886,1.085z"/>
	<path fill="#FFFFFF" d="M20.911,1.085v7.367c0,1.484,1.214,2.698,2.698,2.698h7.245L20.911,1.085z"/>
	<g>
		
			<image display="none" overflow="visible" opacity="0.85" enable-background="new    " width="75" height="58" xlink:href="4FBBD598.png"  transform="matrix(0.2238 0 0 0.2238 2.6117 4.9246)">
		</image>
		<g>
			<text transform="matrix(1 0 0 1 4.6038 11.2013)" fill="#FFFFFF" font-family="'ArialMT'" font-size="6.2917">PDF</text>
		</g>
	</g>
	<g>
		
			<image display="none" overflow="visible" opacity="0.85" enable-background="new    " width="121" height="75" xlink:href="4FBBD59F.png"  transform="matrix(0.2343 0 0 0.2343 2.8651 21.2139)">
		</image>
		<g>
			<g>
				<line fill="none" stroke="#FFFFFF" stroke-width="2" stroke-miterlimit="10" x1="5" y1="23" x2="17" y2="23"/>
				<line fill="none" stroke="#FFFFFF" stroke-width="2" stroke-miterlimit="10" x1="5" y1="26" x2="26" y2="26"/>
				<line fill="none" stroke="#FFFFFF" stroke-width="2" stroke-miterlimit="10" x1="5" y1="30" x2="17" y2="30"/>
				<line fill="none" stroke="#FFFFFF" stroke-width="2" stroke-miterlimit="10" x1="5" y1="33" x2="17" y2="33"/>
				
					<rect x="19.862" y="29.005" fill="none" stroke="#FFFFFF" stroke-width="2" stroke-miterlimit="10" width="6.022" height="3.407"/>
			</g>
		</g>
	</g>
	<rect x="0.996" y="15.518" fill="#FFFFFF" width="29.858" height="0.852"/>
</g>
</svg>
