<?xml version="1.0" encoding="utf-8"?>
<!-- Generator: Adobe Illustrator 17.0.0, SVG Export Plug-In . SVG Version: 6.00 Build 0)  -->
<!DOCTYPE svg PUBLIC "-//W3C//DTD SVG 1.1//EN" "http://www.w3.org/Graphics/SVG/1.1/DTD/svg11.dtd">
<svg version="1.1" id="Слой_1" xmlns="http://www.w3.org/2000/svg" xmlns:xlink="http://www.w3.org/1999/xlink" x="0px" y="0px"
	 width="24px" height="24px" viewBox="0 0 24 24" enable-background="new 0 0 24 24" xml:space="preserve">
<g>
	<path fill="#707173" d="M22.303,12.644c-1.561-1.069-2.045-3.19-1.102-4.83c0.566-0.986,0.272-1.96-0.193-2.543
		c-0.465-0.583-1.349-1.087-2.436-0.754c-1.808,0.554-3.769-0.39-4.464-2.15C13.691,1.311,12.745,0.934,12,0.934
		s-1.691,0.377-2.108,1.434c-0.695,1.759-2.655,2.703-4.464,2.15C4.341,4.185,3.457,4.689,2.992,5.272
		c-0.465,0.583-0.76,1.557-0.193,2.543c0.942,1.64,0.458,3.761-1.102,4.83c-0.938,0.642-1.095,1.648-0.929,2.375
		s0.744,1.565,1.868,1.736c1.87,0.286,3.226,1.987,3.089,3.873c-0.083,1.134,0.606,1.884,1.277,2.207
		c0.672,0.323,1.687,0.394,2.522-0.378c0.694-0.642,1.586-0.963,2.477-0.963c0.891,0,1.782,0.321,2.477,0.963
		c0.835,0.772,1.85,0.701,2.522,0.378c0.672-0.323,1.36-1.073,1.277-2.207c-0.137-1.886,1.219-3.588,3.089-3.873
		c1.124-0.172,1.702-1.01,1.868-1.736C23.399,14.292,23.242,13.287,22.303,12.644z M12,19.866c-4.09,0-7.418-3.328-7.418-7.418
		S7.91,5.03,12,5.03s7.418,3.328,7.418,7.418C19.418,16.538,16.09,19.866,12,19.866z"/>
	<path fill="#707173" d="M18.035,12.448c0-3.328-2.707-6.035-6.035-6.035S5.965,9.12,5.965,12.448S8.672,18.483,12,18.483
		S18.035,15.776,18.035,12.448z M9.408,11.882c0.313-0.219,0.744-0.144,0.963,0.168l0.719,1.023l3.187-2.328
		c0.308-0.225,0.741-0.158,0.966,0.151c0.225,0.308,0.158,0.741-0.151,0.966l-3.756,2.743c-0.119,0.087-0.262,0.133-0.408,0.133
		c-0.038,0-0.075-0.003-0.113-0.009c-0.183-0.03-0.346-0.133-0.453-0.285l-1.123-1.6C9.02,12.533,9.095,12.102,9.408,11.882z"/>
</g>
</svg>
