<?xml version="1.0" encoding="utf-8"?>
<!-- Generator: Adobe Illustrator 17.0.0, SVG Export Plug-In . SVG Version: 6.00 Build 0)  -->
<!DOCTYPE svg PUBLIC "-//W3C//DTD SVG 1.1//EN" "http://www.w3.org/Graphics/SVG/1.1/DTD/svg11.dtd">
<svg version="1.1" id="Слой_1" xmlns="http://www.w3.org/2000/svg" xmlns:xlink="http://www.w3.org/1999/xlink" x="0px" y="0px"
	 width="24px" height="24px" viewBox="0 0 24 24" enable-background="new 0 0 24 24" xml:space="preserve">
<g>
	<path fill="#707173" d="M9.334,17.896c0-0.472-0.01-11.36-0.011-11.787c0-0.403-0.316-0.73-0.706-0.73
		c-0.39,0-0.705,0.328-0.705,0.731l0.001,0.561L4.512,6.675c-0.202,0-0.393,0.09-0.527,0.246L2.76,8.351L0.705,8.353
		C0.315,8.353,0,8.681,0,9.084l0.005,5.853c0,0.403,0.316,0.73,0.706,0.73l2.055-0.002l1.227,1.428
		c0.134,0.156,0.326,0.245,0.527,0.245l3.402-0.003l0.001,0.561c0,0.403,0.316,0.73,0.706,0.73
		C9.019,18.627,9.334,18.299,9.334,17.896z"/>
	<path fill="#707173" d="M14.745,6.104c0,0.324,0.002,2.346,0.003,2.8l-2.962,0.003c-0.39,0-0.705,0.328-0.705,0.731
		s0.316,0.73,0.706,0.73l2.962-0.003l0.003,3.265l-2.962,0.003c-0.39,0-0.705,0.328-0.705,0.731s0.316,0.73,0.706,0.73l2.962-0.003
		c0,0.453,0.002,2.476,0.003,2.8c0,0.403,0.316,0.73,0.706,0.73c0.39,0,0.705-0.328,0.705-0.731l-0.001-0.561l3.402-0.003
		c0.202,0,0.393-0.09,0.527-0.246l1.225-1.431l2.055-0.002c0.39,0,0.705-0.328,0.705-0.731l-0.005-5.853
		c0-0.403-0.316-0.73-0.706-0.73l-2.055,0.002l-1.227-1.428c-0.134-0.156-0.326-0.245-0.527-0.245l-3.402,0.003l-0.001-0.561
		c0-0.403-0.316-0.73-0.706-0.73S14.745,5.701,14.745,6.104z M21.294,11.992c0.001,1.074-0.842,1.949-1.879,1.95
		c-1.037,0.001-1.882-0.872-1.882-1.947c-0.001-1.074,0.842-1.949,1.879-1.95C20.448,10.044,21.293,10.917,21.294,11.992z"/>
</g>
</svg>
