<?xml version="1.0" encoding="utf-8"?>
<!-- Generator: Adobe Illustrator 17.0.0, SVG Export Plug-In . SVG Version: 6.00 Build 0)  -->
<!DOCTYPE svg PUBLIC "-//W3C//DTD SVG 1.1//EN" "http://www.w3.org/Graphics/SVG/1.1/DTD/svg11.dtd">
<svg version="1.1" id="Слой_1" xmlns="http://www.w3.org/2000/svg" xmlns:xlink="http://www.w3.org/1999/xlink" x="0px" y="0px"
	 width="24px" height="24px" viewBox="0 0 24 24" enable-background="new 0 0 24 24" xml:space="preserve">
<g opacity="0.54">
	<g>
		<defs>
			<rect id="SVGID_1_" x="1" y="0.936" width="22" height="22"/>
		</defs>
		<clipPath id="SVGID_2_">
			<use xlink:href="#SVGID_1_"  overflow="visible"/>
		</clipPath>
		<path clip-path="url(#SVGID_2_)" d="M15.716,3.977c0.302-0.651,0.608-1.298,0.927-1.985C13.105,0.505,9.657,0.577,6.362,2.535
			C3.174,4.426,1.446,7.3,1,11c0.756,0.067,1.472,0.13,2.188,0.189C3.579,5.598,9.774,1.309,15.716,3.977L15.716,3.977z
			 M15.716,3.977"/>
		<path clip-path="url(#SVGID_2_)" d="M22.82,10.052c-0.711,0.121-1.418,0.247-2.156,0.373c0.382,2.56-0.149,4.868-1.715,6.889
			c-1.558,2.012-3.646,3.117-6.199,3.4c0.063,0.723,0.126,1.428,0.184,2.133C18.278,22.658,24.004,17.305,22.82,10.052L22.82,10.052
			z M22.82,10.052"/>
	</g>
	<path d="M3.156,12.729c-0.68,0.059-1.387,0.121-2.093,0.18c0.166,4.468,4.074,9.498,9.967,9.974
		c0.063-0.723,0.126-1.433,0.185-2.12C6.605,19.995,3.935,17.332,3.156,12.729L3.156,12.729z M3.156,12.729"/>
	<path d="M18.957,6.599c0.549,0.71,0.972,1.491,1.301,2.353c0.684-0.247,1.36-0.494,2.066-0.75
		c-0.815-2.164-2.143-3.889-4.029-5.241c-0.418,0.597-0.833,1.181-1.26,1.792C17.765,5.288,18.413,5.894,18.957,6.599L18.957,6.599z
		 M18.957,6.599"/>
	<g>
		<path fill="#010202" d="M17.654,9.478l-2.96-2.957c-0.279-0.28-0.768-0.279-1.047,0L12.66,7.506
			c-0.14,0.139-0.217,0.325-0.217,0.523c0,0.198,0.077,0.384,0.217,0.523l2.961,2.957c0.14,0.14,0.326,0.217,0.524,0.217
			c0.198,0,0.384-0.077,0.523-0.217l0.987-0.986c0.14-0.139,0.217-0.325,0.217-0.523C17.871,9.803,17.794,9.617,17.654,9.478z"/>
		<path fill="#010202" d="M12.454,9.047c-0.081-0.081-0.207-0.095-0.303-0.036c-0.72,0.441-1.849,0.966-3.135,0.966
			c-0.11,0-0.207,0.073-0.237,0.179l-1.754,6.124c-0.031,0.109,0.016,0.225,0.115,0.281c0.099,0.056,0.223,0.038,0.301-0.045
			l2.935-3.1c0.099-0.104,0.145-0.251,0.127-0.403c-0.034-0.297,0.102-0.568,0.365-0.724c0.23-0.137,0.536-0.13,0.763,0.016
			c0.196,0.128,0.318,0.323,0.341,0.549c0.023,0.223-0.054,0.441-0.213,0.599c-0.159,0.158-0.379,0.234-0.606,0.208
			c-0.155-0.018-0.298,0.028-0.403,0.128l-3.108,2.928c-0.083,0.078-0.101,0.202-0.045,0.301c0.045,0.078,0.127,0.124,0.214,0.124
			c0.022,0,0.045-0.003,0.068-0.009l6.139-1.75c0.106-0.03,0.179-0.127,0.179-0.237c0-1.283,0.526-2.408,0.968-3.127
			c0.06-0.097,0.045-0.222-0.036-0.303L12.454,9.047z"/>
	</g>
</g>
</svg>
