<?xml version="1.0" encoding="utf-8"?>
<!-- Generator: Adobe Illustrator 17.0.0, SVG Export Plug-In . SVG Version: 6.00 Build 0)  -->
<!DOCTYPE svg PUBLIC "-//W3C//DTD SVG 1.1//EN" "http://www.w3.org/Graphics/SVG/1.1/DTD/svg11.dtd">
<svg version="1.1" id="Слой_1" xmlns="http://www.w3.org/2000/svg" xmlns:xlink="http://www.w3.org/1999/xlink" x="0px" y="0px"
	 width="32px" height="40px" viewBox="0 0 32 40" enable-background="new 0 0 32 40" xml:space="preserve">
<g>
	<path fill="#BF3A1C" d="M1.071,15.433v20.869C1.071,37.786,2.285,39,3.769,39H28.23c1.484,0,2.698-1.214,2.698-2.698V15.433H1.071z
		"/>
	<path fill="#BF3A1C" d="M30.929,16.285v-5.206L20.96,1H3.769C2.285,1,1.071,2.214,1.071,3.698v12.586L30.929,16.285L30.929,16.285z
		"/>
	<path opacity="0.2" fill="#000204" d="M20.96,1l-1.023,9.303c0,1.484,1.214,2.698,2.698,2.698l8.294-1.923L20.96,1z"/>
	<path fill="#FFFFFF" d="M20.986,1v7.367c0,1.484,1.214,2.698,2.698,2.698h7.245L20.986,1z"/>
	<g>
		
			<image display="none" overflow="visible" opacity="0.85" enable-background="new    " width="67" height="58" xlink:href="18F74522.png"  transform="matrix(0.2227 0 0 0.2227 2.6592 4.8731)">
		</image>
		<g>
			<text transform="matrix(1 0 0 1 4.6786 11.1166)" fill="#FFFFFF" font-family="'ArialMT'" font-size="6.2917">SIG</text>
		</g>
	</g>
	<rect x="1.071" y="15.433" fill="#FFFFFF" width="29.858" height="0.852"/>
	<g>
		<path fill="none" stroke="#FFFFFF" stroke-miterlimit="10" d="M23.732,23.872l-4.393-4.398c-0.414-0.416-1.14-0.416-1.553,0
			l-1.464,1.466C16.114,21.147,16,21.423,16,21.717c0,0.294,0.114,0.571,0.322,0.778l4.393,4.399
			c0.207,0.208,0.483,0.323,0.777,0.323s0.57-0.115,0.777-0.322l1.464-1.466c0.208-0.207,0.322-0.484,0.322-0.778
			C24.055,24.356,23.94,24.08,23.732,23.872z"/>
		<path fill="none" stroke="#FFFFFF" stroke-miterlimit="10" d="M16.016,23.231c-0.12-0.12-0.307-0.142-0.45-0.053
			c-1.069,0.655-2.744,1.437-4.651,1.437c-0.163,0-0.307,0.108-0.352,0.266L7.961,33.99c-0.046,0.162,0.024,0.335,0.171,0.419
			c0.146,0.083,0.331,0.056,0.447-0.067l4.355-4.611c0.146-0.155,0.215-0.374,0.189-0.6c-0.05-0.442,0.152-0.845,0.541-1.078
			c0.342-0.204,0.796-0.194,1.132,0.024c0.291,0.19,0.472,0.48,0.507,0.816c0.035,0.331-0.08,0.656-0.316,0.892
			s-0.562,0.348-0.9,0.31c-0.231-0.027-0.442,0.042-0.598,0.19L8.878,34.64c-0.123,0.116-0.15,0.3-0.067,0.447
			C8.878,35.204,9,35.272,9.129,35.272c0.033,0,0.067-0.005,0.1-0.014l9.109-2.602c0.157-0.045,0.266-0.189,0.266-0.352
			c0-1.908,0.781-3.582,1.437-4.651c0.088-0.144,0.067-0.33-0.053-0.45L16.016,23.231z"/>
	</g>
</g>
</svg>
