<?xml version="1.0" encoding="utf-8"?>
<!-- Generator: Adobe Illustrator 17.0.0, SVG Export Plug-In . SVG Version: 6.00 Build 0)  -->
<!DOCTYPE svg PUBLIC "-//W3C//DTD SVG 1.1//EN" "http://www.w3.org/Graphics/SVG/1.1/DTD/svg11.dtd">
<svg version="1.1" id="Слой_1" xmlns="http://www.w3.org/2000/svg" xmlns:xlink="http://www.w3.org/1999/xlink" x="0px" y="0px"
	 width="48px" height="48px" viewBox="0 0 48 48" style="enable-background:new 0 0 48 48;" xml:space="preserve">
<text transform="matrix(1.0072 0 0 1 14.8193 35.3066)" style="fill:#FEF8F9; font-family:'Roboto-Regular'; font-size:30.4134;">F</text>
<g>
	<g>
		<g>
			<g>
				<circle style="fill:#DD5332;" cx="24" cy="24" r="23"/>
				<circle style="fill:#B7482A;" cx="24" cy="24" r="21.686"/>
			</g>
		</g>
		<g>
			<path style="fill:none;stroke:#FFFFFF;stroke-miterlimit:10;" d="M32.884,19.157c0.912-1,0.835-2.544-0.172-3.45l-1.458-1.312
				c-1.007-0.906-2.562-0.829-3.474,0.17l-1.321,1.448l5.104,4.591L32.884,19.157z M23.636,29.293l-5.104-4.591l7.266-7.964
				l5.104,4.591L23.636,29.293z M15.56,27.96l-1.081,6.277l6.185-1.686l2.312-2.534l-5.104-4.591L15.56,27.96z"/>
		</g>
	</g>
</g>
</svg>
