<?xml version="1.0" encoding="utf-8"?>
<!-- Generator: Adobe Illustrator 17.0.0, SVG Export Plug-In . SVG Version: 6.00 Build 0)  -->
<!DOCTYPE svg PUBLIC "-//W3C//DTD SVG 1.1//EN" "http://www.w3.org/Graphics/SVG/1.1/DTD/svg11.dtd">
<svg version="1.1" id="Слой_1" xmlns="http://www.w3.org/2000/svg" xmlns:xlink="http://www.w3.org/1999/xlink" x="0px" y="0px"
	 width="80px" height="80px" viewBox="0 0 80 80" enable-background="new 0 0 80 80" xml:space="preserve">
<g>
	<g>
		<defs>
			<rect id="SVGID_1_" x="0.902" y="1" width="78" height="78"/>
		</defs>
		<clipPath id="SVGID_2_">
			<use xlink:href="#SVGID_1_"  overflow="visible"/>
		</clipPath>
		<path clip-path="url(#SVGID_2_)" fill="#BF3918" d="M53.078,11.779c1.069-2.309,2.155-4.602,3.288-7.037
			c-12.545-5.27-24.771-5.016-36.454,1.927C8.611,13.371,2.483,23.561,0.902,36.681c2.682,0.239,5.219,0.461,7.757,0.669
			C10.048,17.527,32.01,2.322,53.078,11.779L53.078,11.779z M53.078,11.779"/>
		<path clip-path="url(#SVGID_2_)" fill="#BF3918" d="M78.264,33.321c-2.522,0.43-5.028,0.876-7.645,1.322
			c1.356,9.076-0.527,17.259-6.081,24.423c-5.522,7.133-12.928,11.05-21.978,12.053c0.224,2.563,0.447,5.062,0.654,7.563
			C62.159,78.013,82.461,59.034,78.264,33.321L78.264,33.321z M78.264,33.321"/>
	</g>
	<path fill="#BF3918" d="M8.547,42.81c-2.41,0.208-4.916,0.43-7.422,0.637c0.59,15.842,14.444,33.674,35.336,35.362
		c0.224-2.564,0.447-5.08,0.655-7.515C20.774,68.571,11.308,59.13,8.547,42.81L8.547,42.81z M8.547,42.81"/>
	<path fill="#BF3918" d="M64.569,21.077c1.947,2.516,3.447,5.286,4.612,8.343c2.426-0.876,4.82-1.751,7.327-2.66
		c-2.889-7.674-7.598-13.788-14.285-18.58c-1.484,2.118-2.953,4.188-4.469,6.353C60.34,16.428,62.638,18.578,64.569,21.077
		L64.569,21.077z M64.569,21.077"/>
	<g>
		<path fill="#BF3918" d="M59.948,31.284L49.453,20.8c-0.989-0.992-2.724-0.991-3.712-0.001l-3.498,3.494
			c-0.496,0.494-0.77,1.153-0.77,1.854s0.273,1.36,0.769,1.853l10.497,10.485c0.495,0.496,1.154,0.769,1.856,0.769
			s1.362-0.273,1.856-0.768l3.498-3.494c0.496-0.494,0.77-1.153,0.77-1.854C60.718,32.437,60.445,31.778,59.948,31.284z"/>
		<path fill="#BF3918" d="M41.51,29.755c-0.287-0.287-0.733-0.338-1.076-0.127c-2.554,1.562-6.556,3.424-11.114,3.424
			c-0.39,0-0.734,0.258-0.841,0.633L22.26,55.397c-0.11,0.387,0.058,0.799,0.408,0.998c0.349,0.197,0.792,0.135,1.069-0.159
			l10.406-10.991c0.349-0.37,0.514-0.891,0.452-1.429c-0.12-1.053,0.363-2.014,1.293-2.569c0.817-0.486,1.901-0.462,2.705,0.057
			c0.696,0.453,1.127,1.144,1.211,1.946c0.083,0.79-0.192,1.565-0.754,2.125c-0.563,0.562-1.342,0.828-2.15,0.739
			c-0.551-0.065-1.057,0.101-1.429,0.453L24.451,56.947c-0.293,0.276-0.359,0.716-0.16,1.066c0.159,0.278,0.452,0.441,0.76,0.441
			c0.079,0,0.161-0.011,0.24-0.033l21.765-6.203c0.376-0.107,0.635-0.45,0.635-0.839c0-4.547,1.867-8.539,3.433-11.087
			c0.211-0.343,0.159-0.787-0.127-1.073L41.51,29.755z"/>
	</g>
</g>
</svg>
