<?xml version="1.0" encoding="utf-8"?>
<!-- Generator: Adobe Illustrator 17.0.0, SVG Export Plug-In . SVG Version: 6.00 Build 0)  -->
<!DOCTYPE svg PUBLIC "-//W3C//DTD SVG 1.1//EN" "http://www.w3.org/Graphics/SVG/1.1/DTD/svg11.dtd">
<svg version="1.1" id="Слой_1" xmlns="http://www.w3.org/2000/svg" xmlns:xlink="http://www.w3.org/1999/xlink" x="0px" y="0px"
	 width="36px" height="36px" viewBox="0 0 36 36" style="enable-background:new 0 0 36 36;" xml:space="preserve">
<g style="opacity:0.8;">
	<g>
		<g>
			<g>
				<circle style="fill:#E9453A;" cx="18" cy="18" r="17"/>
				<circle style="fill:#E9453A;" cx="18" cy="18" r="16.029"/>
			</g>
		</g>
	</g>
	<path style="fill:none;stroke:#FFFFFF;stroke-miterlimit:10;" d="M24.976,11.074c-0.87-0.864-2.28-0.864-3.15,0L18,14.872
		l-3.826-3.799c-0.87-0.864-2.28-0.864-3.15,0c-0.87,0.864-0.87,2.264,0,3.128L14.85,18l-3.826,3.799
		c-0.87,0.864-0.87,2.264,0,3.128c0.87,0.863,2.28,0.864,3.15,0L18,21.128l3.826,3.799c0.87,0.863,2.28,0.864,3.15,0
		c0.87-0.864,0.87-2.264,0-3.128L21.15,18l3.826-3.799C25.846,13.338,25.846,11.937,24.976,11.074z"/>
</g>
</svg>
