<?xml version="1.0" ?><!DOCTYPE svg  PUBLIC '-//W3C//DTD SVG 1.1//EN'  'http://www.w3.org/Graphics/SVG/1.1/DTD/svg11.dtd'><svg enable-background="new 0 0 32 32" height="32px" id="Слой_1" version="1.1" viewBox="0 0 32 32" width="32px" xml:space="preserve" xmlns="http://www.w3.org/2000/svg" xmlns:xlink="http://www.w3.org/1999/xlink"><path d="M6.003,4.017c-0.552,0-1,0.448-1,1v13.969c0,0.552,0.448,1,1,1h17.598  l-6.205,6.275c-0.391,0.394-0.391,1.033,0,1.427c0.391,0.394,1.024,0.394,1.414,0l7.899-7.988c0.394-0.398,0.378-1.071-0.026-1.453  l-7.873-7.962c-0.391-0.394-1.024-0.394-1.414,0c-0.391,0.394-0.391,1.033,0,1.427l6.188,6.257H7.003V5.017  C7.003,4.465,6.556,4.017,6.003,4.017z" fill="#121313" id="Subdirectory_Arrow_Right"/><g/><g/><g/><g/><g/><g/></svg>