<?xml version="1.0" encoding="utf-8"?>
<!-- Generator: Adobe Illustrator 17.0.0, SVG Export Plug-In . SVG Version: 6.00 Build 0)  -->
<!DOCTYPE svg PUBLIC "-//W3C//DTD SVG 1.1//EN" "http://www.w3.org/Graphics/SVG/1.1/DTD/svg11.dtd">
<svg version="1.1" id="Слой_1" xmlns="http://www.w3.org/2000/svg" xmlns:xlink="http://www.w3.org/1999/xlink" x="0px" y="0px"
	 width="80px" height="80px" viewBox="0 0 80 80" enable-background="new 0 0 80 80" xml:space="preserve">
<g>
	<circle fill="#FFFFFF" cx="40.165" cy="40" r="39"/>
	<circle fill="none" stroke="#BF3A1C" stroke-width="3" stroke-miterlimit="10" cx="40.165" cy="40" r="34.8"/>
	<g>
		<path fill="#BF3A1C" d="M34.182,21.894l7.509-7.506c1.326-1.767,3.97-1.767,5.298,0l7.507,7.506c1.771,1.324,1.771,3.533,0,5.299
			l-7.507,7.508c-1.328,1.324-3.972,1.324-5.298,0l-1.769-1.767l1.651-1.702l1.881,1.702c0.443,0.442,1.324,0.442,1.769,0
			l7.505-7.507c0.442-0.44,0.442-1.325,0-1.766l-7.505-7.508c-0.445-0.442-1.326-0.442-1.769,0l-7.504,7.508
			c-0.443,0.442-0.443,1.326,0,1.766l1.554,1.537l-1.771,1.795l-1.551-1.566C32.856,25.427,32.856,23.218,34.182,21.894z"/>
		<path fill="#BF3A1C" d="M37.43,34.077l-3.145-2.945l5.637-5.705c2.649-2.648,6.624-2.648,9.273,0l0.965,0.962l-3.363,3.263
			l-1.136-1.133c-0.438-0.442-1.763-0.442-2.644,0L37.43,34.077z"/>
		<path fill="#BF3A1C" d="M32.856,58.105c-2.206,2.209-5.298,2.209-7.504,0l-9.715-9.716c-2.211-2.208-2.211-5.298,0-7.507
			l9.715-9.715c2.206-2.208,5.298-2.208,7.504,0l9.716,9.715c2.206,2.209,2.206,5.299,0,7.507l-3.249,3.253l-2.491-2.441l3.536-3.46
			c0.438-0.443,0.438-1.768,0-2.208L30.209,33.375c-0.445-0.442-1.769-0.442-2.208,0L17.842,43.533c-0.438,0.44-0.438,1.766,0,2.208
			l10.159,10.155c0.44,0.441,1.763,0.441,2.208,0l1.992-1.991l2.403,2.453L32.856,58.105z"/>
		<path fill="#BF3A1C" d="M62.003,47.507L49.195,60.314c-2.649,2.208-6.623,2.208-9.273,0L27.115,47.507
			c-2.647-2.649-2.647-6.624,0-9.274l3.293-3.291l3.018,3.168l-3.217,3.215c-0.883,0.884-0.883,2.209,0,2.649l12.807,12.807
			c0.881,0.883,2.206,0.883,2.644,0l12.81-12.807c0.881-0.44,0.881-1.765,0-2.649l-8.311-8.296l3.343-3.294l8.5,8.498
			C64.206,40.883,64.206,44.858,62.003,47.507z"/>
	</g>
</g>
</svg>
