<?xml version="1.0" encoding="utf-8"?>
<!-- Generator: Adobe Illustrator 17.0.0, SVG Export Plug-In . SVG Version: 6.00 Build 0)  -->
<!DOCTYPE svg PUBLIC "-//W3C//DTD SVG 1.1//EN" "http://www.w3.org/Graphics/SVG/1.1/DTD/svg11.dtd">
<svg version="1.1" id="Слой_1" xmlns="http://www.w3.org/2000/svg" xmlns:xlink="http://www.w3.org/1999/xlink" x="0px" y="0px"
	 width="100px" height="100px" viewBox="0 0 100 100" enable-background="new 0 0 100 100" xml:space="preserve">
<g>
	<circle fill="#FFFFFF" cx="50" cy="50" r="49"/>
	<circle fill="#FFFFFF" cx="50" cy="50" r="26.727"/>
	<path fill="#BE3918" d="M50,12.136c-20.911,0-37.864,16.952-37.864,37.864c0,20.912,16.952,37.864,37.864,37.864
		c20.912,0,37.864-16.952,37.864-37.864C87.864,29.089,70.912,12.136,50,12.136z M50,23.273c10.597,0,19.727,6.183,24.049,15.124
		H25.951C30.274,29.456,39.403,23.273,50,23.273z M23.314,50.827h20.839v25.239C32.469,73.455,23.694,63.206,23.314,50.827z
		 M55.847,76.066V50.827h20.839C76.306,63.206,67.531,73.455,55.847,76.066z"/>
</g>
</svg>
