<?xml version="1.0" encoding="utf-8"?>
<!-- Generator: Adobe Illustrator 17.0.0, SVG Export Plug-In . SVG Version: 6.00 Build 0)  -->
<!DOCTYPE svg PUBLIC "-//W3C//DTD SVG 1.1//EN" "http://www.w3.org/Graphics/SVG/1.1/DTD/svg11.dtd">
<svg version="1.1" id="Слой_1" xmlns="http://www.w3.org/2000/svg" xmlns:xlink="http://www.w3.org/1999/xlink" x="0px" y="0px"
	 width="36px" height="36px" viewBox="0 0 36 36" enable-background="new 0 0 36 36" xml:space="preserve">
<g>
	<g>
		<path fill="#F49619" d="M35.084,26.411L21.498,5.124C20.732,3.923,19.424,3.206,18,3.206c-1.424,0-2.732,0.717-3.498,1.917
			L0.916,26.411c-0.816,1.278-0.87,2.898-0.141,4.227c0.729,1.329,2.123,2.155,3.639,2.155h27.171c1.516,0,2.91-0.825,3.639-2.155
			C35.953,29.309,35.899,27.689,35.084,26.411L35.084,26.411z M18,29.21c-1.249,0-2.262-1.012-2.262-2.262
			c0-1.249,1.013-2.262,2.262-2.262c1.249,0,2.263,1.013,2.263,2.262C20.262,28.198,19.249,29.21,18,29.21L18,29.21z M21.135,13.492
			l-1.114,7.501c-0.164,1.104-1.192,1.866-2.296,1.702c-0.892-0.133-1.561-0.832-1.698-1.677l-1.21-7.487
			c-0.281-1.743,0.903-3.384,2.646-3.666c1.743-0.282,3.384,0.903,3.666,2.646C21.182,12.84,21.18,13.179,21.135,13.492
			L21.135,13.492z M21.135,13.492"/>
	</g>
</g>
</svg>
