<?xml version="1.0" encoding="utf-8"?>
<!-- Generator: Adobe Illustrator 17.0.0, SVG Export Plug-In . SVG Version: 6.00 Build 0)  -->
<!DOCTYPE svg PUBLIC "-//W3C//DTD SVG 1.1//EN" "http://www.w3.org/Graphics/SVG/1.1/DTD/svg11.dtd">
<svg version="1.1" id="Слой_1" xmlns="http://www.w3.org/2000/svg" xmlns:xlink="http://www.w3.org/1999/xlink" x="0px" y="0px"
	 width="32px" height="40px" viewBox="0 0 32 40" enable-background="new 0 0 32 40" xml:space="preserve">
<path fill="#99D3DA" d="M0.996,15.36v20.807c0,1.484,1.214,2.698,2.698,2.698h24.461c1.484,0,2.698-1.214,2.698-2.698V15.36H0.996z"
	/>
<path fill="#99D3DA" d="M30.854,16.212v-5.269L20.886,0.864H3.695c-1.484,0-2.698,1.214-2.698,2.698v12.649L30.854,16.212
	L30.854,16.212z"/>
<path opacity="0.2" fill="#000204" d="M20.886,0.864l-1.023,9.304c0,1.484,1.214,2.698,2.698,2.698l8.294-1.923L20.886,0.864z"/>
<path fill="#FFFFFF" d="M20.911,0.864v7.367c0,1.484,1.214,2.698,2.698,2.698h7.245L20.911,0.864z"/>
<g>
	
		<image display="none" overflow="visible" opacity="0.85" enable-background="new    " width="79" height="58" xlink:href="B8CC457.png"  transform="matrix(0.2283 0 0 0.2283 2.4221 4.5734)">
	</image>
	<g>
		<text transform="matrix(1 0 0 1 4.3205 10.9808)" fill="#FFFFFF" font-family="'ArialMT'" font-size="6.2917">DOC</text>
	</g>
</g>
<g>
	
		<image display="none" overflow="visible" opacity="0.85" enable-background="new    " width="117" height="75" xlink:href="B8CC452.png"  transform="matrix(0.2342 0 0 0.2342 2.8585 21.217)">
	</image>
	<g>
		<g>
			<line fill="none" stroke="#FFFFFF" stroke-width="2" stroke-miterlimit="10" x1="5" y1="23" x2="26" y2="23"/>
			<line fill="none" stroke="#FFFFFF" stroke-width="2" stroke-miterlimit="10" x1="5" y1="26" x2="26" y2="26"/>
			<line fill="none" stroke="#FFFFFF" stroke-width="2" stroke-miterlimit="10" x1="5" y1="29" x2="26" y2="29"/>
			<line fill="none" stroke="#FFFFFF" stroke-width="2" stroke-miterlimit="10" x1="5" y1="33" x2="17" y2="33"/>
		</g>
	</g>
</g>
<rect x="0.996" y="15.36" fill="#FFFFFF" width="29.858" height="0.852"/>
</svg>
